<?xml version="1.0" encoding="UTF-8"?>
<svg width="56px" height="23px" viewBox="0 0 56 23" version="1.1" xmlns="http://www.w3.org/2000/svg" xmlns:xlink="http://www.w3.org/1999/xlink">
    <!-- Generator: Sketch 47.1 (45422) - http://www.bohemiancoding.com/sketch -->
    <title>Powderhouse Studios Brandmark</title>
    <desc>Powderhouse Studios</desc>
    <defs></defs>
    <g id="Page-1" stroke="none" stroke-width="1" fill="none" fill-rule="evenodd">
        <g id="Group-5" fill="#D9412E">
            <path d="M54.9279,11.4758 L21.0949,0.6708 C20.6619,0.5318 20.1849,0.5748 19.7869,0.7888 L1.3069,10.7218 C1.0619,10.8538 0.9109,11.0998 0.9109,11.3658 L0.9109,21.9348 C0.9109,22.3438 1.2619,22.6758 1.6929,22.6758 L54.6789,22.6758 C55.1089,22.6758 55.4599,22.3438 55.4599,21.9358 L55.4599,12.1778 C55.4599,11.8608 55.2469,11.5788 54.9279,11.4758 L54.9279,11.4758 Z M37.2119,6.9668 L53.4319,12.1468 C53.6119,12.2048 53.6329,12.4378 53.4649,12.5238 L47.6689,15.4758 C47.4989,15.5628 47.2909,15.5418 47.1429,15.4238 L37.0019,7.3188 C36.8189,7.1728 36.9849,6.8938 37.2119,6.9668 L37.2119,6.9668 Z M45.8119,16.4218 L36.9389,20.9418 C36.7889,21.0188 36.6009,20.9798 36.4969,20.8508 L30.6109,13.5178 C30.5049,13.3858 30.4859,13.2078 30.5609,13.0568 L33.7599,6.6928 C33.8579,6.4978 34.1239,6.4438 34.2989,6.5828 L45.8759,15.8358 C46.0789,15.9978 46.0459,16.3028 45.8119,16.4218 L45.8119,16.4218 Z M29.9209,11.7988 C29.7999,12.0398 29.4519,12.0738 29.2819,11.8618 L21.9499,2.7288 C21.7429,2.4698 22.0129,2.1128 22.3379,2.2168 L32.6509,5.5098 C32.8489,5.5728 32.9429,5.7858 32.8539,5.9648 L29.9209,11.7988 Z M28.9279,13.7728 L25.8269,19.9428 C25.6759,20.2428 25.3019,20.3768 24.9799,20.2448 L10.8199,14.4788 C10.4109,14.3128 10.2939,13.8178 10.5879,13.5018 L20.2849,3.1028 C20.4299,2.9468 20.6899,2.9568 20.8229,3.1218 L28.8589,13.1328 C29.0069,13.3178 29.0339,13.5638 28.9279,13.7728 L28.9279,13.7728 Z M9.1929,13.3538 C9.0059,13.5538 8.7049,13.6178 8.4459,13.5128 L3.3989,11.4568 C3.1349,11.3498 3.1139,11.0018 3.3639,10.8678 L18.5659,2.6968 C18.7799,2.5818 18.9989,2.8378 18.8359,3.0118 L9.1929,13.3538 Z M7.2509,14.2108 C7.6599,14.3778 7.7759,14.8728 7.4829,15.1878 L2.5159,20.5138 C2.3569,20.6838 2.0599,20.5778 2.0599,20.3498 L2.0599,12.8478 C2.0599,12.4928 2.4439,12.2538 2.7879,12.3938 L7.2509,14.2108 Z M9.0099,15.1938 C9.1179,15.0788 9.2919,15.0418 9.4409,15.1028 L23.4859,20.9558 C23.8299,21.0998 23.7219,21.5868 23.3449,21.5868 L3.8199,21.5868 C3.5209,21.5868 3.3609,21.2518 3.5599,21.0388 L9.0099,15.1938 Z M26.7689,20.6008 L29.6169,14.9358 C29.7379,14.6948 30.0849,14.6608 30.2559,14.8738 L35.4729,21.3728 C35.5429,21.4608 35.4769,21.5868 35.3599,21.5868 L28.3719,21.5868 C28.3079,21.5868 28.2449,21.5748 28.1869,21.5508 L26.9459,21.0448 C26.7639,20.9718 26.6839,20.7698 26.7689,20.6008 L26.7689,20.6008 Z M46.9619,17.0728 C47.1319,16.9858 47.3409,17.0068 47.4889,17.1238 L52.6179,21.2238 C52.7729,21.3478 52.6799,21.5868 52.4779,21.5868 L38.9629,21.5868 C38.7359,21.5868 38.6599,21.3008 38.8599,21.1998 L46.9619,17.0728 Z M48.7549,16.7128 C48.5519,16.5508 48.5859,16.2448 48.8199,16.1268 L53.9899,13.4928 C54.1349,13.4188 54.3109,13.5178 54.3109,13.6738 L54.3109,20.7098 C54.3109,20.8848 54.0939,20.9798 53.9529,20.8668 L48.7549,16.7128 Z" id="Fill-1"></path>
            <path d="M22.2224,2.4088 C22.1694,2.4088 22.1304,2.4368 22.1084,2.4688 C22.0884,2.4978 22.0724,2.5448 22.1144,2.5968 L29.4464,11.7298 C29.4824,11.7738 29.5404,11.7978 29.6004,11.7908 C29.6284,11.7878 29.6984,11.7728 29.7324,11.7048 L32.6654,5.8698 C32.6834,5.8338 32.6774,5.8018 32.6684,5.7818 C32.6604,5.7628 32.6394,5.7278 32.5874,5.7108 L22.2734,2.4168 C22.2554,2.4118 22.2384,2.4088 22.2224,2.4088 L22.2224,2.4088 Z M29.5794,12.2128 C29.3994,12.2128 29.2294,12.1338 29.1174,11.9928 L21.7854,2.8598 C21.6364,2.6738 21.6264,2.4258 21.7614,2.2298 C21.9024,2.0248 22.1594,1.9378 22.4024,2.0158 L32.7154,5.3098 C32.8704,5.3588 32.9954,5.4718 33.0574,5.6188 C33.1164,5.7608 33.1114,5.9208 33.0424,6.0588 L30.1094,11.8938 C30.0204,12.0698 29.8464,12.1878 29.6444,12.2098 C29.6234,12.2118 29.6014,12.2128 29.5794,12.2128 L29.5794,12.2128 Z M18.6824,2.8678 L3.4644,11.0528 C3.4044,11.0858 3.3974,11.1338 3.3984,11.1598 C3.4004,11.1808 3.4104,11.2338 3.4784,11.2618 L8.5254,13.3178 C8.7044,13.3898 8.9114,13.3468 9.0384,13.2098 L9.0384,13.2098 L18.6824,2.8678 Z M8.7034,13.7738 C8.5904,13.7738 8.4764,13.7518 8.3674,13.7078 L3.3194,11.6518 C3.1194,11.5708 2.9894,11.3908 2.9784,11.1818 C2.9674,10.9748 3.0764,10.7828 3.2644,10.6818 L18.4664,2.5108 C18.6584,2.4078 18.8844,2.4548 19.0164,2.6258 C19.1414,2.7878 19.1304,3.0058 18.9904,3.1558 L9.3464,13.4978 C9.1794,13.6768 8.9444,13.7738 8.7034,13.7738 L8.7034,13.7738 Z M37.1384,7.1658 C37.1354,7.1658 37.1344,7.1668 37.1334,7.1688 L47.2744,15.2598 C47.3574,15.3258 47.4774,15.3368 47.5734,15.2878 L53.3694,12.3358 L37.1474,7.1678 C37.1434,7.1658 37.1404,7.1658 37.1384,7.1658 L37.1384,7.1658 Z M47.4464,15.7398 C47.2914,15.7398 47.1374,15.6888 47.0124,15.5888 L36.8714,7.4838 C36.7134,7.3578 36.6684,7.1468 36.7624,6.9698 C36.8624,6.7848 37.0734,6.7018 37.2764,6.7658 L53.4954,11.9468 C53.6604,11.9988 53.7754,12.1408 53.7884,12.3088 C53.8024,12.4758 53.7134,12.6338 53.5614,12.7118 L47.7644,15.6638 C47.6644,15.7148 47.5554,15.7398 47.4464,15.7398 L47.4464,15.7398 Z M20.5454,3.2028 C20.5034,3.2028 20.4654,3.2178 20.4394,3.2468 L10.7424,13.6458 C10.6524,13.7418 10.6174,13.8678 10.6444,13.9918 C10.6734,14.1228 10.7664,14.2298 10.8994,14.2838 L25.0594,20.0498 C25.2784,20.1398 25.5374,20.0488 25.6384,19.8488 L28.7404,13.6778 C28.8084,13.5428 28.7904,13.3848 28.6944,13.2648 L20.6584,3.2538 C20.6334,3.2228 20.5944,3.2038 20.5514,3.2028 C20.5494,3.2028 20.5474,3.2028 20.5454,3.2028 L20.5454,3.2028 Z M25.2384,20.5068 C25.1254,20.5068 25.0104,20.4848 24.9004,20.4398 L10.7404,14.6738 C10.4804,14.5688 10.2914,14.3468 10.2324,14.0828 C10.1754,13.8208 10.2484,13.5568 10.4344,13.3588 L20.1304,2.9598 C20.2414,2.8398 20.4014,2.7768 20.5664,2.7818 C20.7314,2.7878 20.8854,2.8638 20.9864,2.9898 L29.0234,13.0008 C29.2234,13.2518 29.2594,13.5838 29.1164,13.8678 L26.0144,20.0378 C25.8664,20.3328 25.5604,20.5068 25.2384,20.5068 L25.2384,20.5068 Z M2.5814,12.5638 C2.5164,12.5638 2.4524,12.5828 2.3974,12.6198 C2.3164,12.6738 2.2704,12.7568 2.2704,12.8478 L2.2704,20.3498 C2.2704,20.3558 2.2704,20.3708 2.2974,20.3818 C2.3074,20.3848 2.3384,20.3948 2.3624,20.3698 L7.3284,15.0438 C7.4184,14.9478 7.4534,14.8218 7.4264,14.6978 C7.3974,14.5668 7.3044,14.4598 7.1714,14.4058 L2.7084,12.5888 C2.6674,12.5718 2.6244,12.5638 2.5814,12.5638 L2.5814,12.5638 Z M2.3224,20.8088 C2.2624,20.8088 2.2024,20.7968 2.1434,20.7738 C1.9644,20.7038 1.8494,20.5368 1.8494,20.3498 L1.8494,12.8478 C1.8494,12.6178 1.9664,12.4018 2.1614,12.2698 C2.3704,12.1298 2.6344,12.1038 2.8674,12.1978 L7.3304,14.0158 C7.5904,14.1218 7.7794,14.3428 7.8384,14.6068 C7.8954,14.8688 7.8224,15.1328 7.6364,15.3318 L2.6704,20.6568 C2.5784,20.7558 2.4524,20.8088 2.3224,20.8088 L2.3224,20.8088 Z M54.1004,13.6738 L48.9154,16.3138 C48.8684,16.3378 48.8374,16.3798 48.8334,16.4278 C48.8304,16.4538 48.8334,16.5058 48.8864,16.5478 L48.8864,16.5478 L54.0844,20.7028 L54.1004,13.6738 Z M54.0924,21.1268 C53.9954,21.1268 53.9004,21.0948 53.8214,21.0318 L48.6244,16.8768 C48.4734,16.7568 48.3944,16.5728 48.4134,16.3848 C48.4334,16.1948 48.5494,16.0278 48.7244,15.9388 L53.8944,13.3048 C54.0314,13.2348 54.1904,13.2408 54.3214,13.3208 C54.4464,13.3978 54.5214,13.5298 54.5214,13.6738 L54.5214,20.7098 C54.5214,20.8688 54.4304,21.0118 54.2834,21.0828 C54.2214,21.1128 54.1564,21.1268 54.0924,21.1268 L54.0924,21.1268 Z M34.0754,6.7158 C34.0644,6.7158 34.0524,6.7168 34.0414,6.7198 C33.9994,6.7288 33.9664,6.7538 33.9484,6.7878 L30.7494,13.1508 C30.7104,13.2278 30.7204,13.3178 30.7754,13.3858 L36.6614,20.7188 C36.7024,20.7698 36.7824,20.7848 36.8434,20.7538 L45.7164,16.2348 C45.7634,16.2098 45.7934,16.1688 45.7984,16.1208 C45.8014,16.0938 45.7984,16.0428 45.7444,15.9998 L34.1674,6.7478 C34.1404,6.7268 34.1084,6.7158 34.0754,6.7158 L34.0754,6.7158 Z M36.7744,21.1918 C36.6064,21.1918 36.4424,21.1188 36.3334,20.9828 L30.4474,13.6498 C30.2904,13.4548 30.2614,13.1848 30.3724,12.9618 L33.5724,6.5978 C33.6464,6.4498 33.7854,6.3438 33.9514,6.3078 C34.1224,6.2708 34.2964,6.3108 34.4304,6.4188 L46.0074,15.6708 C46.1584,15.7918 46.2374,15.9758 46.2174,16.1638 C46.1984,16.3538 46.0824,16.5208 45.9074,16.6098 L37.0354,21.1298 C36.9524,21.1718 36.8624,21.1918 36.7744,21.1918 L36.7744,21.1918 Z M9.2924,15.2838 C9.2444,15.2838 9.1974,15.3028 9.1644,15.3378 L9.1644,15.3378 L3.7134,21.1828 C3.6724,21.2268 3.6794,21.2698 3.6914,21.2988 C3.6994,21.3168 3.7324,21.3768 3.8204,21.3768 L23.3454,21.3768 C23.4524,21.3768 23.4764,21.3008 23.4804,21.2768 C23.4874,21.2448 23.4864,21.1848 23.4044,21.1508 L9.3594,15.2978 C9.3384,15.2888 9.3144,15.2838 9.2924,15.2838 L9.2924,15.2838 Z M23.3454,21.7978 L3.8204,21.7978 C3.5954,21.7978 3.3924,21.6678 3.3054,21.4668 C3.2204,21.2718 3.2584,21.0528 3.4054,20.8958 L8.8564,15.0508 C9.0234,14.8718 9.2904,14.8138 9.5204,14.9078 L23.5664,20.7618 C23.8134,20.8638 23.9454,21.1048 23.8944,21.3598 C23.8424,21.6178 23.6164,21.7978 23.3454,21.7978 L23.3454,21.7978 Z M29.9574,14.9438 C29.9504,14.9438 29.9434,14.9438 29.9364,14.9448 C29.9084,14.9478 29.8394,14.9618 29.8054,15.0308 L26.9574,20.6958 C26.9394,20.7298 26.9454,20.7598 26.9524,20.7788 C26.9644,20.8108 26.9904,20.8358 27.0244,20.8498 L28.2664,21.3558 C28.2994,21.3688 28.3364,21.3768 28.3724,21.3768 L35.2054,21.3768 L30.0914,15.0058 C30.0594,14.9658 30.0104,14.9438 29.9574,14.9438 L29.9574,14.9438 Z M35.3604,21.7978 L28.3724,21.7978 C28.2814,21.7978 28.1924,21.7808 28.1074,21.7458 L26.8664,21.2408 C26.7234,21.1828 26.6104,21.0688 26.5574,20.9268 C26.5054,20.7878 26.5134,20.6388 26.5804,20.5058 L29.4284,14.8418 C29.5164,14.6648 29.6904,14.5468 29.8924,14.5258 C30.0954,14.5038 30.2944,14.5848 30.4204,14.7418 L35.6374,21.2408 C35.7194,21.3438 35.7354,21.4808 35.6794,21.5998 C35.6204,21.7218 35.4984,21.7978 35.3604,21.7978 L35.3604,21.7978 Z M47.1844,17.2298 C47.1414,17.2298 47.0974,17.2398 47.0584,17.2598 L38.9554,21.3868 L52.4774,21.3768 L47.3574,17.2888 C47.3084,17.2498 47.2464,17.2298 47.1844,17.2298 L47.1844,17.2298 Z M52.4774,21.7978 L38.9624,21.7978 C38.7594,21.7978 38.5914,21.6688 38.5454,21.4758 C38.5004,21.2878 38.5884,21.1018 38.7644,21.0118 L46.8664,16.8848 C47.1114,16.7598 47.4064,16.7888 47.6194,16.9588 L52.7494,21.0588 C52.8884,21.1708 52.9404,21.3498 52.8824,21.5158 C52.8224,21.6868 52.6634,21.7978 52.4774,21.7978 L52.4774,21.7978 Z M20.5814,0.8008 C20.3404,0.8008 20.1004,0.8598 19.8854,0.9738 L1.4064,10.9068 C1.2304,11.0018 1.1214,11.1778 1.1214,11.3658 L1.1214,21.9348 C1.1214,22.2268 1.3774,22.4648 1.6924,22.4648 L54.6784,22.4648 C54.9934,22.4648 55.2494,22.2278 55.2494,21.9358 L55.2494,12.1778 C55.2494,11.9518 55.0944,11.7508 54.8634,11.6768 L21.0304,0.8708 C20.8844,0.8238 20.7324,0.8008 20.5814,0.8008 L20.5814,0.8008 Z M54.6784,22.8868 L1.6924,22.8858 C1.1454,22.8858 0.7004,22.4598 0.7004,21.9348 L0.7004,11.3658 C0.7004,11.0228 0.8944,10.7048 1.2064,10.5358 L19.6864,0.6028 C20.1364,0.3618 20.6734,0.3138 21.1594,0.4698 L54.9924,11.2758 C55.3984,11.4058 55.6704,11.7688 55.6704,12.1778 L55.6704,21.9358 C55.6704,22.4598 55.2254,22.8868 54.6784,22.8868 L54.6784,22.8868 Z" id="Fill-3"></path>
        </g>
    </g>
</svg>