
<svg width="113px" height="113px" viewBox="0 41 113 113" version="1.1" xmlns="http://www.w3.org/2000/svg" xmlns:xlink="http://www.w3.org/1999/xlink">
    <!-- Generator: Sketch 39.1 (31720) - http://www.bohemiancoding.com/sketch -->
    <desc>Created with Sketch.</desc>
    <defs></defs>
    <g id="Group-2" stroke="none" stroke-width="1" fill="none" fill-rule="evenodd" transform="translate(0.000000, 41.000000)">
        <g id="Group" fill="#FFFFFF">
            <path d="M102.276732,31.4975217 C103.365361,30.9877935 104.453989,30.4780652 105.543235,29.968337 C106.165661,29.676625 106.930109,29.5507283 107.316656,30.2919837 C107.533393,30.7065217 107.438301,33.3042935 107.438301,34.0664293 C107.438301,34.5257989 107.534628,35.1540543 107.304923,35.5735054 C106.521333,37.0075 104.778787,35.2725815 104.014956,34.7272337 C103.426492,34.3065543 102.828765,33.8963152 102.248328,33.4651957 C101.57465,32.9652935 101.369027,31.9231141 102.276732,31.4975217 L102.276732,31.4975217 Z M95.6609836,35.2123967 C96.2939071,35.6637826 99.0009672,37.450288 99.4344426,38.0109891 C100.028464,38.7792663 99.1615137,39.6470326 98.3118525,39.6593152 C97.5758087,39.6697554 92.1944153,39.6593152 90.240071,39.6593152 C89.5725683,39.6593152 88.8451694,39.6132554 88.6648634,38.810587 C88.4635628,37.9151848 89.268765,37.5890815 89.9202131,37.2838587 C90.9730273,36.7913261 92.0258415,36.2981793 93.0786557,35.8050326 C93.7776503,35.4777011 94.9045628,34.671962 95.6609836,35.2123967 L95.6609836,35.2123967 Z M62.5285191,33.4553696 C63.5486066,34.6805598 64.5680765,35.90575 65.5875464,37.1309402 C66.0018798,37.629 66.6409781,38.1792609 66.4131257,38.8984076 C66.1550164,39.710288 65.3677213,39.6593152 64.6878689,39.6593152 L59.2428743,39.6593152 C58.5296776,39.6593152 57.6849563,39.6230815 57.5589891,38.7209239 C57.470071,38.0852989 58.1073169,37.4269511 58.4432295,36.9393315 C59.0699781,36.027962 59.6973443,35.1172065 60.3247104,34.205837 C60.8106721,33.4989728 61.6683607,32.421788 62.5285191,33.4553696 L62.5285191,33.4553696 Z M17.4390492,31.5374402 C22.2931093,33.4596685 27.1465519,35.3825109 32.000612,37.3053533 C32.2154973,37.3907174 32.4464372,37.4613424 32.6539126,37.5645163 C33.6641202,38.0638043 33.491224,39.6593152 32.2500765,39.6593152 L11.437082,39.6593152 C10.484918,39.6593152 9.9890765,38.5317717 10.6349672,37.8365761 L16.2324809,31.8095 C16.5393716,31.4790978 17.0191585,31.3710109 17.4390492,31.5374402 L17.4390492,31.5374402 Z M14.6313388,24.7838478 L11.165388,23.4112663 C10.3114044,23.0728804 10.2342186,21.9005054 11.0363333,21.4540326 L20.8444863,15.9980978 C22.0072131,15.3514185 22.895776,16.8308587 22.1288579,17.7379293 C21.7132896,18.2292337 21.2477049,18.6867609 20.8092896,19.158413 C19.4020383,20.674087 17.9941694,22.1897609 16.5863005,23.7054348 C16.0818142,24.2483261 15.4995246,25.1277609 14.6313388,24.7838478 L14.6313388,24.7838478 Z M57.6448197,28.8217554 C55.8541093,31.423212 54.0640164,34.0240543 52.273306,36.6255109 C51.710776,37.4435326 51.0068415,39.0881739 49.7836011,38.7086413 C49.1796995,38.5213315 48.5906175,38.236375 48.003388,38.0036196 C41.1282951,35.2799511 24.588306,28.7284076 23.1940219,28.1756902 C22.351153,27.8422174 20.4937541,27.2213315 21.650306,25.975875 L38.9109016,6.30834783 C39.3591967,5.8256413 40.1329071,5.84652174 40.5546503,6.35256522 L57.5849235,27.5155 C57.8955191,27.8888913 57.9196011,28.4219565 57.6448197,28.8217554 L57.6448197,28.8217554 Z M60.2814863,22.5373587 C58.353694,20.2208587 56.4259016,17.9049728 54.4974918,15.5884728 C53.3477322,14.2066793 52.1973552,12.8248859 51.0475956,11.4430924 C50.7938087,11.1384837 50.5177923,10.8418587 50.2819126,10.523125 C49.7008579,9.73703804 50.1874372,8.56466304 51.2643333,8.71635326 C52.1893279,8.84654891 63.326929,12.6019565 65.0528033,13.159587 C66.0000273,13.4654239 67.8160546,13.833288 66.9799781,15.2568424 C66.106235,16.7454946 62.920623,21.1561793 62.3710601,21.9539348 C61.899918,22.6386902 61.0576667,23.4696087 60.2814863,22.5373587 L60.2814863,22.5373587 Z M88.5605082,32.1282337 C84.4696612,34.0437065 80.3788142,35.9597935 76.2879672,37.8752663 C75.7736011,38.1160054 75.2604699,38.4046467 74.7281967,38.6054674 C73.7988798,38.95675 73.337,38.2228641 72.8331311,37.6173315 C71.121459,35.5606087 66.3100055,29.7797989 65.6159508,28.9464239 C65.1299891,28.3617717 64.749,27.8207228 65.2460765,27.054288 C66.5724372,25.0110761 68.0136503,23.0335761 69.3949672,21.0265978 C69.877224,20.3252609 70.3249016,19.5735652 70.8540874,18.9060054 C71.4474918,18.1567663 72.1477213,18.4177717 72.7769399,18.8673152 C74.4836721,20.0863641 87.5682077,29.3026196 88.7284645,30.260663 C89.3459508,30.7703913 89.3440984,31.7615978 88.5605082,32.1282337 L88.5605082,32.1282337 Z M87.7355464,20.4886196 C89.7040929,21.1242446 98.0982022,23.7072772 100.248907,24.5314402 C100.807732,24.7457717 101.187486,25.236462 101.028175,25.857962 C100.88924,26.4002391 100.410689,26.5789511 99.9574536,26.7914402 C98.7762022,27.3447717 97.6042131,27.9306522 96.4087596,28.4532772 C95.5158743,28.8438641 94.9255574,28.2346467 94.2444699,27.7482554 C93.1163224,26.9425163 91.9881749,26.1367772 90.8600273,25.331038 C89.6565464,24.4718696 88.4536831,23.612087 87.2502022,22.7529185 C86.9834481,22.562538 86.6296284,22.3666304 86.4542623,22.0835163 C85.9300164,21.2384728 86.8037596,20.1876957 87.7355464,20.4886196 L87.7355464,20.4886196 Z M7.05231148,27.4227663 L10.0211858,28.5988261 C10.7331475,28.880712 10.939388,29.7853261 10.4194645,30.3447989 L7.45059016,33.541962 C6.77629508,34.2678641 5.55614208,33.7931413 5.55614208,32.8050054 L5.55614208,28.4317826 C5.55614208,27.6641196 6.33540984,27.139038 7.05231148,27.4227663 L7.05231148,27.4227663 Z M36.6052077,1.22580435 L1.84628415,20.5617011 C0.196360656,21.5584348 0.287131148,23.4296902 0.287131148,23.4296902 L0.287131148,42.2798098 C0.287131148,42.2963913 0.288983607,42.3123587 0.289601093,42.3295543 C0.289601093,42.3295543 0.216120219,44.9003043 2.92071038,44.9003043 L110.06447,44.9003043 C111.501361,44.9003043 112.707311,43.7095054 112.707311,42.2798098 L112.707311,24.9508913 C112.705459,24.8968478 112.702989,24.8428043 112.701137,24.7887609 C112.635066,23.7287717 111.903962,22.7866957 110.886962,22.45875 L42.9467923,0.506657609 C39.7161038,-0.614744565 36.6052077,1.22580435 36.6052077,1.22580435 L36.6052077,1.22580435 Z" id="Fill-1"></path>
            <path d="M10.2996721,60.0337065 C11.1091967,60.1319674 11.6729617,60.0797663 11.9915847,59.8789457 C12.3102077,59.6768967 12.4695191,59.3937826 12.4695191,59.0277609 C12.4695191,58.6617391 12.3775137,58.4025761 12.1941202,58.2508859 C12.0101093,58.0991957 11.7773169,58.0218152 11.4957432,58.0218152 C11.0906721,58.0218152 10.7899563,58.1747337 10.5948306,58.4787283 C10.3978525,58.7839511 10.2996721,59.301663 10.2996721,60.0337065 L10.2996721,60.0337065 Z M11.7161858,54.2725489 C12.7455355,54.2725489 13.6161913,54.3947609 14.3275355,54.6385707 C15.0382623,54.8829946 15.6174645,55.214625 16.0651421,55.6359185 C16.5122022,56.0553696 16.837,56.5436033 17.038918,57.0987772 C17.242071,57.6539511 17.3427213,58.2361467 17.3427213,58.84475 C17.3427213,59.7481359 17.174765,60.5084293 16.837,61.1305435 C16.4998525,61.7532717 16.0250055,62.2501033 15.412459,62.6222663 C14.7986776,62.9944293 14.057694,63.2443804 13.1870383,63.3721196 C12.3163825,63.5004728 11.3537213,63.5213533 10.2996721,63.4359891 L10.2996721,67.8061413 C10.2996721,68.172163 10.1162787,68.3551739 9.74825683,68.3551739 L6.05198361,68.3551739 C5.68457923,68.3551739 5.50056831,68.172163 5.50056831,67.8061413 L5.50056831,60.9475326 C5.50056831,60.4850924 5.52156284,59.9999293 5.56478689,59.4938859 C5.60739344,58.9890707 5.70248634,58.4891685 5.85006557,57.9947935 C5.99764481,57.5010326 6.2057377,57.0287663 6.47557923,56.5779946 C6.74480328,56.1272228 7.11220765,55.7298804 7.57840984,55.389038 C8.04461202,55.0481957 8.61393443,54.7755217 9.28884699,54.5747011 C9.96314208,54.3738804 10.7720492,54.2725489 11.7161858,54.2725489 L11.7161858,54.2725489 Z" id="Fill-2"></path>
            <path d="M30.7699617,61.4793696 C30.7699617,61.0144728 30.7211803,60.5858098 30.623,60.1884674 C30.5242022,59.7929674 30.3716831,59.4490543 30.1629727,59.1555 C29.9542623,58.863788 29.6881257,58.6347174 29.3633279,58.4695163 C29.0385301,58.3061576 28.6427213,58.2226359 28.1771366,58.2226359 C27.7109344,58.2226359 27.3157432,58.3061576 26.9915628,58.4695163 C26.666765,58.6347174 26.3993934,58.863788 26.1913005,59.1555 C25.9825902,59.4490543 25.8294536,59.7929674 25.7312732,60.1884674 C25.6330929,60.5858098 25.5843115,61.0144728 25.5843115,61.4793696 C25.5843115,61.9418098 25.6330929,62.3723152 25.7312732,62.7678152 C25.8294536,63.1639293 25.9825902,63.5090707 26.1913005,63.8007826 C26.3993934,64.094337 26.666765,64.3264783 26.9915628,64.4959783 C27.3157432,64.6673207 27.7109344,64.7520707 28.1771366,64.7520707 C28.6427213,64.7520707 29.0385301,64.6673207 29.3633279,64.4959783 C29.6881257,64.3264783 29.9542623,64.094337 30.1629727,63.8007826 C30.3716831,63.5090707 30.5242022,63.1639293 30.623,62.7678152 C30.7211803,62.3723152 30.7699617,61.9418098 30.7699617,61.4793696 L30.7699617,61.4793696 Z M35.9735191,61.3141685 C35.9735191,62.4969837 35.7870383,63.5477609 35.413459,64.4689565 C35.0392623,65.3889239 34.5026667,66.1676413 33.8036721,66.8014239 C33.1052951,67.4352065 32.2624262,67.913 31.2756831,68.2360326 C30.2889399,68.5590652 29.1885792,68.7211957 27.9752186,68.7211957 C26.8964699,68.7211957 25.8936721,68.5652065 24.9686776,68.2538424 C24.0424481,67.9443207 23.2366284,67.4861793 22.5506011,66.8831033 C21.8633388,66.2787989 21.3242732,65.5424565 20.9321694,64.6703913 C20.5400656,63.797712 20.3437049,62.8022065 20.3437049,61.6801902 C20.3437049,60.5084293 20.5462404,59.4637935 20.950694,58.5425978 C21.3545301,57.6226304 21.9127377,56.8457554 22.624082,56.2119728 C23.3348087,55.5775761 24.1776776,55.0954837 25.152071,54.7669239 C26.127082,54.43775 27.1903934,54.2725489 28.342623,54.2725489 C29.470153,54.2725489 30.5032077,54.4230109 31.4411694,54.72025 C32.3791311,55.0199457 33.1824809,55.4645761 33.8506011,56.0553696 C34.5187213,56.6480054 35.0392623,57.3818913 35.413459,58.2600978 C35.7870383,59.1376902 35.9735191,60.1559185 35.9735191,61.3141685 L35.9735191,61.3141685 Z" id="Fill-3"></path>
            <path d="M72.1588361,61.4971793 C72.1588361,61.0580761 72.1106721,60.6533641 72.0124918,60.2812011 C71.9143115,59.909038 71.7457377,59.5890761 71.5067705,59.3213152 C71.2678033,59.0529402 70.9485628,58.8416793 70.5502842,58.6899891 C70.151388,58.5364565 69.6586339,58.4609185 69.0701694,58.4609185 L68.4446557,58.4609185 L68.4446557,64.5156304 L69.0701694,64.5156304 C69.6586339,64.5156304 70.151388,64.4376359 70.5502842,64.2859457 C70.9485628,64.1342554 71.2678033,63.9260652 71.5067705,63.6638315 C71.7457377,63.402212 71.9143115,63.0853207 72.0124918,62.7131576 C72.1106721,62.3409946 72.1588361,61.9362826 72.1588361,61.4971793 L72.1588361,61.4971793 Z M68.5002295,54.6385707 C69.7135902,54.6385707 70.8602623,54.7460435 71.9390109,54.9585326 C73.0171421,55.1716359 73.9551038,55.5376576 74.7522787,56.0553696 C75.5494536,56.5749239 76.1799071,57.2596793 76.6461093,58.1139348 C77.111694,58.966962 77.3451038,60.0337065 77.3451038,61.3141685 C77.3451038,62.5940163 77.1215738,63.6816413 76.6738962,64.5795 C76.2262186,65.4755163 75.6068798,66.2001902 74.8164973,66.7553641 C74.0261148,67.310538 73.090623,67.71525 72.0124918,67.9713424 C70.9331257,68.2274348 69.7623716,68.3551739 68.5002295,68.3551739 L64.0129563,68.3551739 C63.6455519,68.3551739 63.461541,68.172163 63.461541,67.8061413 L63.461541,55.1876033 C63.461541,54.8215815 63.6455519,54.6385707 64.0129563,54.6385707 L68.5002295,54.6385707 L68.5002295,54.6385707 Z" id="Fill-4"></path>
            <path d="M81.3989016,68.3551739 C81.0314973,68.3551739 80.8474863,68.172163 80.8474863,67.8061413 L80.8474863,55.1876033 C80.8474863,54.8215815 81.0314973,54.6385707 81.3989016,54.6385707 L91.1823552,54.6385707 C91.5497596,54.6385707 91.7337705,54.8215815 91.7337705,55.1876033 L91.7337705,57.9309239 C91.7337705,58.2969457 91.5497596,58.4787283 91.1823552,58.4787283 L85.8306011,58.4787283 L85.8306011,59.8881576 L90.9983443,59.8881576 C91.3663661,59.8881576 91.5497596,60.0711685 91.5497596,60.435962 L91.5497596,62.5940163 C91.5497596,62.960038 91.3663661,63.1430489 90.9983443,63.1430489 L85.8306011,63.1430489 L85.8306011,64.5156304 L91.1823552,64.5156304 C91.5497596,64.5156304 91.7337705,64.6967989 91.7337705,65.0628207 L91.7337705,67.8061413 C91.7337705,68.172163 91.5497596,68.3551739 91.1823552,68.3551739 L81.3989016,68.3551739" id="Fill-5"></path>
            <path d="M101.503022,60.0337065 C101.871661,60.0337065 102.177317,59.9581685 102.423077,59.8046359 C102.667601,59.6529457 102.790481,59.3937826 102.790481,59.0277609 C102.790481,58.6617391 102.698475,58.4025761 102.515082,58.2508859 C102.331071,58.0991957 102.098279,58.0218152 101.816087,58.0218152 C101.459798,58.0218152 101.172667,58.1747337 100.951607,58.4787283 C100.731164,58.7839511 100.620634,59.301663 100.620634,60.0337065 L101.503022,60.0337065 L101.503022,60.0337065 Z M101.962432,54.2725489 C103.972967,54.2725489 105.456787,54.6355 106.413273,55.360788 C107.36976,56.0866902 107.847694,57.0643859 107.847694,58.2969457 C107.847694,58.7108696 107.789033,59.1008424 107.672328,59.4668641 C107.555623,59.8328859 107.403104,60.1620598 107.212918,60.455 C107.022732,60.746712 106.80229,60.996663 106.550973,61.203625 C106.299656,61.4124293 106.039077,61.5696467 105.769852,61.6801902 C106.088475,61.7901196 106.376842,61.9418098 106.633716,62.1371033 C106.891208,62.3317826 107.112268,62.5848043 107.295661,62.8961685 C107.479672,63.2069185 107.619842,63.5821522 107.718639,64.0212554 C107.81682,64.4603587 107.865601,64.9780707 107.865601,65.5750054 L107.865601,67.8061413 C107.865601,68.172163 107.682208,68.3551739 107.314186,68.3551739 L103.28694,68.3551739 C102.918918,68.3551739 102.735525,68.172163 102.735525,67.8061413 L102.643519,64.4407065 C102.631169,64.0273967 102.49594,63.7565652 102.239066,63.628212 C101.981574,63.5004728 101.674683,63.4359891 101.319011,63.4359891 L100.620634,63.4359891 L100.620634,67.8061413 C100.620634,68.172163 100.43724,68.3551739 100.068601,68.3551739 L96.3723279,68.3551739 C96.0049235,68.3551739 95.8209126,68.172163 95.8209126,67.8061413 L95.8209126,61.1305435 C95.8209126,60.6681033 95.8419071,60.1798696 95.8857486,59.6676848 C95.9283552,59.1555 96.0172732,58.6439293 96.1518852,58.1317446 C96.2871148,57.6195598 96.4890328,57.1319402 96.7588743,56.6688859 C97.0287158,56.2058315 97.3899454,55.7968207 97.8437978,55.4436957 C98.2970328,55.0899565 98.8614153,54.8068424 99.5357104,54.5925109 C100.209388,54.3794076 101.018913,54.2725489 101.962432,54.2725489 L101.962432,54.2725489 Z" id="Fill-6"></path>
            <path d="M6.05198361,90.3023533 C5.68457923,90.3023533 5.50056831,90.1193424 5.50056831,89.7533207 L5.50056831,77.1347826 C5.50056831,76.7687609 5.68457923,76.58575 6.05198361,76.58575 L9.93226776,76.58575 C10.2996721,76.58575 10.4836831,76.7687609 10.4836831,77.1347826 L10.4836831,81.5417826 L13.7384536,81.5417826 L13.7384536,77.1347826 C13.7384536,76.7687609 13.923082,76.58575 14.2898689,76.58575 L18.1707705,76.58575 C18.5381749,76.58575 18.7221858,76.7687609 18.7221858,77.1347826 L18.7221858,89.7533207 C18.7221858,90.1193424 18.5381749,90.3023533 18.1707705,90.3023533 L14.2898689,90.3023533 C13.923082,90.3023533 13.7384536,90.1193424 13.7384536,89.7533207 L13.7384536,85.3831685 L10.4836831,85.3831685 L10.4836831,89.7533207 C10.4836831,90.1193424 10.2996721,90.3023533 9.93226776,90.3023533 L6.05198361,90.3023533" id="Fill-7"></path>
            <path d="M33.1194973,83.4259348 C33.1194973,82.9616522 33.0707158,82.5329891 32.973153,82.1356467 C32.8743552,81.7401467 32.7212186,81.3962337 32.5125082,81.1026793 C32.3037978,80.8109674 32.0376612,80.5818967 31.7128634,80.4166957 C31.3880656,80.253337 30.9922568,80.1698152 30.5266721,80.1698152 C30.0604699,80.1698152 29.6658962,80.253337 29.3410984,80.4166957 C29.0163005,80.5818967 28.748929,80.8109674 28.5408361,81.1026793 C28.3321257,81.3962337 28.1789891,81.7401467 28.0808087,82.1356467 C27.9826284,82.5329891 27.9344645,82.9616522 27.9344645,83.4259348 C27.9344645,83.8889891 27.9826284,84.3194946 28.0808087,84.7149946 C28.1789891,85.1111087 28.3321257,85.45625 28.5408361,85.747962 C28.748929,86.0415163 29.0163005,86.2736576 29.3410984,86.4431576 C29.6658962,86.6145 30.0604699,86.69925 30.5266721,86.69925 C30.9922568,86.69925 31.3880656,86.6145 31.7128634,86.4431576 C32.0376612,86.2736576 32.3037978,86.0415163 32.5125082,85.747962 C32.7212186,85.45625 32.8743552,85.1111087 32.973153,84.7149946 C33.0707158,84.3194946 33.1194973,83.8889891 33.1194973,83.4259348 L33.1194973,83.4259348 Z M38.3236721,83.2607337 C38.3236721,84.444163 38.1365738,85.4949402 37.7629945,86.4161359 C37.3887978,87.3361033 36.8528197,88.1142065 36.1538251,88.7486033 C35.4548306,89.3823859 34.6119617,89.8601793 33.6252186,90.183212 C32.6384754,90.5062446 31.5387322,90.668375 30.3247541,90.668375 C29.2460055,90.668375 28.2432077,90.5123859 27.3182131,90.2010217 C26.3919836,89.8915 25.5861639,89.4333587 24.9001366,88.8302826 C24.2134918,88.2259783 23.6738087,87.4896359 23.2817049,86.6169565 C22.8896011,85.7448913 22.6938579,84.7493859 22.6938579,83.6273696 C22.6938579,82.4556087 22.895776,81.4109728 23.3002295,80.4897772 C23.7046831,79.5698098 24.2628907,78.7929348 24.9736175,78.1591522 C25.6843443,77.5247554 26.5278306,77.042663 27.5016066,76.7134891 C28.4766175,76.3849293 29.539929,76.2197283 30.6921585,76.2197283 C31.8196885,76.2197283 32.8533607,76.3701902 33.7907049,76.6674293 C34.7292842,76.9665109 35.5320164,77.4117554 36.2001366,78.0025489 C36.8682568,78.5951848 37.3887978,79.3290707 37.7629945,80.206663 C38.1365738,81.0848696 38.3236721,82.1030978 38.3236721,83.2607337 L38.3236721,83.2607337 Z" id="Fill-8"></path>
            <path d="M54.0275847,89.7533207 C54.0275847,90.1193424 53.8441913,90.3023533 53.4761694,90.3023533 L52.0417486,90.3023533 C51.6743443,90.3023533 51.4903333,90.1193424 51.4903333,89.7533207 L51.4903333,88.6386739 C51.2945902,88.9064348 51.0636503,89.1625272 50.8006011,89.406337 C50.5369344,89.6507609 50.2300437,89.8663207 49.8811639,90.0554728 C49.5322842,90.244625 49.1426503,90.3932446 48.7134973,90.5031739 C48.2843443,90.6137174 47.800235,90.668375 47.2605519,90.668375 C45.3728962,90.668375 43.9687322,90.1715435 43.0492951,89.1772663 C42.1304754,88.1842174 41.6704481,86.8208478 41.6704481,85.0902283 L41.6704481,77.1347826 C41.6704481,76.7687609 41.854459,76.58575 42.2224809,76.58575 L45.9181366,76.58575 C46.2861585,76.58575 46.4701694,76.7687609 46.4701694,77.1347826 L46.5615574,85.45625 C46.5745246,85.9193043 46.7060492,86.2478641 46.9573661,86.4431576 C47.2080656,86.637837 47.5180437,86.7360978 47.8860656,86.7360978 C48.2534699,86.7360978 48.5634481,86.637837 48.814765,86.4431576 C49.066082,86.2478641 49.1976066,85.9193043 49.2093388,85.45625 L49.3019617,77.1347826 C49.3019617,76.7687609 49.4859727,76.58575 49.8539945,76.58575 L53.4761694,76.58575 C53.8441913,76.58575 54.0275847,76.7687609 54.0275847,77.1347826 L54.0275847,89.7533207" id="Fill-9"></path>
            <path d="M68.0358798,76.5304783 C68.3057213,76.5679402 68.4403333,76.7448098 68.4403333,77.0604728 L68.4403333,80.1888533 C68.4403333,80.5296957 68.2569399,80.6580489 67.888918,80.5732989 C67.6561257,80.5118859 67.3677596,80.441875 67.0244372,80.3614239 C66.6811148,80.2828152 66.3137104,80.206663 65.9216066,80.1341957 C65.5288852,80.0611141 65.1238142,80.0003152 64.7076284,79.9511848 C64.2902077,79.9020543 63.8981038,79.8781033 63.5306995,79.8781033 C62.7952732,79.8781033 62.4272514,80.0850652 62.4272514,80.5002174 C62.4272514,80.7919293 62.6143497,81.0031902 62.9885464,81.1309293 C63.3621257,81.2592826 63.8252404,81.3900924 64.3766557,81.5239728 C64.8663224,81.6461848 65.3850109,81.7948043 65.9302514,81.972288 C66.4761093,82.1491576 66.9787432,82.4021793 67.438153,82.7313533 C67.8975628,83.059913 68.2810219,83.4842772 68.5872951,84.0019891 C68.8935683,84.5203152 69.0467049,85.1811196 69.0467049,85.9862446 C69.0467049,87.6560652 68.547776,88.8542337 67.5486831,89.58075 C66.5495902,90.3054239 65.1306066,90.668375 63.2917322,90.668375 C62.7403169,90.668375 62.2092787,90.6567065 61.7004699,90.6315272 C61.1916612,90.6075761 60.7174317,90.5793261 60.275929,90.5492337 C59.8344262,90.517913 59.4417049,90.4853641 59.099,90.4485163 C58.7556776,90.4122826 58.4796612,90.380962 58.2715683,90.357625 C58.0017268,90.320163 57.8664973,90.1445217 57.8664973,89.8276304 L57.8664973,86.69925 C57.8664973,86.346125 58.0511257,86.2183859 58.4191475,86.3148043 C58.6636721,86.3762174 58.9736503,86.4462283 59.347847,86.5266793 C59.7208087,86.605288 60.1197049,86.6814402 60.5426831,86.7539076 C60.9650437,86.8269891 61.3948142,86.8884022 61.8295246,86.9369185 C62.2648525,86.9860489 62.6730109,87.01 63.052765,87.01 C63.371388,87.01 63.6350546,86.9682391 63.8431475,86.8822609 C64.0518579,86.7975109 64.1555956,86.5966902 64.1555956,86.2791848 C64.1555956,86.0114239 63.9931967,85.8118315 63.6683989,85.6840924 C63.3436011,85.5557391 62.9391475,85.437212 62.4550383,85.3285109 C61.970929,85.2179674 61.4435956,85.0871576 60.8730383,84.933625 C60.3037158,84.7819348 59.7763825,84.5442663 59.2922732,84.2212337 C58.8075464,83.8982011 58.4030929,83.4560272 58.0782951,82.894712 C57.7534973,82.3352391 57.5917158,81.5970543 57.5917158,80.6832283 C57.5917158,79.8781033 57.7411475,79.1945761 58.0418634,78.633875 C58.3419617,78.0744022 58.7704973,77.6125761 59.3287049,77.2539239 C59.8862951,76.8940435 60.5544153,76.6318098 61.3330656,76.4666087 C62.1117158,76.30325 62.9786667,76.2197283 63.935153,76.2197283 C64.2784754,76.2197283 64.6458798,76.2313967 65.0386011,76.2565761 C65.4307049,76.2805272 65.8135464,76.3087772 66.1877432,76.3388696 C66.5619399,76.3701902 66.9108197,76.4027391 67.236235,76.4402011 C67.5610328,76.4758207 67.8271694,76.5071413 68.0358798,76.5304783" id="Fill-10"></path>
            <path d="M73.2141202,90.3023533 C72.8467158,90.3023533 72.6627049,90.1193424 72.6627049,89.7533207 L72.6627049,77.1347826 C72.6627049,76.7687609 72.8467158,76.58575 73.2141202,76.58575 L82.9969563,76.58575 C83.3643607,76.58575 83.5483716,76.7687609 83.5483716,77.1347826 L83.5483716,79.8781033 C83.5483716,80.244125 83.3643607,80.4259076 82.9969563,80.4259076 L77.6458197,80.4259076 L77.6458197,81.835337 L82.8129454,81.835337 C83.1809672,81.835337 83.3643607,82.0183478 83.3643607,82.3831413 L83.3643607,84.5411957 C83.3643607,84.9072174 83.1809672,85.0902283 82.8129454,85.0902283 L77.6458197,85.0902283 L77.6458197,86.4621957 L82.9969563,86.4621957 C83.3643607,86.4621957 83.5483716,86.6439783 83.5483716,87.01 L83.5483716,89.7533207 C83.5483716,90.1193424 83.3643607,90.3023533 82.9969563,90.3023533 L73.2141202,90.3023533" id="Fill-11"></path>
            <path d="M15.9453497,98.4764293 C16.2145738,98.5132772 16.3491858,98.6907609 16.3491858,99.0064239 L16.3491858,102.134804 C16.3491858,102.475647 16.1657923,102.603386 15.7977705,102.518636 C15.5649781,102.457837 15.2772295,102.387826 14.9339071,102.307375 C14.5899672,102.228766 14.2225628,102.152614 13.830459,102.079533 C13.4377377,102.006451 13.0332842,101.945652 12.6170984,101.896522 C12.1996776,101.847391 11.8075738,101.82344 11.4401694,101.82344 C10.7047432,101.82344 10.3367213,102.030402 10.3367213,102.445554 C10.3367213,102.737266 10.5238197,102.948527 10.8973989,103.07688 C11.2709781,103.20462 11.7340929,103.336043 12.2855082,103.469924 C12.7757923,103.591522 13.2944809,103.740755 13.8397213,103.917625 C14.3849617,104.095109 14.8882131,104.34813 15.347623,104.67669 C15.8070328,105.005864 16.1898743,105.429614 16.496765,105.94794 C16.8030383,106.465652 16.9561749,107.126457 16.9561749,107.931582 C16.9561749,109.602016 16.4572459,110.799571 15.458153,111.526087 C14.4584426,112.250761 13.0400765,112.614326 11.2005847,112.614326 C10.6491694,112.614326 10.1187486,112.602043 9.60993989,112.576864 C9.10113115,112.552913 8.62690164,112.524663 8.18539891,112.495185 C7.74389617,112.463864 7.35117486,112.431315 7.00846995,112.393853 C6.66514754,112.358234 6.38851366,112.326913 6.18042077,112.302962 C5.91057923,112.266114 5.77596721,112.090473 5.77596721,111.772967 L5.77596721,108.644587 C5.77596721,108.292076 5.95997814,108.163723 6.328,108.260755 C6.57252459,108.321554 6.88250273,108.391565 7.25669945,108.472016 C7.63027869,108.551239 8.02917486,108.626777 8.45153552,108.699859 C8.87451366,108.77294 9.30366667,108.833739 9.73837705,108.88287 C10.1743224,108.932 10.5818634,108.955951 10.962235,108.955951 C11.2808579,108.955951 11.5439071,108.91419 11.752,108.827598 C11.9607104,108.742848 12.0650656,108.542027 12.0650656,108.225136 C12.0650656,107.957375 11.9026667,107.757783 11.5778689,107.629429 C11.253071,107.50169 10.848,107.382549 10.3638907,107.273848 C9.87978142,107.163918 9.35244809,107.033109 8.7825082,106.879576 C8.21318579,106.727886 7.68523497,106.489603 7.20112568,106.166571 C6.71639891,105.843538 6.31256284,105.401364 5.98776503,104.840663 C5.66296721,104.28119 5.50056831,103.542391 5.50056831,102.628565 C5.50056831,101.82344 5.65,101.140527 5.95133333,100.579212 C6.25081421,100.019739 6.67996721,99.5585272 7.23817486,99.199875 C7.79514754,98.8393804 8.46388525,98.5777609 9.24253552,98.4125598 C10.0205683,98.248587 10.8881366,98.1650652 11.8440055,98.1650652 C12.1873279,98.1650652 12.5547322,98.1773478 12.948071,98.2025272 C13.3401749,98.2264783 13.7230164,98.2547283 14.0972131,98.2842065 C14.4714098,98.3155272 14.8196721,98.3480761 15.1457049,98.385538 C15.4698852,98.4211576 15.7366393,98.4524783 15.9453497,98.4764293" id="Fill-12"></path>
            <path d="M19.5971639,102.006451 C19.5971639,101.347489 19.6799071,100.799685 19.8460109,100.360582 C20.0114973,99.9214783 20.2615792,99.5640543 20.5993443,99.2907663 C20.9364918,99.0168641 21.3656448,98.8215707 21.8861858,98.7055 C22.4079617,98.5894293 23.0235956,98.5317011 23.7343224,98.5317011 L30.8508525,98.5317011 C31.2188743,98.5317011 31.4028852,98.714712 31.4028852,99.0807337 L31.4028852,101.82344 C31.4028852,102.189462 31.2188743,102.371245 30.8508525,102.371245 L28.001153,102.371245 L28.001153,111.698658 C28.001153,112.064679 27.8165246,112.24769 27.4491202,112.24769 L23.550929,112.24769 C23.1829071,112.24769 22.9988962,112.064679 22.9988962,111.698658 L22.9988962,102.371245 L22.1344153,102.371245 L22.1344153,103.396842 C22.1344153,103.761636 21.9504044,103.944647 21.583,103.944647 L20.1485792,103.944647 C19.7811749,103.944647 19.5971639,103.761636 19.5971639,103.396842 L19.5971639,102.006451" id="Fill-13"></path>
            <path d="M39.6481803,107.402201 C39.6611475,107.864641 39.7926721,108.193815 40.0439891,108.388495 C40.2946885,108.583788 40.6046667,108.682049 40.9726885,108.682049 C41.3400929,108.682049 41.650071,108.583788 41.901388,108.388495 C42.1527049,108.193815 42.2842295,107.864641 42.2965792,107.402201 L42.3885847,99.0807337 C42.3885847,98.714712 42.5725956,98.5317011 42.9406175,98.5317011 L46.5627923,98.5317011 C46.9308142,98.5317011 47.1142077,98.714712 47.1142077,99.0807337 L47.1142077,107.035565 C47.1142077,107.902103 46.9975027,108.678978 46.7647104,109.368033 C46.531918,110.057087 46.1608087,110.642353 45.653235,111.122603 C45.1431913,111.60531 44.4973005,111.974402 43.7130929,112.22988 C42.9282678,112.485973 41.9847486,112.614326 40.8806831,112.614326 C39.8019344,112.614326 38.8763224,112.485973 38.103847,112.22988 C37.3319891,111.974402 36.6972131,111.60531 36.2007541,111.122603 C35.7042951,110.642353 35.3393607,110.057087 35.1065683,109.368033 C34.873776,108.678978 34.757071,107.902103 34.757071,107.035565 L34.757071,99.0807337 C34.757071,98.714712 34.941082,98.5317011 35.3097213,98.5317011 L39.0047596,98.5317011 C39.3727814,98.5317011 39.5574098,98.714712 39.5574098,99.0807337 L39.6481803,107.402201" id="Fill-14"></path>
            <path d="M59.4336776,105.389696 C59.4336776,104.950592 59.3848962,104.54588 59.2867158,104.173717 C59.189153,103.801554 59.0205792,103.481592 58.7809945,103.213832 C58.5426448,102.946071 58.2227869,102.734196 57.8251257,102.582505 C57.4262295,102.429587 56.9328579,102.353435 56.3450109,102.353435 L55.7194973,102.353435 L55.7194973,108.408147 L56.3450109,108.408147 C56.9328579,108.408147 57.4262295,108.330766 57.8251257,108.179076 C58.2227869,108.026772 58.5426448,107.818582 58.7809945,107.556962 C59.0205792,107.294728 59.189153,106.977837 59.2867158,106.605674 C59.3848962,106.233511 59.4336776,105.828799 59.4336776,105.389696 L59.4336776,105.389696 Z M55.7744536,98.5317011 C56.9884317,98.5317011 58.1344863,98.6385598 59.2138525,98.851663 C60.2919836,99.0641522 61.2293279,99.4301739 62.0271202,99.9485 C62.8236776,100.468054 63.4547486,101.152196 63.9209508,102.006451 C64.385918,102.859478 64.6193279,103.926837 64.6193279,105.206685 C64.6193279,106.486533 64.3957978,107.574772 63.9487377,108.472016 C63.5010601,109.368033 62.8817213,110.092707 62.0913388,110.64788 C61.3003388,111.203054 60.364847,111.607766 59.2867158,111.863859 C58.2079672,112.119951 57.0372131,112.24769 55.7744536,112.24769 L51.2877978,112.24769 C50.9203934,112.24769 50.7363825,112.064679 50.7363825,111.698658 L50.7363825,99.0807337 C50.7363825,98.714712 50.9203934,98.5317011 51.2877978,98.5317011 L55.7744536,98.5317011 L55.7744536,98.5317011 Z" id="Fill-15"></path>
            <path d="M68.6830055,112.24769 C68.3162186,112.24769 68.1315902,112.064679 68.1315902,111.698658 L68.1315902,99.0807337 C68.1315902,98.714712 68.3162186,98.5317011 68.6830055,98.5317011 L72.5818142,98.5317011 C72.9498361,98.5317011 73.133847,98.714712 73.133847,99.0807337 L73.133847,111.698658 C73.133847,112.064679 72.9498361,112.24769 72.5818142,112.24769 L68.6830055,112.24769" id="Fill-16"></path>
            <path d="M87.508929,105.371886 C87.508929,104.907603 87.460765,104.47894 87.3625847,104.081598 C87.2637869,103.685484 87.1112678,103.341571 86.9025574,103.04863 C86.693847,102.756918 86.4270929,102.527848 86.1022951,102.362647 C85.7774973,102.198674 85.3816885,102.115152 84.9167213,102.115152 C84.4505191,102.115152 84.0553279,102.198674 83.7305301,102.362647 C83.4057322,102.527848 83.1389781,102.756918 82.9308852,103.04863 C82.7221749,103.341571 82.5684208,103.685484 82.4708579,104.081598 C82.3726776,104.47894 82.3238962,104.907603 82.3238962,105.371886 C82.3238962,105.83494 82.3726776,106.264832 82.4708579,106.660946 C82.5684208,107.056446 82.7221749,107.402201 82.9308852,107.693913 C83.1389781,107.986853 83.4057322,108.218995 83.7305301,108.388495 C84.0553279,108.559837 84.4505191,108.644587 84.9167213,108.644587 C85.3816885,108.644587 85.7774973,108.559837 86.1022951,108.388495 C86.4270929,108.218995 86.693847,107.986853 86.9025574,107.693913 C87.1112678,107.402201 87.2637869,107.056446 87.3625847,106.660946 C87.460765,106.264832 87.508929,105.83494 87.508929,105.371886 L87.508929,105.371886 Z M92.7131038,105.206685 C92.7131038,106.390114 92.5260055,107.440891 92.1530437,108.362087 C91.778847,109.28144 91.2422514,110.060158 90.5432568,110.69394 C89.8442623,111.328337 89.0020109,111.80613 88.0152678,112.129163 C87.0279071,112.452196 85.9281639,112.614326 84.7148033,112.614326 C83.6354372,112.614326 82.6332568,112.457723 81.7082623,112.146973 C80.7820328,111.837451 79.9762131,111.378696 79.2895683,110.776234 C78.6029235,110.171929 78.0632404,109.434973 77.6711366,108.562908 C77.2790328,107.690842 77.0832896,106.694723 77.0832896,105.572707 C77.0832896,104.40156 77.2852077,103.356924 77.6902787,102.435114 C78.0941148,101.515761 78.6523224,100.738886 79.3630492,100.104489 C80.073776,99.4707065 80.9172623,98.9886141 81.8916557,98.6594402 C82.8666667,98.3302663 83.9293607,98.1650652 85.0822077,98.1650652 C86.2097377,98.1650652 87.2427923,98.3155272 88.1801366,98.6133804 C89.1187158,98.912462 89.9214481,99.3577065 90.5895683,99.9485 C91.2576885,100.540522 91.778847,101.274408 92.1530437,102.152614 C92.5260055,103.030821 92.7131038,104.048435 92.7131038,105.206685 L92.7131038,105.206685 Z" id="Fill-17"></path>
            <path d="M106.854776,98.4764293 C107.124,98.5132772 107.258612,98.6907609 107.258612,99.0064239 L107.258612,102.134804 C107.258612,102.475647 107.075219,102.603386 106.707197,102.518636 C106.474404,102.457837 106.186656,102.387826 105.843333,102.307375 C105.499393,102.228766 105.131989,102.152614 104.739885,102.079533 C104.347164,102.006451 103.94271,101.945652 103.526525,101.896522 C103.109104,101.847391 102.717,101.82344 102.349596,101.82344 C101.614169,101.82344 101.246148,102.030402 101.246148,102.445554 C101.246148,102.737266 101.433246,102.948527 101.806825,103.07688 C102.180404,103.20462 102.643519,103.336043 103.194934,103.469924 C103.685219,103.591522 104.203907,103.740755 104.749148,103.917625 C105.294388,104.095109 105.797639,104.34813 106.257049,104.67669 C106.716459,105.005864 107.099301,105.429614 107.406191,105.94794 C107.712464,106.465652 107.865601,107.126457 107.865601,107.931582 C107.865601,109.602016 107.366672,110.799571 106.367579,111.526087 C105.367869,112.250761 103.949503,112.614326 102.110011,112.614326 C101.558596,112.614326 101.028175,112.602043 100.519366,112.576864 C100.010557,112.552913 99.5363279,112.524663 99.0948251,112.495185 C98.6533224,112.463864 98.2606011,112.431315 97.9178962,112.393853 C97.5745738,112.358234 97.2979399,112.326913 97.0904645,112.302962 C96.8200055,112.266114 96.6853934,112.090473 96.6853934,111.772967 L96.6853934,108.644587 C96.6853934,108.292076 96.8694044,108.163723 97.2374262,108.260755 C97.4819508,108.321554 97.791929,108.391565 98.1661257,108.472016 C98.5397049,108.551239 98.9386011,108.626777 99.3609617,108.699859 C99.7839399,108.77294 100.213093,108.833739 100.647803,108.88287 C101.083749,108.932 101.49129,108.955951 101.871661,108.955951 C102.190284,108.955951 102.453333,108.91419 102.661426,108.827598 C102.870137,108.742848 102.974492,108.542027 102.974492,108.225136 C102.974492,107.957375 102.812093,107.757783 102.487295,107.629429 C102.162497,107.50169 101.757426,107.382549 101.273317,107.273848 C100.789208,107.163918 100.261874,107.033109 99.6919344,106.879576 C99.122612,106.727886 98.5946612,106.489603 98.1105519,106.166571 C97.6258251,105.843538 97.2219891,105.401364 96.8971913,104.840663 C96.5723934,104.28119 96.4099945,103.542391 96.4099945,102.628565 C96.4099945,101.82344 96.5594262,101.140527 96.8607596,100.579212 C97.1602404,100.019739 97.5893934,99.5585272 98.1476011,99.199875 C98.7045738,98.8393804 99.3733115,98.5777609 100.151962,98.4125598 C100.929995,98.248587 101.797563,98.1650652 102.753432,98.1650652 C103.096754,98.1650652 103.464158,98.1773478 103.857497,98.2025272 C104.249601,98.2264783 104.632443,98.2547283 105.006639,98.2842065 C105.380836,98.3155272 105.729098,98.3480761 106.054514,98.385538 C106.379311,98.4211576 106.646066,98.4524783 106.854776,98.4764293" id="Fill-18"></path>
            <path d="M44.8344481,63.2781576 C44.8467978,63.7295435 44.975235,64.0507337 45.220377,64.2398859 C45.4642842,64.4302663 45.766235,64.5254565 46.124377,64.5254565 C46.4825191,64.5254565 46.7844699,64.4302663 47.0289945,64.2398859 C47.2741366,64.0507337 47.4019563,63.7295435 47.4136885,63.2781576 L47.503224,55.1728641 C47.503224,54.8172826 47.6829126,54.6385707 48.0410546,54.6385707 L51.4798361,54.6385707 C51.8385956,54.6385707 52.0170492,54.8172826 52.0170492,55.1728641 L52.1065847,63.2781576 C52.1183169,63.7295435 52.2473716,64.0507337 52.4918962,64.2398859 C52.7364208,64.4302663 53.0377541,64.5254565 53.3965137,64.5254565 C53.7540383,64.5254565 54.0559891,64.4302663 54.3011311,64.2398859 C54.5456557,64.0507337 54.6740929,63.7295435 54.6858251,63.2781576 L54.7395464,58.1120924 L53.9337268,58.1120924 C53.5755847,58.1120924 53.3965137,57.9346087 53.3965137,57.5777989 L53.3965137,55.1728641 C53.3965137,54.8172826 53.5755847,54.6385707 53.9337268,54.6385707 L58.8408907,54.6385707 C59.1990328,54.6385707 59.3781038,54.8172826 59.3781038,55.1728641 L59.3781038,62.921962 C59.3781038,63.765163 59.2644863,64.5223859 59.0378689,65.1930163 C58.8112514,65.8642609 58.4500219,66.4341739 57.9541803,66.9033696 C57.4589563,67.3725652 56.8291202,67.7312174 56.0652896,67.9805543 C55.3008415,68.2298913 54.3820219,68.3551739 53.3069781,68.3551739 C52.5548798,68.3551739 51.8583552,68.2538424 51.2204918,68.0524076 C50.5813934,67.8497446 50.0769071,67.583212 49.7064153,67.2503533 C49.3248087,67.583212 48.8110601,67.8497446 48.1664044,68.0524076 C47.5217486,68.2538424 46.8110219,68.3551739 46.0348415,68.3551739 C44.9838798,68.3551739 44.0823497,68.2298913 43.3302514,67.9805543 C42.578153,67.7312174 41.9600492,67.3725652 41.4765574,66.9033696 C40.9930656,66.4341739 40.6373934,65.8642609 40.410776,65.1930163 C40.1841585,64.5223859 40.070541,63.765163 40.070541,62.921962 L40.070541,55.1728641 C40.070541,54.8172826 40.249612,54.6385707 40.6083716,54.6385707 L44.2076995,54.6385707 C44.566459,54.6385707 44.7455301,54.8172826 44.7455301,55.1728641 L44.8344481,63.2781576" id="Fill-19"></path>
        </g>
    </g>
</svg>