<svg xmlns="http://www.w3.org/2000/svg" viewBox="0 0 458 47" preserveAspectRatio="xMinYMin meet">
  <path d="M96.133 46.29H.043v-24L36.873 0l59.26 24.51Zm-93.09-3h90.09V26.51l-56-23.19-34.09 20.62Z"/>
  <path d="M1.543 46.29a1.458 1.458 0 0 1-1-.35 1.5 1.5 0 0 1-.2-2.11L35.903.97a1.502 1.502 0 0 1 2.31 1.92L2.693 45.75a1.5 1.5 0 0 1-1.15.54Z"/>
  <path d="M37.323 46.11c-.272 0-.539-.076-.77-.22L1.043 24.51a1.502 1.502 0 0 1-.002-2.648 1.5 1.5 0 0 1 1.542.078l34.51 20.78 29.06-29.16a1.471 1.471 0 0 1 1.09-.44c.412.008.803.185 1.08.49l27 29.66a1.501 1.501 0 0 1-.752 2.575 1.5 1.5 0 0 1-1.468-.575l-25.9-28.5-28.81 28.9a1.51 1.51 0 0 1-1.07.44Z"/>
  <path d="M54.783 45.88a1.469 1.469 0 0 1-.54-.1 1.442 1.442 0 0 1-.84-.82L35.793 2.51a1.5 1.5 0 1 1 2.77-1.14l17 41 38-17.92a1.5 1.5 0 1 1 1.27 2.72l-39.41 18.57a1.414 1.414 0 0 1-.64.14Zm56.26-43.68h17.7c9.14 0 14.24 4.73 14.24 12.47s-5.1 12.6-14.24 12.6h-13v19h-4.7Zm17.57 20.66c6.12 0 9.52-3 9.52-8.19 0-5.19-3.4-8.06-9.52-8.06h-12.85v16.25Zm14.56 8.51c0-9.39 6.17-15.75 15.12-15.75s15.18 6.36 15.18 15.75-6.17 15.75-15.18 15.75-15.12-6.36-15.12-15.75Zm15.12 11.59c6.3 0 10.46-4.66 10.46-11.59s-4.16-11.59-10.46-11.59c-6.3 0-10.4 4.66-10.4 11.59s4.15 11.59 10.4 11.59Zm16.06-26.52h4.79l7.56 24.7 7.56-24.7h5.23l7.55 24.76 7.5-24.76h4.79l-9.52 29.86h-5.35l-7.56-24.57-7.63 24.57h-5.35Zm45.93 14.93c0-9.39 5.79-15.75 14.3-15.75 4.91 0 8.63 2 10.58 5.35V2.2h4.54v44.1h-4.1v-5.1c-1.95 3.78-5.79 5.92-11 5.92-8.56 0-14.32-6.36-14.32-15.75Zm14.93 11.59c6.11 0 10.08-4.66 10.08-11.59s-4-11.59-10.08-11.59-10.17 4.66-10.17 11.59 4.06 11.59 10.17 11.59Zm19.02-11.72c0-9.7 5.86-15.62 14.31-15.62s13.92 5.67 13.92 14.55c.008.885-.035 1.77-.13 2.65h-23.5c.32 6.36 4.1 10.39 10.08 10.39a8.639 8.639 0 0 0 8.38-5.23h4.6a13 13 0 0 1-13 9.14c-8.73 0-14.66-6.17-14.66-15.88Zm23.63-2.27v-.46c0-5.29-3.59-9-9.45-9-5.67 0-9.39 4-9.58 9.44Zm9.01-12.53h4.09v4.72a6 6 0 0 1 6.3-4.72h5.92v4h-6.3c-3.9 0-5.48 2.39-5.48 6.8v19h-4.53Zm20.17-14.24h4.53v18c2-3.15 5.48-4.6 9.58-4.6 7.37 0 12 4.35 12 12.79V46.3h-4.54V28.72c0-6.17-3.15-8.94-8.19-8.94-5.23 0-8.82 3.71-8.82 9.13V46.3h-4.56Zm30 29.17c0-9.39 6.18-15.75 15.12-15.75s15.19 6.36 15.19 15.75-6.18 15.75-15.19 15.75-15.12-6.36-15.12-15.75Zm15.12 11.59c6.3 0 10.46-4.66 10.46-11.59s-4.16-11.59-10.46-11.59c-6.3 0-10.42 4.66-10.42 11.59s4.16 11.59 10.39 11.59Zm19.06-8.63V16.44h4.54v17.57c0 6.18 3 9 7.94 9 5.1 0 8.63-3.72 8.63-9.13V16.44h4.53V46.3h-4.09v-4.16c-2 3.41-5.61 5-9.83 5-7.24-.02-11.72-4.37-11.72-12.81Zm44.73 7.94c3.91 0 6.18-1.83 6.18-4.85 0-2.52-1.58-4.66-5-4.66h-5.86c-5.93 0-9.2-3.53-9.2-8 0-4.91 3.59-8.31 9.89-8.31h13v4h-13c-3.53 0-5.17 1.7-5.17 4.28 0 2.15 1.45 4.1 5 4.1h5.86c6.23 0 9.19 3.53 9.19 8.57 0 5.54-4 8.88-10.83 8.88h-12.97v-4Zm13.73-11.03c0-9.7 5.86-15.62 14.31-15.62s13.92 5.67 13.92 14.55c.008.885-.035 1.77-.13 2.65h-23.5c.32 6.36 4.1 10.39 10.08 10.39a8.639 8.639 0 0 0 8.38-5.23h4.6a13 13 0 0 1-13 9.14c-8.73 0-14.66-6.17-14.66-15.88Zm23.63-2.27v-.46c0-5.29-3.59-9-9.45-9-5.67 0-9.39 4-9.58 9.44Z"/>
</svg>
