<svg viewBox="0 0 1407 145" fill="none" xmlns="http://www.w3.org/2000/svg">
<path fill-rule="evenodd" clip-rule="evenodd" d="M4.76049 141.825H295.326V75.0945L113.276 0L0.132002 68.2928V136.121C0.0107655 136.615 -0.0284771 137.131 0.0205757 137.647C0.0417914 137.87 0.0792045 138.09 0.132002 138.305V141.825H4.42326C4.5287 141.828 4.63455 141.828 4.74064 141.825L4.76049 141.825ZM14.5366 132.633H99.0256L42.661 98.7878L14.5366 132.633ZM151.146 106.71L125.234 132.633H161.929L151.146 106.71ZM158.167 99.6856L170.693 129.814L245.753 94.5124L206.45 51.3806L158.167 99.6856ZM252.229 101.62L186.235 132.633H280.489L252.229 101.62ZM260.876 97.5567L286.109 85.6985V125.202L260.876 97.5567ZM279.667 78.5616L254.389 90.4503L221.678 54.6119L279.667 78.5616ZM154.336 90.4715L199.373 45.4002L122.377 13.601L154.336 90.4715ZM112.761 14.4285L48.5996 91.6413L113.951 130.887L147.314 97.4985L112.761 14.4285ZM94.4666 22.0004L40.5522 86.8087L13.7331 70.7029L94.4666 22.0004ZM9.34816 78.7844L34.609 93.9528L9.34816 124.318V78.7844Z"/>
<path d="M341.13 6.7403H395.505C423.584 6.7403 439.251 21.2322 439.251 44.9462C439.251 68.6603 423.584 83.5505 395.505 83.5505H355.569V141.763H341.13V6.7403ZM395.106 70.039C413.907 70.039 424.352 60.8475 424.352 44.9462C424.352 29.045 413.907 20.2518 395.106 20.2518H355.63V70.039H395.106ZM439.835 96.1122C439.835 67.3428 458.789 47.8569 486.284 47.8569C513.779 47.8569 532.918 67.3428 532.918 96.1122C532.918 124.882 513.964 144.368 486.284 144.368C458.605 144.368 439.835 124.882 439.835 96.1122ZM486.284 131.622C505.638 131.622 518.418 117.345 518.418 96.1122C518.418 74.8799 505.638 60.6024 486.284 60.6024C466.93 60.6024 454.335 74.8799 454.335 96.1122C454.335 117.345 467.084 131.622 486.284 131.622ZM535.622 50.3692H550.337L573.561 126.046L596.786 50.3692H612.853L636.047 126.23L659.087 50.3692H673.802L644.557 141.855H628.121L604.896 66.5769L581.457 141.855H565.021L535.622 50.3692ZM676.721 96.1122C676.721 67.3428 694.508 47.8569 720.651 47.8569C735.735 47.8569 747.163 53.9845 753.154 64.2484V6.7403H767.101V141.855H754.505V126.23C748.515 137.811 736.718 144.368 720.713 144.368C694.416 144.368 676.721 124.882 676.721 96.1122ZM722.587 131.622C741.357 131.622 753.553 117.345 753.553 96.1122C753.553 74.8799 741.265 60.6024 722.587 60.6024C703.909 60.6024 691.344 74.8799 691.344 96.1122C691.344 117.345 703.816 131.622 722.587 131.622ZM781.017 95.7139C781.017 65.9948 799.019 47.8569 824.978 47.8569C850.937 47.8569 867.741 65.2288 867.741 92.4356C867.766 95.1471 867.634 97.8586 867.342 100.555H795.149C796.132 120.041 807.744 132.388 826.115 132.388C831.534 132.662 836.907 131.273 841.51 128.408C846.113 125.543 849.724 121.339 851.859 116.364H865.99C863.376 124.78 858.038 132.093 850.812 137.16C843.585 142.227 834.878 144.762 826.053 144.368C799.234 144.368 781.017 125.464 781.017 95.7139ZM853.61 88.759V87.3497C853.61 71.142 842.581 59.7752 824.579 59.7752C807.16 59.7752 795.732 72.0305 795.149 88.6977L853.61 88.759ZM881.289 50.3692H893.854V64.8305C894.79 60.4982 897.264 56.6492 900.82 53.9919C904.376 51.3347 908.776 50.0481 913.207 50.3692H931.394V62.6245H912.04C900.059 62.6245 895.205 69.9471 895.205 83.4586V141.671H881.289V50.3692ZM943.252 6.7403H957.169V61.8892C963.313 52.2382 974.003 47.7956 986.599 47.7956C1009.24 47.7956 1023.46 61.1233 1023.46 86.982V141.855H1009.52V87.9931C1009.52 69.0892 999.839 60.6024 984.356 60.6024C968.289 60.6024 957.261 71.9692 957.261 88.5752V141.855H943.252V6.7403ZM1035.41 96.1122C1035.41 67.3428 1054.4 47.8569 1081.86 47.8569C1109.33 47.8569 1128.53 67.3428 1128.53 96.1122C1128.53 124.882 1109.54 144.368 1081.86 144.368C1054.18 144.368 1035.41 124.882 1035.41 96.1122ZM1081.86 131.622C1101.22 131.622 1114 117.345 1114 96.1122C1114 74.8799 1101.22 60.6024 1081.86 60.6024C1062.51 60.6024 1049.85 74.8799 1049.85 96.1122C1049.85 117.345 1062.63 131.622 1081.77 131.622H1081.86ZM1140.42 105.181V50.3692H1154.36V104.201C1154.36 123.135 1163.58 131.775 1178.76 131.775C1194.42 131.775 1205.27 120.378 1205.27 103.802V50.3692H1219.18V141.855H1206.62V129.11C1200.48 139.557 1189.38 144.429 1176.42 144.429C1154.18 144.368 1140.42 131.04 1140.42 105.181ZM1277.83 129.508C1289.84 129.508 1296.81 123.901 1296.81 114.648C1296.81 106.928 1291.96 100.371 1281.45 100.371H1263.45C1245.23 100.371 1235.19 89.5556 1235.19 75.8603C1235.19 60.8169 1246.22 50.3999 1265.57 50.3999H1305.51V62.6552H1265.57C1254.73 62.6552 1249.69 67.8637 1249.69 75.7684C1249.69 82.3556 1254.14 88.3301 1265.05 88.3301H1283.05C1302.19 88.3301 1311.28 99.1454 1311.28 114.587C1311.28 131.561 1299 141.794 1278.01 141.794H1238.17V129.539L1277.83 129.508ZM1320.01 95.7139C1320.01 65.9948 1338.01 47.8569 1363.97 47.8569C1389.93 47.8569 1406.73 65.2288 1406.73 92.4356C1406.76 95.1471 1406.63 97.8586 1406.33 100.555H1334.14C1335.12 120.041 1346.74 132.388 1365.11 132.388C1370.53 132.662 1375.9 131.273 1380.5 128.408C1385.1 125.543 1388.72 121.339 1390.85 116.364H1404.98C1402.37 124.78 1397.03 132.093 1389.8 137.16C1382.58 142.227 1373.87 144.762 1365.04 144.368C1338.23 144.368 1320.01 125.464 1320.01 95.7139ZM1392.6 88.759V87.3497C1392.6 71.142 1381.57 59.7752 1363.57 59.7752C1346.15 59.7752 1334.72 72.0305 1334.14 88.6977L1392.6 88.759Z"/>
</svg>
