<svg xmlns="http://www.w3.org/2000/svg" viewBox="0 0 1392 654" preserveAspectRatio="xMinYMin meet">
  <path d="M535.468 1.538 531.74-.025.729 320.595v333.004h1391.05V356.023ZM16.76 339.992l157.86 93.02L16.76 623.501Zm982.671-129.049 365.416 151.292-159.343 75.466Zm191.004 233.932L798.85 630.354 730.92 465.716l247.632-253.972Zm-466.168 4.729L548.733 24.382l420.401 174.017Zm-12.023 12.505-166.637 170.89-346.46-204.395L532.261 26.506ZM184.96 420.508 23.813 325.524 504.048 35.443Zm3.647 20.76 333.235 196.38H25.817Zm530.09 36.952 65.805 159.508H563.16Zm482.959-20.961 163.993 180.349H820.611Zm15.15-7.174 158.942-75.305v250.244Z"/>
</svg>
