<svg viewBox="0 0 1392 894" xmlns="http://www.w3.org/2000/svg">
<path d="M0.769004 713.473H71.704C108.334 713.473 128.773 732.389 128.773 763.45C128.773 794.51 108.334 813.947 71.704 813.947H19.605V890.094H0.769004V713.473ZM71.223 796.273C95.71 796.273 109.336 784.25 109.336 763.45C109.336 742.649 95.71 731.147 71.223 731.147H19.685V796.273H71.223ZM129.534 830.379C129.534 792.746 154.261 767.257 190.13 767.257C225.998 767.257 250.966 792.746 250.966 830.379C250.966 868.012 226.239 893.501 190.13 893.501C154.021 893.501 129.534 867.972 129.534 830.379ZM190.13 876.829C215.378 876.829 232.05 858.153 232.05 830.379C232.05 802.605 215.378 783.929 190.13 783.929C164.882 783.929 148.45 802.605 148.45 830.379C148.45 858.153 165.122 876.829 190.13 876.829ZM254.492 770.543H273.689L303.987 869.495L334.284 770.543H355.244L385.542 869.775L415.599 770.543H434.796L396.643 890.215H375.202L344.824 791.744L314.246 890.215H292.725L254.492 770.543ZM438.563 830.379C438.563 792.746 461.767 767.257 495.872 767.257C515.55 767.257 530.458 775.272 538.273 788.698V713.473H556.468V890.215H540.076V869.775C532.061 884.924 516.832 893.501 495.992 893.501C461.767 893.501 438.563 867.972 438.563 830.379ZM498.397 876.829C522.884 876.829 538.794 858.153 538.794 830.379C538.794 802.605 522.763 783.929 498.397 783.929C474.031 783.929 457.479 802.605 457.479 830.379C457.479 858.153 473.91 876.829 498.397 876.829ZM574.662 829.698C574.662 790.822 598.107 767.097 631.971 767.097C665.836 767.097 687.758 789.821 687.758 825.409C687.788 828.956 687.614 832.503 687.237 836.03H593.057C594.34 861.76 609.328 877.791 633.374 877.791C640.443 878.149 647.452 876.331 653.457 872.583C659.462 868.836 664.174 863.338 666.958 856.83H685.473C678.46 879.47 657.05 894.523 633.374 893.461C598.387 893.501 574.662 868.733 574.662 829.698ZM669.443 820.76V818.997C669.443 797.796 655.055 782.927 631.571 782.927C608.847 782.927 593.939 798.958 593.177 820.8L669.443 820.76ZM705.511 770.543H721.903V789.62C724.428 777.903 735.197 769.835 747.151 770.704H770.916V786.735H745.588C729.918 786.735 723.586 796.313 723.586 813.987V890.135H705.511V770.543ZM786.225 713.473H804.38V785.612C812.395 772.988 826.382 767.177 842.773 767.177C872.309 767.177 890.865 784.57 890.865 818.436V890.215H872.67V819.758C872.67 795.031 860.046 783.929 839.847 783.929C818.887 783.929 804.5 798.798 804.5 820.52V890.215H786.345L786.225 713.473ZM906.374 830.379C906.374 792.746 931.141 767.257 966.969 767.257C1002.8 767.257 1027.84 792.746 1027.84 830.379C1027.84 868.012 1003.08 893.501 966.969 893.501C930.861 893.501 906.374 867.972 906.374 830.379ZM966.969 876.829C992.259 876.829 1008.89 858.153 1008.89 830.379C1008.89 802.605 992.259 783.929 966.969 783.929C941.681 783.929 925.33 802.605 925.33 830.379C925.33 858.153 941.962 876.829 966.969 876.829ZM1043.47 842.242V770.543H1061.67V840.959C1061.67 865.727 1073.69 876.829 1093.49 876.829C1113.93 876.829 1128.08 861.92 1128.08 840.198V770.543H1146.35V890.215H1129.92V873.542C1121.91 887.169 1107.44 893.581 1090.53 893.581C1061.43 893.501 1043.47 876.067 1043.47 842.242ZM1222.74 874.063C1238.41 874.063 1247.5 866.729 1247.5 854.626C1247.5 844.526 1241.17 835.91 1227.47 835.91H1203.98C1180.22 835.91 1167.11 821.762 1167.11 803.848C1167.11 784.17 1181.5 770.543 1206.75 770.543H1258.84V786.574H1206.46C1192.32 786.574 1185.75 793.387 1185.75 803.727C1185.75 812.304 1191.56 820.159 1205.78 820.159H1229.27C1254.24 820.159 1266.14 834.307 1266.14 854.506C1266.14 876.709 1250.11 890.094 1222.7 890.094H1171V874.063H1222.74ZM1277.8 829.698C1277.8 790.822 1301.25 767.097 1335.11 767.097C1368.97 767.097 1390.82 789.981 1390.82 825.69C1390.85 829.237 1390.67 832.783 1390.3 836.31H1296.12C1297.4 861.8 1312.55 877.951 1336.51 877.951C1343.58 878.309 1350.59 876.491 1356.6 872.744C1362.6 868.996 1367.31 863.498 1370.1 856.99H1388.53C1381.52 879.63 1360.11 894.683 1336.43 893.621C1301.53 893.501 1277.8 868.733 1277.8 829.698ZM1372.46 820.6V818.837C1372.46 797.636 1358.07 782.767 1334.59 782.767C1311.87 782.767 1296.96 798.798 1296.2 820.64L1372.46 820.6ZM535.468 2.53801L531.74 0.975006L0.729004 321.595V654.599H1391.78V357.023L535.468 2.53801ZM16.76 340.992L174.62 434.012L16.76 624.501V340.992ZM999.431 211.943L1364.85 363.235L1205.5 438.701L999.431 211.943ZM1190.44 445.875L798.85 631.354L730.92 466.716L978.552 212.744L1190.44 445.875ZM724.267 450.604L548.733 25.382L969.134 199.399L724.267 450.604ZM712.244 463.109L545.607 633.999L199.147 429.604L532.261 27.506L712.244 463.109ZM184.96 421.508L23.813 326.524L504.048 36.443L184.96 421.508ZM188.607 442.268L521.842 638.648H25.817L188.607 442.268ZM718.697 479.22L784.502 638.728H563.16L718.697 479.22ZM1201.66 458.259L1365.65 638.608H820.611L1201.66 458.259ZM1216.81 451.085L1375.75 375.78V626.024L1216.81 451.085Z"/>
</svg>
