<svg viewBox="0 0 1392 655" xmlns="http://www.w3.org/2000/svg">
<path d="M535.468 2.538L531.74 0.974998L0.729004 321.595V654.599H1391.78V357.023L535.468 2.538ZM16.76 340.992L174.62 434.012L16.76 624.501V340.992ZM999.431 211.943L1364.85 363.235L1205.5 438.701L999.431 211.943ZM1190.44 445.875L798.85 631.354L730.92 466.716L978.552 212.744L1190.44 445.875ZM724.267 450.604L548.733 25.382L969.134 199.399L724.267 450.604ZM712.244 463.109L545.607 633.999L199.147 429.604L532.261 27.506L712.244 463.109ZM184.96 421.508L23.813 326.524L504.048 36.443L184.96 421.508ZM188.607 442.268L521.842 638.648H25.817L188.607 442.268ZM718.697 479.22L784.502 638.728H563.16L718.697 479.22ZM1201.66 458.259L1365.65 638.608H820.611L1201.66 458.259ZM1216.81 451.085L1375.75 375.78V626.024L1216.81 451.085Z"/>
</svg>
