<svg xmlns="http://www.w3.org/2000/svg" viewBox="0 0 1392 893" preserveAspectRatio="xMinYMin meet">
  <path d="M.769 712.473h70.935c36.63 0 57.069 18.916 57.069 49.977 0 31.06-20.439 50.497-57.069 50.497H19.605v76.147H.769Zm70.454 82.8c24.487 0 38.113-12.023 38.113-32.823 0-20.801-13.626-32.303-38.113-32.303H19.685v65.126Zm58.311 34.106c0-37.633 24.727-63.122 60.596-63.122 35.868 0 60.836 25.489 60.836 63.122 0 37.633-24.727 63.122-60.836 63.122-36.109 0-60.596-25.529-60.596-63.122Zm60.596 46.45c25.248 0 41.92-18.676 41.92-46.45 0-27.774-16.672-46.45-41.92-46.45s-41.68 18.676-41.68 46.45c0 27.774 16.672 46.45 41.68 46.45Zm64.362-106.286h19.197l30.298 98.952 30.297-98.952h20.96l30.298 99.232 30.057-99.232h19.197l-38.153 119.672h-21.441l-30.378-98.471-30.578 98.471h-21.521Zm184.071 59.836c0-37.633 23.204-63.122 57.309-63.122 19.678 0 34.586 8.015 42.401 21.441v-75.225h18.195v176.742h-16.392v-20.44c-8.015 15.149-23.244 23.726-44.084 23.726-34.225 0-57.429-25.529-57.429-63.122Zm59.834 46.45c24.487 0 40.397-18.676 40.397-46.45 0-27.774-16.031-46.45-40.397-46.45s-40.918 18.676-40.918 46.45c0 27.774 16.431 46.45 40.918 46.45Zm76.265-47.131c0-38.876 23.445-62.601 57.309-62.601 33.865 0 55.787 22.724 55.787 58.312a92.555 92.555 0 0 1-.521 10.621h-94.18c1.283 25.73 16.271 41.761 40.317 41.761a34.626 34.626 0 0 0 33.584-20.961h18.515c-7.013 22.64-28.423 37.693-52.099 36.631-34.987.04-58.712-24.728-58.712-63.763Zm94.781-8.938v-1.763c0-21.201-14.388-36.07-37.872-36.07-22.724 0-37.632 16.031-38.394 37.873Zm36.068-50.217h16.392v19.077c2.525-11.717 13.294-19.785 25.248-18.916h23.765v16.031h-25.328c-15.67 0-22.002 9.578-22.002 27.252v76.148h-18.075Zm80.714-57.07h18.155v72.139c8.015-12.624 22.002-18.435 38.393-18.435 29.536 0 48.092 17.393 48.092 51.259v71.779H872.67v-70.457c0-24.727-12.624-35.829-32.823-35.829-20.96 0-35.347 14.869-35.347 36.591v69.695h-18.155Zm120.149 116.906c0-37.633 24.767-63.122 60.595-63.122 35.829 0 60.876 25.489 60.876 63.122 0 37.633-24.767 63.122-60.876 63.122-36.108 0-60.595-25.529-60.595-63.122Zm60.595 46.45c25.29 0 41.92-18.676 41.92-46.45 0-27.774-16.63-46.45-41.92-46.45-25.288 0-41.639 18.676-41.639 46.45 0 27.774 16.632 46.45 41.639 46.45Zm76.506-34.587v-71.699h18.195v70.416c0 24.768 12.023 35.87 31.82 35.87 20.439 0 34.586-14.909 34.586-36.631v-69.655h18.275v119.672h-16.431v-16.673c-8.015 13.627-22.483 20.039-39.395 20.039-29.096-.08-47.05-17.514-47.05-51.339Zm179.262 31.821c15.669 0 24.767-7.334 24.767-19.437 0-10.1-6.332-18.716-20.038-18.716h-23.485c-23.765 0-36.87-14.148-36.87-32.062 0-19.678 14.387-33.305 39.635-33.305h52.099v16.031h-52.38c-14.146 0-20.719 6.813-20.719 17.153 0 8.577 5.811 16.432 20.038 16.432h23.485c24.968 0 36.87 14.148 36.87 34.347 0 22.203-16.03 35.588-43.442 35.588h-51.699v-16.031Zm55.065-44.365c0-38.876 23.444-62.601 57.309-62.601 33.864 0 55.706 22.884 55.706 58.593a92.561 92.561 0 0 1-.521 10.62h-94.18c1.283 25.49 16.432 41.641 40.397 41.641a34.625 34.625 0 0 0 33.584-20.961h18.435c-7.013 22.64-28.422 37.693-52.099 36.631-34.906-.12-58.631-24.888-58.631-63.923Zm94.66-9.098v-1.763c0-21.201-14.388-36.07-37.872-36.07-22.724 0-37.632 16.031-38.393 37.873ZM535.468 1.538 531.74-.025.729 320.595v333.004h1391.05V356.023ZM16.76 339.992l157.86 93.02L16.76 623.501Zm982.671-129.049 365.416 151.292-159.343 75.466Zm191.004 233.932L798.85 630.354 730.92 465.716l247.632-253.972Zm-466.168 4.729L548.733 24.382l420.401 174.017Zm-12.023 12.505-166.637 170.89-346.46-204.395L532.261 26.506ZM184.96 420.508 23.813 325.524 504.048 35.443Zm3.647 20.76 333.235 196.38H25.817Zm530.09 36.952 65.805 159.508H563.16Zm482.959-20.961 163.993 180.349H820.611Zm15.15-7.174 158.942-75.305v250.244Z"/>
</svg>
