<?xml version="1.0" encoding="UTF-8"?>

<svg viewBox="0 0 183 183" version="1.1" xmlns="http://www.w3.org/2000/svg" xmlns:xlink="http://www.w3.org/1999/xlink">
    <title>Powderhouse Studios Logo</title>
    <desc></desc>
    <defs>
    </defs>
    <g id="Page-1" stroke="none" stroke-width="1" fill='#F4F4F4' fill-rule="evenodd">
        <g id="PHS_ID_R01_LOGO-LOCKUP">
            <path d="M165.634,92.288 C167.397,91.458 169.16,90.628 170.924,89.798 C171.932,89.323 173.17,89.118 173.796,90.325 C174.147,91 173.993,95.23 173.993,96.471 C173.993,97.219 174.149,98.242 173.777,98.925 C172.508,101.26 169.686,98.435 168.449,97.547 C167.496,96.862 166.528,96.194 165.588,95.492 C164.497,94.678 164.164,92.981 165.634,92.288 Z M154.92,98.337 C155.945,99.072 160.329,101.981 161.031,102.894 C161.993,104.145 160.589,105.558 159.213,105.578 C158.021,105.595 149.306,105.578 146.141,105.578 C145.06,105.578 143.882,105.503 143.59,104.196 C143.264,102.738 144.568,102.207 145.623,101.71 C147.328,100.908 149.033,100.105 150.738,99.302 C151.87,98.769 153.695,97.457 154.92,98.337 Z M101.263,95.476 C102.915,97.471 104.566,99.466 106.217,101.461 C106.888,102.272 107.923,103.168 107.554,104.339 C107.136,105.661 105.861,105.578 104.76,105.578 C101.821,105.578 98.881,105.578 95.942,105.578 C94.787,105.578 93.419,105.519 93.215,104.05 C93.071,103.015 94.103,101.943 94.647,101.149 C95.662,99.665 96.678,98.182 97.694,96.698 C98.481,95.547 99.87,93.793 101.263,95.476 Z M28.242,92.353 C36.103,95.483 43.963,98.614 51.824,101.745 C52.172,101.884 52.546,101.999 52.882,102.167 C54.518,102.98 54.238,105.578 52.228,105.578 L18.522,105.578 C16.98,105.578 16.177,103.742 17.223,102.61 L26.288,92.796 C26.785,92.258 27.562,92.082 28.242,92.353 Z M23.695,81.356 L18.082,79.121 C16.699,78.57 16.574,76.661 17.873,75.934 L33.757,67.05 C35.64,65.997 37.079,68.406 35.837,69.883 C35.164,70.683 34.41,71.428 33.7,72.196 C31.421,74.664 29.141,77.132 26.861,79.6 C26.044,80.484 25.101,81.916 23.695,81.356 Z M93.354,87.931 C90.454,92.167 87.555,96.402 84.655,100.638 C83.744,101.97 82.604,104.648 80.623,104.03 C79.645,103.725 78.691,103.261 77.74,102.882 C66.606,98.447 39.82,87.779 37.562,86.879 C36.197,86.336 33.189,85.325 35.062,83.297 L63.015,51.272 C63.741,50.486 64.994,50.52 65.677,51.344 L93.257,85.804 C93.76,86.412 93.799,87.28 93.354,87.931 Z M97.624,77.698 C94.502,73.926 91.38,70.155 88.257,66.383 C86.395,64.133 84.532,61.883 82.67,59.633 C82.259,59.137 81.812,58.654 81.43,58.135 C80.489,56.855 81.277,54.946 83.021,55.193 C84.519,55.405 102.556,61.52 105.351,62.428 C106.885,62.926 109.826,63.525 108.472,65.843 C107.057,68.267 101.898,75.449 101.008,76.748 C100.245,77.863 98.881,79.216 97.624,77.698 Z M143.421,93.315 C136.796,96.434 130.171,99.554 123.546,102.673 C122.713,103.065 121.882,103.535 121.02,103.862 C119.515,104.434 118.767,103.239 117.951,102.253 C115.179,98.904 107.387,89.491 106.263,88.134 C105.476,87.182 104.859,86.301 105.664,85.053 C107.812,81.726 110.146,78.506 112.383,75.238 C113.164,74.096 113.889,72.872 114.746,71.785 C115.707,70.565 116.841,70.99 117.86,71.722 C120.624,73.707 141.814,88.714 143.693,90.274 C144.693,91.104 144.69,92.718 143.421,93.315 Z M142.085,74.362 C145.273,75.397 158.867,79.603 162.35,80.945 C163.255,81.294 163.87,82.093 163.612,83.105 C163.387,83.988 162.612,84.279 161.878,84.625 C159.965,85.526 158.067,86.48 156.131,87.331 C154.685,87.967 153.729,86.975 152.626,86.183 C150.799,84.871 148.972,83.559 147.145,82.247 C145.196,80.848 143.248,79.448 141.299,78.049 C140.867,77.739 140.294,77.42 140.01,76.959 C139.161,75.583 140.576,73.872 142.085,74.362 Z M11.421,85.653 L16.229,87.568 C17.382,88.027 17.716,89.5 16.874,90.411 L12.066,95.617 C10.974,96.799 8.998,96.026 8.998,94.417 L8.998,87.296 C8.998,86.046 10.26,85.191 11.421,85.653 Z M59.281,42.996 L2.99,74.481 C0.318,76.104 0.465,79.151 0.465,79.151 L0.465,109.845 C0.465,109.872 0.468,109.898 0.469,109.926 C0.469,109.926 0.35,114.112 4.73,114.112 L178.246,114.112 C180.573,114.112 182.526,112.173 182.526,109.845 L182.526,81.628 C182.523,81.54 182.519,81.452 182.516,81.364 C182.409,79.638 181.225,78.104 179.578,77.57 L69.551,41.825 C64.319,39.999 59.281,42.996 59.281,42.996 L59.281,42.996 Z" id="Fill-1"></path>
            <path d="M16.68,138.754 C17.991,138.914 18.904,138.829 19.42,138.502 C19.936,138.173 20.194,137.712 20.194,137.116 C20.194,136.52 20.045,136.098 19.748,135.851 C19.45,135.604 19.073,135.478 18.617,135.478 C17.961,135.478 17.474,135.727 17.158,136.222 C16.839,136.719 16.68,137.562 16.68,138.754 Z M18.974,129.373 C20.641,129.373 22.051,129.572 23.203,129.969 C24.354,130.367 25.292,130.907 26.017,131.593 C26.741,132.276 27.267,133.071 27.594,133.975 C27.923,134.879 28.086,135.827 28.086,136.818 C28.086,138.289 27.814,139.527 27.267,140.54 C26.721,141.554 25.952,142.363 24.96,142.969 C23.966,143.575 22.766,143.982 21.356,144.19 C19.946,144.399 18.387,144.433 16.68,144.294 L16.68,151.41 C16.68,152.006 16.383,152.304 15.787,152.304 L9.801,152.304 C9.206,152.304 8.908,152.006 8.908,151.41 L8.908,140.242 C8.908,139.489 8.942,138.699 9.012,137.875 C9.081,137.053 9.235,136.239 9.474,135.434 C9.713,134.63 10.05,133.861 10.487,133.127 C10.923,132.393 11.518,131.746 12.273,131.191 C13.028,130.636 13.95,130.192 15.043,129.865 C16.135,129.538 17.445,129.373 18.974,129.373 L18.974,129.373 Z" id="Fill-2"></path>
            <path d="M49.831,141.108 C49.831,140.351 49.752,139.653 49.593,139.006 C49.433,138.362 49.186,137.802 48.848,137.324 C48.51,136.849 48.079,136.476 47.553,136.207 C47.027,135.941 46.386,135.805 45.632,135.805 C44.877,135.805 44.237,135.941 43.712,136.207 C43.186,136.476 42.753,136.849 42.416,137.324 C42.078,137.802 41.83,138.362 41.671,139.006 C41.512,139.653 41.433,140.351 41.433,141.108 C41.433,141.861 41.512,142.562 41.671,143.206 C41.83,143.851 42.078,144.413 42.416,144.888 C42.753,145.366 43.186,145.744 43.712,146.02 C44.237,146.299 44.877,146.437 45.632,146.437 C46.386,146.437 47.027,146.299 47.553,146.02 C48.079,145.744 48.51,145.366 48.848,144.888 C49.186,144.413 49.433,143.851 49.593,143.206 C49.752,142.562 49.831,141.861 49.831,141.108 Z M58.258,140.839 C58.258,142.765 57.956,144.476 57.351,145.976 C56.745,147.474 55.876,148.742 54.744,149.774 C53.613,150.806 52.248,151.584 50.65,152.11 C49.052,152.636 47.27,152.9 45.305,152.9 C43.558,152.9 41.934,152.646 40.436,152.139 C38.936,151.635 37.631,150.889 36.52,149.907 C35.407,148.923 34.534,147.724 33.899,146.304 C33.264,144.883 32.946,143.262 32.946,141.435 C32.946,139.527 33.274,137.826 33.929,136.326 C34.583,134.828 35.487,133.563 36.639,132.531 C37.79,131.498 39.155,130.713 40.733,130.178 C42.312,129.642 44.034,129.373 45.9,129.373 C47.726,129.373 49.399,129.618 50.918,130.102 C52.437,130.59 53.738,131.314 54.82,132.276 C55.902,133.241 56.745,134.436 57.351,135.866 C57.956,137.295 58.258,138.953 58.258,140.839 L58.258,140.839 Z" id="Fill-3"></path>
            <path d="M116.859,141.137 C116.859,140.422 116.781,139.763 116.622,139.157 C116.463,138.551 116.19,138.03 115.803,137.594 C115.416,137.157 114.899,136.813 114.254,136.566 C113.608,136.316 112.81,136.193 111.857,136.193 L110.844,136.193 L110.844,146.052 L111.857,146.052 C112.81,146.052 113.608,145.925 114.254,145.678 C114.899,145.431 115.416,145.092 115.803,144.665 C116.19,144.239 116.463,143.723 116.622,143.117 C116.781,142.511 116.859,141.852 116.859,141.137 Z M110.934,129.969 C112.899,129.969 114.756,130.144 116.503,130.49 C118.249,130.837 119.768,131.433 121.059,132.276 C122.35,133.122 123.371,134.237 124.126,135.628 C124.88,137.017 125.258,138.754 125.258,140.839 C125.258,142.923 124.896,144.694 124.171,146.156 C123.446,147.615 122.443,148.795 121.163,149.699 C119.883,150.603 118.368,151.262 116.622,151.679 C114.874,152.096 112.978,152.304 110.934,152.304 L103.667,152.304 C103.072,152.304 102.774,152.006 102.774,151.41 L102.774,130.863 C102.774,130.267 103.072,129.969 103.667,129.969 L110.934,129.969 L110.934,129.969 Z" id="Fill-4"></path>
            <path d="M131.823,152.304 C131.228,152.304 130.93,152.006 130.93,151.41 L130.93,130.863 C130.93,130.267 131.228,129.969 131.823,129.969 L147.667,129.969 C148.262,129.969 148.56,130.267 148.56,130.863 L148.56,135.33 C148.56,135.926 148.262,136.222 147.667,136.222 L139,136.222 L139,138.517 L147.369,138.517 C147.965,138.517 148.262,138.815 148.262,139.409 L148.262,142.923 C148.262,143.519 147.965,143.817 147.369,143.817 L139,143.817 L139,146.052 L147.667,146.052 C148.262,146.052 148.56,146.347 148.56,146.943 L148.56,151.41 C148.56,152.006 148.262,152.304 147.667,152.304 L131.823,152.304" id="Fill-5"></path>
            <path d="M164.381,138.754 C164.978,138.754 165.473,138.631 165.871,138.381 C166.267,138.134 166.466,137.712 166.466,137.116 C166.466,136.52 166.317,136.098 166.02,135.851 C165.722,135.604 165.345,135.478 164.888,135.478 C164.311,135.478 163.846,135.727 163.488,136.222 C163.131,136.719 162.952,137.562 162.952,138.754 L164.381,138.754 Z M165.125,129.373 C168.381,129.373 170.784,129.964 172.333,131.145 C173.882,132.327 174.656,133.919 174.656,135.926 C174.656,136.6 174.561,137.235 174.372,137.831 C174.183,138.427 173.936,138.963 173.628,139.44 C173.32,139.915 172.963,140.322 172.556,140.659 C172.149,140.999 171.727,141.255 171.291,141.435 C171.807,141.614 172.274,141.861 172.69,142.179 C173.107,142.496 173.465,142.908 173.762,143.415 C174.06,143.921 174.287,144.532 174.447,145.247 C174.606,145.962 174.685,146.805 174.685,147.777 L174.685,151.41 C174.685,152.006 174.388,152.304 173.792,152.304 L167.27,152.304 C166.674,152.304 166.377,152.006 166.377,151.41 L166.228,145.93 C166.208,145.257 165.989,144.816 165.573,144.607 C165.156,144.399 164.659,144.294 164.083,144.294 L162.952,144.294 L162.952,151.41 C162.952,152.006 162.655,152.304 162.058,152.304 L156.072,152.304 C155.477,152.304 155.179,152.006 155.179,151.41 L155.179,140.54 C155.179,139.787 155.213,138.992 155.284,138.158 C155.353,137.324 155.497,136.491 155.715,135.657 C155.934,134.823 156.261,134.029 156.698,133.275 C157.135,132.521 157.72,131.855 158.455,131.28 C159.189,130.704 160.103,130.243 161.195,129.894 C162.286,129.547 163.597,129.373 165.125,129.373 L165.125,129.373 Z" id="Fill-6"></path>
            <path d="M9.801,188.041 C9.206,188.041 8.908,187.743 8.908,187.147 L8.908,166.6 C8.908,166.004 9.206,165.706 9.801,165.706 L16.085,165.706 C16.68,165.706 16.978,166.004 16.978,166.6 L16.978,173.776 L22.249,173.776 L22.249,166.6 C22.249,166.004 22.548,165.706 23.142,165.706 L29.427,165.706 C30.022,165.706 30.32,166.004 30.32,166.6 L30.32,187.147 C30.32,187.743 30.022,188.041 29.427,188.041 L23.142,188.041 C22.548,188.041 22.249,187.743 22.249,187.147 L22.249,180.031 L16.978,180.031 L16.978,187.147 C16.978,187.743 16.68,188.041 16.085,188.041 L9.801,188.041" id="Fill-7"></path>
            <path d="M53.636,176.844 C53.636,176.088 53.557,175.39 53.399,174.743 C53.239,174.099 52.991,173.539 52.653,173.061 C52.315,172.586 51.884,172.213 51.358,171.944 C50.832,171.678 50.191,171.542 49.437,171.542 C48.682,171.542 48.043,171.678 47.517,171.944 C46.991,172.213 46.558,172.586 46.221,173.061 C45.883,173.539 45.635,174.099 45.476,174.743 C45.317,175.39 45.239,176.088 45.239,176.844 C45.239,177.598 45.317,178.299 45.476,178.943 C45.635,179.588 45.883,180.15 46.221,180.625 C46.558,181.103 46.991,181.481 47.517,181.757 C48.043,182.036 48.682,182.174 49.437,182.174 C50.191,182.174 50.832,182.036 51.358,181.757 C51.884,181.481 52.315,181.103 52.653,180.625 C52.991,180.15 53.239,179.588 53.399,178.943 C53.557,178.299 53.636,177.598 53.636,176.844 Z M62.064,176.575 C62.064,178.502 61.761,180.213 61.156,181.713 C60.55,183.211 59.682,184.478 58.55,185.511 C57.418,186.543 56.053,187.321 54.455,187.847 C52.857,188.373 51.076,188.637 49.11,188.637 C47.363,188.637 45.739,188.383 44.241,187.876 C42.741,187.372 41.436,186.626 40.325,185.644 C39.213,184.66 38.339,183.461 37.704,182.04 C37.069,180.62 36.752,178.999 36.752,177.172 C36.752,175.264 37.079,173.563 37.734,172.063 C38.389,170.565 39.293,169.3 40.444,168.268 C41.595,167.235 42.961,166.45 44.538,165.914 C46.117,165.379 47.839,165.11 49.705,165.11 C51.531,165.11 53.205,165.355 54.723,165.839 C56.243,166.326 57.543,167.051 58.625,168.013 C59.707,168.978 60.55,170.173 61.156,171.602 C61.761,173.032 62.064,174.69 62.064,176.575 L62.064,176.575 Z" id="Fill-8"></path>
            <path d="M87.496,187.147 C87.496,187.743 87.199,188.041 86.603,188.041 L84.28,188.041 C83.685,188.041 83.387,187.743 83.387,187.147 L83.387,185.332 C83.07,185.768 82.696,186.185 82.27,186.582 C81.843,186.98 81.346,187.331 80.781,187.639 C80.216,187.947 79.585,188.189 78.89,188.368 C78.195,188.548 77.411,188.637 76.537,188.637 C73.48,188.637 71.206,187.828 69.717,186.209 C68.229,184.592 67.484,182.372 67.484,179.554 L67.484,166.6 C67.484,166.004 67.782,165.706 68.378,165.706 L74.363,165.706 C74.959,165.706 75.257,166.004 75.257,166.6 L75.405,180.15 C75.426,180.904 75.639,181.439 76.046,181.757 C76.452,182.074 76.954,182.234 77.55,182.234 C78.145,182.234 78.647,182.074 79.054,181.757 C79.461,181.439 79.674,180.904 79.693,180.15 L79.843,166.6 C79.843,166.004 80.141,165.706 80.737,165.706 L86.603,165.706 C87.199,165.706 87.496,166.004 87.496,166.6 L87.496,187.147" id="Fill-9"></path>
            <path d="M110.182,165.616 C110.619,165.677 110.837,165.965 110.837,166.479 L110.837,171.573 C110.837,172.128 110.54,172.337 109.944,172.199 C109.567,172.099 109.1,171.985 108.544,171.854 C107.988,171.726 107.393,171.602 106.758,171.484 C106.122,171.365 105.466,171.266 104.792,171.186 C104.116,171.106 103.481,171.067 102.886,171.067 C101.695,171.067 101.099,171.404 101.099,172.08 C101.099,172.555 101.402,172.899 102.008,173.107 C102.613,173.316 103.363,173.529 104.256,173.747 C105.049,173.946 105.889,174.188 106.772,174.477 C107.656,174.765 108.47,175.177 109.214,175.713 C109.958,176.248 110.579,176.939 111.075,177.782 C111.571,178.626 111.819,179.702 111.819,181.013 C111.819,183.732 111.011,185.683 109.393,186.866 C107.775,188.046 105.477,188.637 102.499,188.637 C101.606,188.637 100.746,188.618 99.922,188.577 C99.098,188.538 98.33,188.492 97.615,188.443 C96.9,188.392 96.264,188.339 95.709,188.279 C95.153,188.22 94.706,188.169 94.369,188.131 C93.932,188.07 93.713,187.784 93.713,187.268 L93.713,182.174 C93.713,181.599 94.012,181.391 94.608,181.548 C95.004,181.648 95.506,181.762 96.112,181.893 C96.716,182.021 97.362,182.145 98.047,182.263 C98.731,182.382 99.427,182.482 100.131,182.561 C100.836,182.641 101.497,182.68 102.112,182.68 C102.628,182.68 103.055,182.612 103.392,182.472 C103.73,182.334 103.898,182.007 103.898,181.49 C103.898,181.054 103.635,180.729 103.109,180.521 C102.583,180.312 101.928,180.119 101.144,179.942 C100.36,179.762 99.506,179.549 98.582,179.299 C97.66,179.052 96.806,178.665 96.022,178.139 C95.237,177.613 94.582,176.893 94.056,175.979 C93.53,175.068 93.268,173.866 93.268,172.378 C93.268,171.067 93.51,169.954 93.997,169.041 C94.483,168.13 95.177,167.378 96.081,166.794 C96.984,166.208 98.066,165.781 99.327,165.512 C100.588,165.246 101.992,165.11 103.541,165.11 C104.097,165.11 104.692,165.129 105.328,165.17 C105.963,165.209 106.583,165.255 107.189,165.304 C107.795,165.355 108.36,165.408 108.887,165.469 C109.413,165.527 109.844,165.578 110.182,165.616" id="Fill-10"></path>
            <path d="M118.568,188.041 C117.973,188.041 117.675,187.743 117.675,187.147 L117.675,166.6 C117.675,166.004 117.973,165.706 118.568,165.706 L134.411,165.706 C135.006,165.706 135.304,166.004 135.304,166.6 L135.304,171.067 C135.304,171.663 135.006,171.959 134.411,171.959 L125.745,171.959 L125.745,174.254 L134.113,174.254 C134.709,174.254 135.006,174.552 135.006,175.146 L135.006,178.66 C135.006,179.256 134.709,179.554 134.113,179.554 L125.745,179.554 L125.745,181.788 L134.411,181.788 C135.006,181.788 135.304,182.084 135.304,182.68 L135.304,187.147 C135.304,187.743 135.006,188.041 134.411,188.041 L118.568,188.041" id="Fill-11"></path>
            <path d="M25.823,201.351 C26.259,201.411 26.477,201.7 26.477,202.214 L26.477,207.308 C26.477,207.863 26.18,208.071 25.584,207.933 C25.207,207.834 24.741,207.72 24.185,207.589 C23.628,207.461 23.033,207.337 22.398,207.218 C21.762,207.099 21.107,207 20.433,206.92 C19.757,206.84 19.122,206.801 18.527,206.801 C17.336,206.801 16.74,207.138 16.74,207.814 C16.74,208.289 17.043,208.633 17.648,208.842 C18.253,209.05 19.003,209.264 19.896,209.482 C20.69,209.68 21.53,209.923 22.413,210.211 C23.296,210.5 24.111,210.912 24.855,211.447 C25.599,211.983 26.219,212.673 26.716,213.517 C27.212,214.36 27.46,215.436 27.46,216.747 C27.46,219.467 26.652,221.417 25.034,222.6 C23.415,223.78 21.118,224.372 18.139,224.372 C17.246,224.372 16.387,224.352 15.563,224.311 C14.739,224.272 13.971,224.226 13.256,224.178 C12.541,224.127 11.905,224.074 11.35,224.013 C10.794,223.955 10.346,223.904 10.009,223.865 C9.572,223.805 9.354,223.519 9.354,223.002 L9.354,217.908 C9.354,217.334 9.652,217.125 10.248,217.283 C10.644,217.382 11.146,217.496 11.752,217.627 C12.357,217.756 13.003,217.879 13.687,217.998 C14.372,218.117 15.067,218.216 15.771,218.296 C16.477,218.376 17.137,218.415 17.753,218.415 C18.269,218.415 18.695,218.347 19.032,218.206 C19.37,218.068 19.539,217.741 19.539,217.225 C19.539,216.789 19.276,216.464 18.75,216.255 C18.224,216.047 17.568,215.853 16.784,215.676 C16,215.497 15.146,215.284 14.223,215.034 C13.301,214.787 12.446,214.399 11.662,213.873 C10.877,213.347 10.223,212.627 9.697,211.714 C9.171,210.803 8.908,209.6 8.908,208.112 C8.908,206.801 9.15,205.689 9.638,204.775 C10.123,203.864 10.818,203.113 11.722,202.529 C12.624,201.942 13.707,201.516 14.968,201.247 C16.228,200.98 17.633,200.844 19.181,200.844 C19.737,200.844 20.332,200.864 20.969,200.905 C21.604,200.944 22.224,200.99 22.83,201.038 C23.436,201.089 24,201.142 24.528,201.203 C25.053,201.261 25.485,201.312 25.823,201.351" id="Fill-12"></path>
            <path d="M31.737,207.099 C31.737,206.026 31.871,205.134 32.14,204.419 C32.408,203.704 32.813,203.122 33.36,202.677 C33.906,202.231 34.601,201.913 35.444,201.724 C36.289,201.535 37.286,201.441 38.437,201.441 L49.962,201.441 C50.558,201.441 50.856,201.739 50.856,202.335 L50.856,206.801 C50.856,207.397 50.558,207.693 49.962,207.693 L45.347,207.693 L45.347,222.881 C45.347,223.477 45.048,223.775 44.453,223.775 L38.14,223.775 C37.544,223.775 37.246,223.477 37.246,222.881 L37.246,207.693 L35.846,207.693 L35.846,209.363 C35.846,209.957 35.548,210.255 34.953,210.255 L32.63,210.255 C32.035,210.255 31.737,209.957 31.737,209.363 L31.737,207.099" id="Fill-13"></path>
            <path d="M64.209,215.885 C64.23,216.638 64.443,217.174 64.85,217.491 C65.256,217.809 65.758,217.969 66.354,217.969 C66.949,217.969 67.451,217.809 67.858,217.491 C68.265,217.174 68.478,216.638 68.498,215.885 L68.647,202.335 C68.647,201.739 68.945,201.441 69.541,201.441 L75.407,201.441 C76.003,201.441 76.3,201.739 76.3,202.335 L76.3,215.288 C76.3,216.699 76.111,217.964 75.734,219.086 C75.357,220.208 74.756,221.161 73.934,221.943 C73.108,222.729 72.062,223.33 70.792,223.746 C69.521,224.163 67.993,224.372 66.205,224.372 C64.458,224.372 62.959,224.163 61.708,223.746 C60.458,223.33 59.43,222.729 58.626,221.943 C57.822,221.161 57.231,220.208 56.854,219.086 C56.477,217.964 56.288,216.699 56.288,215.288 L56.288,202.335 C56.288,201.739 56.586,201.441 57.183,201.441 L63.167,201.441 C63.763,201.441 64.062,201.739 64.062,202.335 L64.209,215.885" id="Fill-14"></path>
            <path d="M96.251,212.608 C96.251,211.893 96.172,211.234 96.013,210.628 C95.855,210.022 95.582,209.501 95.194,209.065 C94.808,208.629 94.29,208.284 93.646,208.037 C93,207.788 92.201,207.664 91.249,207.664 L90.236,207.664 L90.236,217.523 L91.249,217.523 C92.201,217.523 93,217.397 93.646,217.15 C94.29,216.902 94.808,216.563 95.194,216.137 C95.582,215.71 95.855,215.194 96.013,214.588 C96.172,213.982 96.251,213.323 96.251,212.608 Z M90.325,201.441 C92.291,201.441 94.147,201.615 95.895,201.962 C97.641,202.308 99.159,202.904 100.451,203.748 C101.741,204.594 102.763,205.708 103.518,207.099 C104.271,208.488 104.649,210.226 104.649,212.31 C104.649,214.394 104.287,216.166 103.563,217.627 C102.838,219.086 101.835,220.266 100.555,221.17 C99.274,222.074 97.759,222.733 96.013,223.15 C94.266,223.567 92.37,223.775 90.325,223.775 L83.059,223.775 C82.464,223.775 82.166,223.477 82.166,222.881 L82.166,202.335 C82.166,201.739 82.464,201.441 83.059,201.441 L90.325,201.441 L90.325,201.441 Z" id="Fill-15"></path>
            <path d="M111.23,223.775 C110.636,223.775 110.337,223.477 110.337,222.881 L110.337,202.335 C110.337,201.739 110.636,201.441 111.23,201.441 L117.544,201.441 C118.14,201.441 118.438,201.739 118.438,202.335 L118.438,222.881 C118.438,223.477 118.14,223.775 117.544,223.775 L111.23,223.775" id="Fill-16"></path>
            <path d="M141.718,212.579 C141.718,211.823 141.64,211.125 141.481,210.478 C141.321,209.833 141.074,209.273 140.736,208.796 C140.398,208.321 139.966,207.948 139.44,207.679 C138.914,207.412 138.273,207.276 137.52,207.276 C136.765,207.276 136.125,207.412 135.599,207.679 C135.073,207.948 134.641,208.321 134.304,208.796 C133.966,209.273 133.717,209.833 133.559,210.478 C133.4,211.125 133.321,211.823 133.321,212.579 C133.321,213.333 133.4,214.033 133.559,214.678 C133.717,215.322 133.966,215.885 134.304,216.36 C134.641,216.837 135.073,217.215 135.599,217.491 C136.125,217.77 136.765,217.908 137.52,217.908 C138.273,217.908 138.914,217.77 139.44,217.491 C139.966,217.215 140.398,216.837 140.736,216.36 C141.074,215.885 141.321,215.322 141.481,214.678 C141.64,214.033 141.718,213.333 141.718,212.579 Z M150.146,212.31 C150.146,214.237 149.843,215.948 149.239,217.448 C148.633,218.945 147.764,220.213 146.632,221.245 C145.5,222.278 144.136,223.056 142.538,223.582 C140.939,224.108 139.158,224.372 137.193,224.372 C135.445,224.372 133.822,224.117 132.324,223.611 C130.824,223.107 129.519,222.36 128.407,221.379 C127.295,220.395 126.421,219.195 125.786,217.775 C125.151,216.355 124.834,214.733 124.834,212.906 C124.834,210.999 125.161,209.298 125.817,207.797 C126.471,206.3 127.375,205.035 128.526,204.002 C129.677,202.97 131.043,202.185 132.621,201.649 C134.2,201.113 135.921,200.844 137.788,200.844 C139.614,200.844 141.287,201.089 142.805,201.574 C144.325,202.061 145.625,202.786 146.707,203.748 C147.789,204.712 148.633,205.907 149.239,207.337 C149.843,208.767 150.146,210.424 150.146,212.31 L150.146,212.31 Z" id="Fill-17"></path>
            <path d="M173.048,201.351 C173.484,201.411 173.702,201.7 173.702,202.214 L173.702,207.308 C173.702,207.863 173.405,208.071 172.809,207.933 C172.432,207.834 171.966,207.72 171.41,207.589 C170.853,207.461 170.258,207.337 169.623,207.218 C168.987,207.099 168.332,207 167.658,206.92 C166.982,206.84 166.347,206.801 165.752,206.801 C164.561,206.801 163.965,207.138 163.965,207.814 C163.965,208.289 164.268,208.633 164.873,208.842 C165.478,209.05 166.228,209.264 167.121,209.482 C167.915,209.68 168.755,209.923 169.638,210.211 C170.521,210.5 171.336,210.912 172.08,211.447 C172.824,211.983 173.444,212.673 173.941,213.517 C174.437,214.36 174.685,215.436 174.685,216.747 C174.685,219.467 173.877,221.417 172.259,222.6 C170.64,223.78 168.343,224.372 165.364,224.372 C164.471,224.372 163.612,224.352 162.788,224.311 C161.964,224.272 161.196,224.226 160.481,224.178 C159.766,224.127 159.13,224.074 158.575,224.013 C158.019,223.955 157.571,223.904 157.235,223.865 C156.797,223.805 156.579,223.519 156.579,223.002 L156.579,217.908 C156.579,217.334 156.877,217.125 157.473,217.283 C157.869,217.382 158.371,217.496 158.977,217.627 C159.582,217.756 160.228,217.879 160.912,217.998 C161.597,218.117 162.292,218.216 162.996,218.296 C163.702,218.376 164.362,218.415 164.978,218.415 C165.494,218.415 165.92,218.347 166.257,218.206 C166.595,218.068 166.764,217.741 166.764,217.225 C166.764,216.789 166.501,216.464 165.975,216.255 C165.449,216.047 164.793,215.853 164.009,215.676 C163.225,215.497 162.371,215.284 161.448,215.034 C160.526,214.787 159.671,214.399 158.887,213.873 C158.102,213.347 157.448,212.627 156.922,211.714 C156.396,210.803 156.133,209.6 156.133,208.112 C156.133,206.801 156.375,205.689 156.863,204.775 C157.348,203.864 158.043,203.113 158.947,202.529 C159.849,201.942 160.932,201.516 162.193,201.247 C163.453,200.98 164.858,200.844 166.406,200.844 C166.962,200.844 167.557,200.864 168.194,200.905 C168.829,200.944 169.449,200.99 170.055,201.038 C170.661,201.089 171.225,201.142 171.752,201.203 C172.278,201.261 172.71,201.312 173.048,201.351" id="Fill-18"></path>
            <path d="M72.608,144.037 C72.628,144.772 72.836,145.295 73.233,145.603 C73.628,145.913 74.117,146.068 74.697,146.068 C75.277,146.068 75.766,145.913 76.162,145.603 C76.559,145.295 76.766,144.772 76.785,144.037 L76.93,130.839 C76.93,130.26 77.221,129.969 77.801,129.969 L83.37,129.969 C83.951,129.969 84.24,130.26 84.24,130.839 L84.385,144.037 C84.404,144.772 84.613,145.295 85.009,145.603 C85.405,145.913 85.893,146.068 86.474,146.068 C87.053,146.068 87.542,145.913 87.939,145.603 C88.335,145.295 88.543,144.772 88.562,144.037 L88.649,135.625 L87.344,135.625 C86.764,135.625 86.474,135.336 86.474,134.755 L86.474,130.839 C86.474,130.26 86.764,129.969 87.344,129.969 L95.291,129.969 C95.871,129.969 96.161,130.26 96.161,130.839 L96.161,143.457 C96.161,144.83 95.977,146.063 95.61,147.155 C95.243,148.248 94.658,149.176 93.855,149.94 C93.053,150.704 92.033,151.288 90.796,151.694 C89.558,152.1 88.07,152.304 86.329,152.304 C85.111,152.304 83.983,152.139 82.95,151.811 C81.915,151.481 81.098,151.047 80.498,150.505 C79.88,151.047 79.048,151.481 78.004,151.811 C76.96,152.139 75.809,152.304 74.552,152.304 C72.85,152.304 71.39,152.1 70.172,151.694 C68.954,151.288 67.953,150.704 67.17,149.94 C66.387,149.176 65.811,148.248 65.444,147.155 C65.077,146.063 64.893,144.83 64.893,143.457 L64.893,130.839 C64.893,130.26 65.183,129.969 65.764,129.969 L71.593,129.969 C72.174,129.969 72.464,130.26 72.464,130.839 L72.608,144.037" id="Fill-19"></path>
        </g>
    </g>
</svg>