<?xml version="1.0" encoding="UTF-8"?>
<svg width="500px" height="349px" viewBox="0 0 500 349" version="1.1" xmlns="http://www.w3.org/2000/svg" xmlns:xlink="http://www.w3.org/1999/xlink">
    <!-- Generator: Sketch 46.2 (44496) - http://www.bohemiancoding.com/sketch -->
    <title>Group 3</title>
    <desc>Created with Sketch.</desc>
    <defs></defs>
    <g id="Page-1" stroke="none" stroke-width="1" fill="none" fill-rule="evenodd">
        <g id="Group-3" fill="#1A1919">
            <path d="M453.609323,140.206803 C458.451069,137.927365 463.292814,135.647928 468.137306,133.36849 C470.905587,132.063992 474.305519,131.500999 476.024709,134.815796 C476.988664,136.669555 476.565733,148.286449 476.565733,151.69462 C476.565733,153.74886 476.994157,156.558336 475.97253,158.434066 C472.487462,164.846701 464.737373,157.088374 461.340187,154.64965 C458.722953,152.768427 456.064525,150.933892 453.482993,149.005982 C450.486768,146.770485 449.572247,142.109996 453.609323,140.206803 Z M424.185353,156.819235 C427.000321,158.837773 439.040146,166.826791 440.968056,169.334172 C443.610007,172.769806 439.754187,176.650343 435.975264,176.705269 C432.701662,176.751957 408.767566,176.705269 400.075493,176.705269 C397.106731,176.705269 393.871578,176.499296 393.069655,172.909868 C392.174358,168.905748 395.755547,167.447457 398.652904,166.08254 C403.335364,163.879999 408.017823,161.674712 412.700282,159.469425 C415.809106,158.005641 420.821122,154.402482 424.185353,156.819235 Z M276.826571,148.962041 C281.363476,154.44093 285.897635,159.91982 290.431793,165.398709 C292.274567,167.625967 295.116999,170.086661 294.10361,173.302591 C292.955652,176.933213 289.454107,176.705269 286.430419,176.705269 C278.359012,176.705269 270.284859,176.705269 262.213453,176.705269 C259.041464,176.705269 255.284512,176.543237 254.724264,172.508907 C254.328795,169.666476 257.162988,166.722431 258.656981,164.54186 C261.444486,160.466336 264.234737,156.393557 267.024989,152.318032 C269.186335,149.157029 273.00096,144.34 276.826571,148.962041 Z M76.288233,140.385313 C97.8769797,148.981265 119.46298,157.579963 141.051727,166.178661 C142.007443,166.560398 143.034563,166.876224 143.957323,167.337604 C148.450287,169.570355 147.68132,176.705269 142.161236,176.705269 L49.5940951,176.705269 C45.3592843,176.705269 43.153997,171.663043 46.0266377,168.55422 L70.9219423,141.601929 C72.2868586,140.124414 74.4207418,139.641063 76.288233,140.385313 Z M63.8007592,110.184137 L48.3857184,104.046133 C44.587571,102.532916 44.2442822,97.2902091 47.8117395,95.2936414 L91.4341353,70.895419 C96.605438,68.0035541 100.557379,74.619416 97.1464611,78.6757166 C95.2981942,80.872765 93.2274761,82.9187663 91.2775956,85.0279328 C85.018754,91.8058271 78.7571661,98.5837213 72.4955782,105.361616 C70.2518425,107.789354 67.6620717,111.722071 63.8007592,110.184137 Z M255.106001,128.241128 C247.141701,139.874499 239.180147,151.505124 231.215846,163.138496 C228.713958,166.796581 225.583164,174.151201 220.142723,172.453981 C217.456831,171.616356 214.836851,170.342068 212.225109,169.301216 C181.647688,157.121329 108.085016,127.823689 101.883847,125.35201 C98.1351329,123.860763 89.874231,121.084243 95.0180705,115.514725 L171.785688,27.5641322 C173.779509,25.4055321 177.220636,25.4989067 179.096366,27.7618665 L254.839609,122.399726 C256.221003,124.069483 256.32811,126.45328 255.106001,128.241128 Z M266.832747,100.138133 C258.258766,89.7790499 249.684784,79.4227131 241.108057,69.0636299 C235.994427,62.8844313 230.87805,56.7052327 225.76442,50.5260341 C224.635687,49.1638641 223.408086,47.8373962 222.358995,46.412061 C219.774717,42.8967836 221.93881,37.6540769 226.728375,38.3324156 C230.842348,38.9146334 280.37755,55.708322 288.053488,58.201972 C292.266329,59.5696346 300.343228,61.2146746 296.624723,67.5806223 C292.738694,74.2376789 278.570478,93.9616808 276.126262,97.5291381 C274.030827,100.591274 270.284859,104.307032 266.832747,100.138133 Z M392.605528,143.027264 C374.411221,151.593006 356.216915,160.161495 338.022608,168.727237 C335.734931,169.803791 333.452747,171.094557 331.085427,171.992601 C326.95223,173.56349 324.89799,170.281649 322.657,167.573787 C315.044228,158.376393 293.644976,132.525373 290.558123,128.798629 C288.396777,126.184142 286.702303,123.764642 288.913083,120.337247 C294.812158,111.200272 301.222047,102.357152 307.365544,93.3822093 C309.510412,90.2459227 311.501487,86.8844387 313.855075,83.8991992 C316.49428,80.5487004 319.608596,81.7158823 322.407086,83.7261816 C329.997888,89.1776079 388.192207,130.391489 393.352525,134.675734 C396.098835,136.955171 396.090596,141.387717 392.605528,143.027264 Z M388.936458,90.9764413 C397.691695,93.8188726 435.02504,105.369855 444.59044,109.055403 C447.075851,110.013866 448.764832,112.208168 448.056283,114.987434 C447.438364,117.412426 445.309973,118.211602 443.294181,119.161826 C438.040489,121.636252 432.827992,124.256232 427.511135,126.593342 C423.53997,128.339995 420.914497,125.615655 417.885316,123.440578 C412.867807,119.837418 407.850298,116.234259 402.832789,112.631099 C397.48023,108.789011 392.130417,104.944176 386.777858,101.102088 C385.591451,100.250732 384.017816,99.3746588 383.237863,98.1086096 C380.906246,94.3296864 384.792275,89.6307492 388.936458,90.9764413 Z M30.0925443,121.985033 L43.2968051,127.244218 C46.4633011,128.504774 47.3805688,132.550089 45.0681754,135.051978 L31.8639146,149.349271 C28.8649435,152.59541 23.438234,150.472512 23.438234,146.053698 L23.438234,126.497221 C23.438234,123.064333 26.9040778,120.716238 30.0925443,121.985033 Z M161.530964,4.83566659 L6.93840059,91.3032522 C-0.399741033,95.7605142 0.00396660849,104.128522 0.00396660849,104.128522 L0.00396660849,188.423776 C0.00396660849,188.497927 0.01220554,188.569331 0.0149518504,188.646227 C0.0149518504,188.646227 -0.311859097,200.142283 11.7169808,200.142283 L488.245791,200.142283 C494.636456,200.142283 500,194.817187 500,188.423776 L500,110.931133 C499.991761,110.689458 499.980776,110.447783 499.972537,110.206107 C499.678682,105.465975 496.42705,101.253135 491.903877,99.7866053 L189.735573,1.61973701 C175.366876,-3.39502594 161.530964,4.83566659 161.530964,4.83566659 L161.530964,4.83566659 Z" id="Fill-1"></path>
            <g id="Group" transform="translate(0.000000, 278.000000)">
                <path d="M50.6437126,1.51796407 C51.9491018,1.69760479 52.6017964,2.56287425 52.6017964,4.10179641 L52.6017964,19.3532934 C52.6017964,21.0149701 51.7125749,21.6377246 49.9281437,21.2245509 C48.7994012,20.9281437 47.4041916,20.5868263 45.739521,20.1946108 C44.0718563,19.8113772 42.2904192,19.4401198 40.3892216,19.0838323 C38.4850299,18.7275449 36.5239521,18.4311377 34.505988,18.1916168 C32.4820359,17.9520958 30.5808383,17.8353293 28.7994012,17.8353293 C25.2335329,17.8353293 23.4491018,18.8443114 23.4491018,20.8682635 C23.4491018,22.2904192 24.3562874,23.3203593 26.1676647,23.9461078 C27.9790419,24.5688623 30.2245509,25.2095808 32.8982036,25.8622754 C35.2754491,26.4550898 37.7904192,27.1826347 40.4341317,28.0449102 C43.0778443,28.9101796 45.5179641,30.1437126 47.745509,31.745509 C49.9730539,33.3502994 51.8293413,35.4161677 53.3173653,37.9431138 C54.8023952,40.4670659 55.5449102,43.6886228 55.5449102,47.6137725 C55.5449102,55.757485 53.1257485,61.5958084 48.2814371,65.1377246 C43.4341317,68.6706587 36.5568862,70.4431138 27.6377246,70.4431138 C24.9640719,70.4431138 22.3922156,70.3832335 19.9251497,70.260479 C17.4580838,70.1437126 15.1586826,70.005988 13.0179641,69.8622754 C10.8772455,69.7095808 8.97305389,69.5508982 7.31137725,69.3682635 C5.64670659,69.1946108 4.30538922,69.0419162 3.29640719,68.9251497 C1.98802395,68.745509 1.33532934,67.8892216 1.33532934,66.3413174 L1.33532934,51.0898204 C1.33532934,49.3712575 2.22754491,48.745509 4.01197605,49.2185629 C5.19760479,49.5149701 6.7005988,49.8562874 8.51497006,50.248503 C10.3263473,50.6347305 12.260479,51.002994 14.3083832,51.3592814 C16.3592814,51.7155689 18.4401198,52.011976 20.5479042,52.251497 C22.6616766,52.491018 24.6377246,52.6077844 26.4820359,52.6077844 C28.0269461,52.6077844 29.3023952,52.4041916 30.3113772,51.9820359 C31.3233533,51.5688623 31.8293413,50.5898204 31.8293413,49.0449102 C31.8293413,47.739521 31.0419162,46.7664671 29.4670659,46.1407186 C27.8922156,45.5179641 25.9281437,44.9371257 23.5808383,44.4071856 C21.2335329,43.8712575 18.6766467,43.2335329 15.9131737,42.4850299 C13.1526946,41.745509 10.5928144,40.5838323 8.24550898,39.008982 C5.89520958,37.4341317 3.93712575,35.2784431 2.36227545,32.5449102 C0.78742515,29.8173653 0,26.2155689 0,21.760479 C0,17.8353293 0.724550898,14.505988 2.18562874,11.7694611 C3.63772455,9.04191617 5.71856287,6.79341317 8.4251497,5.04491018 C11.1257485,3.28742515 14.3682635,2.01197605 18.1437126,1.20658683 C21.9161677,0.407185629 26.1227545,0 30.757485,0 C32.4221557,0 34.2035928,0.0598802395 36.1107784,0.182634731 C38.011976,0.299401198 39.8682635,0.437125749 41.6826347,0.580838323 C43.497006,0.733532934 45.1856287,0.892215569 46.7664671,1.0748503 C48.3383234,1.24850299 49.6317365,1.4011976 50.6437126,1.51796407" id="Fill-12"></path>
                <path d="M68.8622754,16.9401198 C68.8622754,13.7275449 69.2634731,11.0568862 70.0688623,8.91616766 C70.8712575,6.7754491 72.0838323,5.03293413 73.7215569,3.7005988 C75.3562874,2.36526946 77.4371257,1.41317365 79.9610778,0.847305389 C82.491018,0.281437126 85.4760479,0 88.9221557,0 L123.428144,0 C125.212575,0 126.10479,0.892215569 126.10479,2.67664671 L126.10479,16.0479042 C126.10479,17.8323353 125.212575,18.7185629 123.428144,18.7185629 L109.610778,18.7185629 L109.610778,64.1916168 C109.610778,65.9760479 108.715569,66.8682635 106.934132,66.8682635 L88.0329341,66.8682635 C86.248503,66.8682635 85.3562874,65.9760479 85.3562874,64.1916168 L85.3562874,18.7185629 L81.1646707,18.7185629 L81.1646707,23.7185629 C81.1646707,25.497006 80.2724551,26.3892216 78.491018,26.3892216 L71.5359281,26.3892216 C69.754491,26.3892216 68.8622754,25.497006 68.8622754,23.7185629 L68.8622754,16.9401198" id="Fill-13"></path>
                <path d="M167.428144,43.245509 C167.491018,45.5 168.128743,47.1047904 169.347305,48.0538922 C170.562874,49.005988 172.065868,49.4850299 173.850299,49.4850299 C175.631737,49.4850299 177.134731,49.005988 178.353293,48.0538922 C179.571856,47.1047904 180.209581,45.5 180.269461,43.245509 L180.715569,2.67664671 C180.715569,0.892215569 181.607784,0 183.392216,0 L200.95509,0 C202.739521,0 203.628743,0.892215569 203.628743,2.67664671 L203.628743,41.4580838 C203.628743,45.6826347 203.062874,49.4700599 201.934132,52.8293413 C200.805389,56.1886228 199.005988,59.0419162 196.54491,61.3832335 C194.071856,63.7365269 190.94012,65.5359281 187.137725,66.7814371 C183.332335,68.0299401 178.757485,68.6556886 173.404192,68.6556886 C168.173653,68.6556886 163.685629,68.0299401 159.94012,66.7814371 C156.197605,65.5359281 153.11976,63.7365269 150.712575,61.3832335 C148.305389,59.0419162 146.535928,56.1886228 145.407186,52.8293413 C144.278443,49.4700599 143.712575,45.6826347 143.712575,41.4580838 L143.712575,2.67664671 C143.712575,0.892215569 144.60479,0 146.392216,0 L164.308383,0 C166.092814,0 166.988024,0.892215569 166.988024,2.67664671 L167.428144,43.245509" id="Fill-14"></path>
                <path d="M263.727545,33.4341317 C263.727545,31.2934132 263.491018,29.3203593 263.01497,27.505988 C262.541916,25.6916168 261.724551,24.1317365 260.562874,22.8263473 C259.407186,21.5209581 257.856287,20.488024 255.928144,19.748503 C253.994012,19.002994 251.601796,18.6317365 248.751497,18.6317365 L245.718563,18.6317365 L245.718563,48.1497006 L248.751497,48.1497006 C251.601796,48.1497006 253.994012,47.7724551 255.928144,47.0329341 C257.856287,46.2904192 259.407186,45.2754491 260.562874,44 C261.724551,42.7215569 262.541916,41.1766467 263.01497,39.3622754 C263.491018,37.5479042 263.727545,35.5748503 263.727545,33.4341317 Z M245.98503,0 C251.871257,0 257.428144,0.520958084 262.661677,1.55988024 C267.889222,2.59580838 272.434132,4.38023952 276.302395,6.90718563 C280.164671,9.44011976 283.224551,12.7754491 285.48503,16.9401198 C287.739521,21.0988024 288.871257,26.3023952 288.871257,32.5419162 C288.871257,38.7814371 287.787425,44.0868263 285.61976,48.4610778 C283.449102,52.8293413 280.446108,56.3622754 276.613772,59.0688623 C272.778443,61.7754491 268.242515,63.748503 263.01497,64.997006 C257.784431,66.245509 252.107784,66.8682635 245.98503,66.8682635 L224.230539,66.8682635 C222.449102,66.8682635 221.556886,65.9760479 221.556886,64.1916168 L221.556886,2.67664671 C221.556886,0.892215569 222.449102,0 224.230539,0 L245.98503,0 L245.98503,0 Z" id="Fill-15"></path>
                <path d="M308.062874,66.8682635 C306.284431,66.8682635 305.389222,65.9760479 305.389222,64.1916168 L305.389222,2.67664671 C305.389222,0.892215569 306.284431,0 308.062874,0 L326.967066,0 C328.751497,0 329.643713,0.892215569 329.643713,2.67664671 L329.643713,64.1916168 C329.643713,65.9760479 328.751497,66.8682635 326.967066,66.8682635 L308.062874,66.8682635" id="Fill-16"></path>
                <path d="M397.856287,35.1347305 C397.856287,32.8712575 397.622754,30.7814371 397.146707,28.8443114 C396.667665,26.9131737 395.928144,25.2365269 394.916168,23.8083832 C393.904192,22.3862275 392.610778,21.2694611 391.035928,20.4640719 C389.461078,19.6646707 387.541916,19.257485 385.287425,19.257485 C383.026946,19.257485 381.110778,19.6646707 379.535928,20.4640719 C377.961078,21.2694611 376.667665,22.3862275 375.658683,23.8083832 C374.646707,25.2365269 373.901198,26.9131737 373.428144,28.8443114 C372.952096,30.7814371 372.715569,32.8712575 372.715569,35.1347305 C372.715569,37.3922156 372.952096,39.488024 373.428144,41.4191617 C373.901198,43.3473054 374.646707,45.0329341 375.658683,46.4550898 C376.667665,47.8832335 377.961078,49.0149701 379.535928,49.8413174 C381.110778,50.6766467 383.026946,51.0898204 385.287425,51.0898204 C387.541916,51.0898204 389.461078,50.6766467 391.035928,49.8413174 C392.610778,49.0149701 393.904192,47.8832335 394.916168,46.4550898 C395.928144,45.0329341 396.667665,43.3473054 397.146707,41.4191617 C397.622754,39.488024 397.856287,37.3922156 397.856287,35.1347305 Z M423.08982,34.3293413 C423.08982,40.0988024 422.182635,45.2215569 420.374251,49.7125749 C418.55988,54.1946108 415.958084,57.991018 412.568862,61.0808383 C409.179641,64.1736527 405.095808,66.502994 400.311377,68.0778443 C395.523952,69.6526946 390.191617,70.4431138 384.308383,70.4431138 C379.07485,70.4431138 374.215569,69.6796407 369.730539,68.1646707 C365.239521,66.6556886 361.332335,64.4191617 358.002994,61.4820359 C354.673653,58.5359281 352.056886,54.9431138 350.155689,50.6916168 C348.254491,46.4401198 347.305389,41.5838323 347.305389,36.1137725 C347.305389,30.4041916 348.284431,25.3113772 350.248503,20.8173653 C352.206587,16.3353293 354.913174,12.5479042 358.359281,9.45508982 C361.805389,6.36526946 365.89521,4.01497006 370.61976,2.41017964 C375.347305,0.805389222 380.5,0 386.08982,0 C391.556886,0 396.565868,0.733532934 401.110778,2.18562874 C405.661677,3.64371257 409.553892,5.81437126 412.793413,8.69461078 C416.032934,11.5808383 418.55988,15.1586826 420.374251,19.4401198 C422.182635,23.7215569 423.08982,28.6826347 423.08982,34.3293413 L423.08982,34.3293413 Z" id="Fill-17"></path>
                <path d="M493.757485,1.51796407 C495.062874,1.69760479 495.715569,2.56287425 495.715569,4.10179641 L495.715569,19.3532934 C495.715569,21.0149701 494.826347,21.6377246 493.041916,21.2245509 C491.913174,20.9281437 490.517964,20.5868263 488.853293,20.1946108 C487.185629,19.8113772 485.404192,19.4401198 483.502994,19.0838323 C481.598802,18.7275449 479.637725,18.4311377 477.61976,18.1916168 C475.595808,17.9520958 473.694611,17.8353293 471.913174,17.8353293 C468.347305,17.8353293 466.562874,18.8443114 466.562874,20.8682635 C466.562874,22.2904192 467.47006,23.3203593 469.281437,23.9461078 C471.092814,24.5688623 473.338323,25.2095808 476.011976,25.8622754 C478.389222,26.4550898 480.904192,27.1826347 483.547904,28.0449102 C486.191617,28.9101796 488.631737,30.1437126 490.859281,31.745509 C493.086826,33.3502994 494.943114,35.4161677 496.431138,37.9431138 C497.916168,40.4670659 498.658683,43.6886228 498.658683,47.6137725 C498.658683,55.757485 496.239521,61.5958084 491.39521,65.1377246 C486.547904,68.6706587 479.670659,70.4431138 470.751497,70.4431138 C468.077844,70.4431138 465.505988,70.3832335 463.038922,70.260479 C460.571856,70.1437126 458.272455,70.005988 456.131737,69.8622754 C453.991018,69.7095808 452.086826,69.5508982 450.42515,69.3682635 C448.760479,69.1946108 447.419162,69.0419162 446.413174,68.9251497 C445.101796,68.745509 444.449102,67.8892216 444.449102,66.3413174 L444.449102,51.0898204 C444.449102,49.3712575 445.341317,48.745509 447.125749,49.2185629 C448.311377,49.5149701 449.814371,49.8562874 451.628743,50.248503 C453.44012,50.6347305 455.374251,51.002994 457.422156,51.3592814 C459.473054,51.7155689 461.553892,52.011976 463.661677,52.251497 C465.775449,52.491018 467.751497,52.6077844 469.595808,52.6077844 C471.140719,52.6077844 472.416168,52.4041916 473.42515,51.9820359 C474.437126,51.5688623 474.943114,50.5898204 474.943114,49.0449102 C474.943114,47.739521 474.155689,46.7664671 472.580838,46.1407186 C471.005988,45.5179641 469.041916,44.9371257 466.694611,44.4071856 C464.347305,43.8712575 461.790419,43.2335329 459.026946,42.4850299 C456.266467,41.745509 453.706587,40.5838323 451.359281,39.008982 C449.008982,37.4341317 447.050898,35.2784431 445.476048,32.5449102 C443.901198,29.8173653 443.113772,26.2155689 443.113772,21.760479 C443.113772,17.8353293 443.838323,14.505988 445.299401,11.7694611 C446.751497,9.04191617 448.832335,6.79341317 451.538922,5.04491018 C454.239521,3.28742515 457.482036,2.01197605 461.257485,1.20658683 C465.02994,0.407185629 469.236527,0 473.871257,0 C475.535928,0 477.317365,0.0598802395 479.224551,0.182634731 C481.125749,0.299401198 482.982036,0.437125749 484.796407,0.580838323 C486.610778,0.733532934 488.299401,0.892215569 489.877246,1.0748503 C491.452096,1.24850299 492.745509,1.4011976 493.757485,1.51796407" id="Fill-18"></path>
            </g>
            <g id="Group-2" transform="translate(0.000000, 224.000000)">
                <path d="M13.2870827,15.9279514 C15.5283804,16.1996145 17.0892536,16.0552935 17.9714119,15.5000819 C18.8535703,14.9414745 19.2946494,14.1587449 19.2946494,13.1467996 C19.2946494,12.1348543 19.0399177,11.4183427 18.5321637,10.9989627 C18.0227002,10.5795827 17.3781775,10.3656479 16.5985957,10.3656479 C15.4770921,10.3656479 14.6445124,10.7884237 14.1042759,11.6288817 C13.5589106,12.4727354 13.2870827,13.9040607 13.2870827,15.9279514 Z M17.2089262,0 C20.0588447,0 22.4693937,0.33788107 24.4388635,1.01194532 C26.4066237,1.68770746 28.0102371,2.60457066 29.2497038,3.76932651 C30.4874609,4.92898868 31.3867153,6.27881506 31.9457575,7.81371198 C32.5082189,9.34860891 32.7868852,10.9582132 32.7868852,12.640827 C32.7868852,15.1384303 32.3218715,17.2404241 31.3867153,18.9603915 C30.4532687,20.6820569 29.1385792,22.0556538 27.4426469,23.084578 C25.7432953,24.1135023 23.6917643,24.8045455 21.2812153,25.1577076 C18.8706664,25.5125676 16.2053856,25.5702961 13.2870827,25.3342887 L13.2870827,37.4165083 C13.2870827,38.4284536 12.7793288,38.9344262 11.7604017,38.9344262 L1.52668102,38.9344262 C0.509463542,38.9344262 0,38.4284536 0,37.4165083 L0,18.4544189 C0,17.175904 0.0581267128,15.8345671 0.177799357,14.4355018 C0.295762392,13.0398323 0.559042209,11.6577459 0.967638807,10.2909405 C1.37623541,8.92583309 1.95237371,7.62015197 2.69947293,6.37389717 C3.44486254,5.12764237 4.46208001,4.02910442 5.75283496,3.08677279 C7.04358991,2.14444116 8.61984959,1.39057586 10.4884524,0.835364254 C12.3553457,0.280152646 14.5949337,0 17.2089262,0 L17.2089262,0 Z" id="Fill-2"></path>
                <path d="M69.0062204,19.9311029 C69.0062204,18.6453896 68.8751107,17.4598839 68.6112318,16.3609982 C68.3456933,15.2672078 67.9357682,14.3160857 67.374818,13.5042351 C66.8138678,12.6974798 66.0985734,12.0639645 65.2256155,11.6070862 C64.3526575,11.1553033 63.2888438,10.9243165 62.0374934,10.9243165 C60.7844834,10.9243165 59.7223293,11.1553033 58.8510309,11.6070862 C57.978073,12.0639645 57.2594593,12.6974798 56.7001688,13.5042351 C56.1392186,14.3160857 55.7276339,15.2672078 55.463755,16.3609982 C55.199876,17.4598839 55.0687664,18.6453896 55.0687664,19.9311029 C55.0687664,21.2100224 55.199876,22.4006234 55.463755,23.4944138 C55.7276339,24.5899026 56.1392186,25.5444216 56.7001688,26.3511769 C57.2594593,27.1630276 57.978073,27.805035 58.8510309,28.2738023 C59.7223293,28.7476649 60.7844834,28.9820485 62.0374934,28.9820485 C63.2888438,28.9820485 64.3526575,28.7476649 65.2256155,28.2738023 C66.0985734,27.805035 66.8138678,27.1630276 67.374818,26.3511769 C67.9357682,25.5444216 68.3456933,24.5899026 68.6112318,23.4944138 C68.8751107,22.4006234 69.0062204,21.2100224 69.0062204,19.9311029 Z M82.9918033,19.4742246 C82.9918033,22.7454052 82.4905993,25.6514228 81.4865317,28.1990712 C80.4808045,30.7433228 79.0385983,32.8969349 77.1599131,34.6497171 C75.2828876,36.4024992 73.0175119,37.7238795 70.3654458,38.6172549 C67.7133796,39.5106303 64.7559442,39.9590164 61.494799,39.9590164 C58.5954501,39.9590164 55.9002339,39.5276146 53.4141294,38.6665094 C50.9247056,37.8104996 48.7589069,36.5434691 46.9150737,34.8756086 C45.0679212,33.2043512 43.6190765,31.1679309 42.5652205,28.756157 C41.5113644,26.3426848 40.9836066,23.589526 40.9836066,20.4864902 C40.9836066,17.2458814 41.5279606,14.3568481 42.615009,11.8091997 C43.7003977,9.26494812 45.2006905,7.11643128 47.1125679,5.36364916 C49.0227858,3.60916861 51.2881615,2.27589926 53.9070353,1.36723799 C56.5275687,0.456878285 59.3854272,0 62.4822704,0 C65.512729,0 68.2892663,0.41611591 70.8102228,1.23815714 C73.3311793,2.06699209 75.4903396,3.29665707 77.2860439,4.93054893 C79.0817483,6.56953608 80.4808045,8.59916266 81.4865317,11.0279208 C82.4905993,13.4549806 82.9918033,16.2709813 82.9918033,19.4742246 L82.9918033,19.4742246 Z" id="Fill-3"></path>
                <path d="M181.53533,19.9803569 C181.53533,18.7667669 181.403816,17.6482273 181.135729,16.6196461 C180.867642,15.5910649 180.407342,14.7067567 179.754829,13.9667213 C179.102316,13.2249887 178.230612,12.6411076 177.14309,12.2218675 C176.053882,11.7975353 174.70839,11.5887639 173.101555,11.5887639 L171.393556,11.5887639 L171.393556,28.3227273 L173.101555,28.3227273 C174.70839,28.3227273 176.053882,28.1071666 177.14309,27.6879264 C178.230612,27.2686862 179.102316,26.6932918 179.754829,25.9685324 C180.407342,25.2454704 180.867642,24.3696488 181.135729,23.3410676 C181.403816,22.3124865 181.53533,21.1939469 181.53533,19.9803569 Z M171.545303,1.02459016 C174.858451,1.02459016 177.989503,1.32162268 180.935086,1.90889841 C183.878982,2.49787146 186.440139,3.50947935 188.616869,4.94032743 C190.793599,6.37626749 192.515087,8.26878897 193.788078,10.6297732 C195.059383,12.9873627 195.696721,15.9356226 195.696721,19.4745529 C195.696721,23.0117859 195.08636,26.017755 193.863952,28.4992495 C192.641543,30.975652 190.950404,32.9784999 188.792221,34.512885 C186.634038,36.0472701 184.079626,37.1658097 181.135729,37.8735958 C178.18846,38.5813819 174.991652,38.9344262 171.545303,38.9344262 L159.292555,38.9344262 C158.289337,38.9344262 157.786885,38.4286223 157.786885,37.4170144 L157.786885,2.542002 C157.786885,1.53039411 158.289337,1.02459016 159.292555,1.02459016 L171.545303,1.02459016 L171.545303,1.02459016 Z" id="Fill-4"></path>
                <path d="M206.42307,38.9344262 C205.420274,38.9344262 204.918033,38.4286223 204.918033,37.4170144 L204.918033,2.542002 C204.918033,1.53039411 205.420274,1.02459016 206.42307,1.02459016 L233.12611,1.02459016 C234.128907,1.02459016 234.631148,1.53039411 234.631148,2.542002 L234.631148,10.1239692 C234.631148,11.1355771 234.128907,11.6379864 233.12611,11.6379864 L218.518988,11.6379864 L218.518988,15.5333557 L232.623869,15.5333557 C233.628351,15.5333557 234.128907,16.0391597 234.128907,17.0473729 L234.128907,23.0117859 C234.128907,24.0233938 233.628351,24.5291977 232.623869,24.5291977 L218.518988,24.5291977 L218.518988,28.3227273 L233.12611,28.3227273 C234.128907,28.3227273 234.631148,28.8234393 234.631148,29.8350472 L234.631148,37.4170144 C234.631148,38.4286223 234.128907,38.9344262 233.12611,38.9344262 L206.42307,38.9344262" id="Fill-5"></path>
                <path d="M261.368927,15.9279514 C262.372402,15.9279514 263.204428,15.7191103 263.873411,15.2946366 C264.539032,14.8752566 264.873524,14.1587449 264.873524,13.1467996 C264.873524,12.1348543 264.623075,11.4183427 264.123859,10.9989627 C263.622963,10.5795827 262.989278,10.3656479 262.221124,10.3656479 C261.251267,10.3656479 260.469666,10.7884237 259.867918,11.6288817 C259.26785,12.4727354 258.966976,13.9040607 258.966976,15.9279514 L261.368927,15.9279514 Z M262.619488,0 C268.092373,0 272.131484,1.00345584 274.735138,3.00866963 C277.338793,5.01558131 278.63978,7.71862987 278.63978,11.1263048 C278.63978,12.2706859 278.480098,13.3488491 278.162415,14.3607944 C277.844732,15.3727397 277.429559,16.2828114 276.911854,17.0927072 C276.394149,17.8992072 275.794081,18.5902504 275.10997,19.162441 C274.42586,19.7397252 273.716536,20.1743863 272.983681,20.4800074 C273.851005,20.7839306 274.635967,21.2033106 275.335206,21.7432411 C276.036125,22.2814738 276.637874,22.9810065 277.137089,23.8418391 C277.637986,24.7009739 278.019542,25.7383877 278.28848,26.9523825 C278.555737,28.1663773 278.688525,29.5977026 278.688525,31.2480564 L278.688525,37.4165083 C278.688525,38.4284536 278.189309,38.9344262 277.187515,38.9344262 L266.224936,38.9344262 C265.223143,38.9344262 264.723927,38.4284536 264.723927,37.4165083 L264.473479,28.1120446 C264.439861,26.9693614 264.071753,26.2205898 263.372514,25.8657298 C262.671595,25.5125676 261.836207,25.3342887 260.868031,25.3342887 L258.966976,25.3342887 L258.966976,37.4165083 C258.966976,38.4284536 258.46776,38.9344262 257.464286,38.9344262 L247.402649,38.9344262 C246.402536,38.9344262 245.901639,38.4284536 245.901639,37.4165083 L245.901639,18.9603915 C245.901639,17.6818767 245.958789,16.3320503 246.07813,14.916006 C246.194109,13.4999618 246.436153,12.0856154 246.802581,10.6695711 C247.17069,9.2535268 247.720332,7.9053983 248.454868,6.62518561 C249.189405,5.34497291 250.172709,4.21417496 251.408142,3.23788543 C252.641894,2.25989801 254.178202,1.4771685 256.013702,0.884603204 C257.847522,0.2954337 260.051132,0 262.619488,0 L262.619488,0 Z" id="Fill-6"></path>
                <path d="M290.430016,38.9344262 C289.433514,38.9344262 288.934426,38.4286223 288.934426,37.4170144 L288.934426,2.542002 C288.934426,1.53039411 289.433514,1.02459016 290.430016,1.02459016 L300.954412,1.02459016 C301.950913,1.02459016 302.450001,1.53039411 302.450001,2.542002 L302.450001,14.7220326 L311.277832,14.7220326 L311.277832,2.542002 C311.277832,1.53039411 311.778595,1.02459016 312.773422,1.02459016 L323.299492,1.02459016 C324.295994,1.02459016 324.795082,1.53039411 324.795082,2.542002 L324.795082,37.4170144 C324.795082,38.4286223 324.295994,38.9344262 323.299492,38.9344262 L312.773422,38.9344262 C311.778595,38.9344262 311.277832,38.4286223 311.277832,37.4170144 L311.277832,25.3388235 L302.450001,25.3388235 L302.450001,37.4170144 C302.450001,38.4286223 301.950913,38.9344262 300.954412,38.9344262 L290.430016,38.9344262" id="Fill-7"></path>
                <path d="M363.061938,20.9539946 C363.061938,19.6699798 362.930828,18.4844741 362.668609,17.3855884 C362.40307,16.291798 361.991486,15.3406759 361.430535,14.5288253 C360.869585,13.7220699 360.154291,13.0885547 359.281333,12.6316764 C358.408375,12.1798934 357.344561,11.9489066 356.093211,11.9489066 C354.840201,11.9489066 353.779706,12.1798934 352.906748,12.6316764 C352.03379,13.0885547 351.315177,13.7220699 350.755886,14.5288253 C350.194936,15.3406759 349.783351,16.291798 349.519472,17.3855884 C349.255593,18.4844741 349.126143,19.6699798 349.126143,20.9539946 C349.126143,22.2346126 349.255593,23.4252136 349.519472,24.519004 C349.783351,25.6144928 350.194936,26.5690117 350.755886,27.3757671 C351.315177,28.1876177 352.03379,28.8296251 352.906748,29.2983924 C353.779706,29.772255 354.840201,30.0066387 356.093211,30.0066387 C357.344561,30.0066387 358.408375,29.772255 359.281333,29.2983924 C360.154291,28.8296251 360.869585,28.1876177 361.430535,27.3757671 C361.991486,26.5690117 362.40307,25.6144928 362.668609,24.519004 C362.930828,23.4252136 363.061938,22.2346126 363.061938,20.9539946 Z M377.04918,20.4971163 C377.04918,23.7699953 376.546317,26.676013 375.542249,29.2236614 C374.536522,31.767913 373.095975,33.9198267 371.21729,35.6743072 C369.338605,37.4270894 367.073229,38.7484697 364.421163,39.6418451 C361.769097,40.5352204 358.813321,40.9836066 355.550516,40.9836066 C352.651168,40.9836066 349.955951,40.5522048 347.469847,39.6910996 C344.980423,38.8350897 342.814624,37.5680592 340.970791,35.9001987 C339.125298,34.2289414 337.674794,32.192521 336.620938,29.7790488 C335.567082,27.3672749 335.040984,24.6141162 335.040984,21.5110804 C335.040984,18.2704716 335.583678,15.3814383 336.670726,12.8337898 C337.757775,10.2895383 339.258068,8.14102144 341.168285,6.38823932 C343.078503,4.63375877 345.345538,3.30048943 347.962753,2.39012972 C350.583286,1.48146845 353.441145,1.02459016 356.537988,1.02459016 C359.568446,1.02459016 362.346643,1.44070607 364.86594,2.2627473 C367.388556,3.08988382 369.546057,4.32124723 371.341761,5.95513909 C373.137466,7.59412625 374.536522,9.62375283 375.542249,12.0508126 C376.546317,14.4795707 377.04918,17.2955715 377.04918,20.4971163 L377.04918,20.4971163 Z" id="Fill-8"></path>
                <path d="M421.106557,37.4291531 C421.106557,38.4410984 420.604758,38.9470711 419.59778,38.9470711 L415.672932,38.9470711 C414.667644,38.9470711 414.164155,38.4410984 414.164155,37.4291531 L414.164155,34.347474 C413.628565,35.0877561 412.996669,35.7957783 412.276917,36.4698425 C411.555475,37.1456047 410.715763,37.7415658 409.761162,38.2645174 C408.80656,38.787469 407.740448,39.1983595 406.566204,39.5022827 C405.391959,39.8079038 404.067344,39.9590164 402.590669,39.9590164 C397.425684,39.9590164 393.583624,38.5854195 391.06787,35.8365278 C388.553804,33.0910318 387.295082,29.3217053 387.295082,24.5370377 L387.295082,2.54250814 C387.295082,1.53056282 387.798571,1.02459016 388.805549,1.02459016 L398.917565,1.02459016 C399.924543,1.02459016 400.428032,1.53056282 400.428032,2.54250814 L400.678087,25.548983 C400.713568,26.8291957 401.073444,27.7375694 401.761095,28.2775 C402.447056,28.8157327 403.295215,29.0873958 404.302193,29.0873958 C405.307481,29.0873958 406.155641,28.8157327 406.843292,28.2775 C407.530943,27.7375694 407.890819,26.8291957 407.92292,25.548983 L408.176354,2.54250814 C408.176354,1.53056282 408.679843,1.02459016 409.686821,1.02459016 L419.59778,1.02459016 C420.604758,1.02459016 421.106557,1.53056282 421.106557,2.54250814 L421.106557,37.4291531" id="Fill-9"></path>
                <path d="M459.287357,1.8839969 C460.035571,1.98760127 460.408822,2.47674977 460.408822,3.34974396 L460.408822,12.001558 C460.408822,12.9441879 459.90031,13.2991603 458.879862,13.0647766 C458.234378,12.8949334 457.434799,12.7013121 456.482837,12.4788175 C455.530876,12.2614182 454.51214,12.0508126 453.424918,11.8503976 C452.335984,11.6482841 451.212806,11.4801393 450.05881,11.3442647 C448.901389,11.2083902 447.814167,11.1421513 446.795431,11.1421513 C444.756248,11.1421513 443.7358,11.714523 443.7358,12.8626632 C443.7358,13.6694185 444.254585,14.2536792 445.292154,14.6069532 C446.328012,14.9619255 447.612132,15.3236916 449.141092,15.6939498 C450.498835,16.0319378 451.93705,16.4429585 453.448888,16.9338054 C454.962439,17.4229539 456.356137,18.122708 457.629985,19.0330677 C458.903833,19.941729 459.967085,21.1153457 460.816316,22.5471241 C461.665548,23.9806009 462.090164,25.8081141 462.090164,28.0347588 C462.090164,32.6527962 460.706738,35.9664376 457.936462,37.975683 C455.166186,39.9798331 451.23164,40.9836066 446.132825,40.9836066 C444.603866,40.9836066 443.131407,40.9513363 441.720587,40.8817006 C440.309766,40.8154618 438.994827,40.7373339 437.770632,40.6541107 C436.546437,40.5674906 435.457503,40.4774737 434.507253,40.3755678 C433.555292,40.2753603 432.789956,40.1887402 432.212958,40.1241998 C431.464744,40.0205955 431.08978,39.5348438 431.08978,38.6584528 L431.08978,30.0066387 C431.08978,29.0300401 431.601716,28.6767662 432.622164,28.9434201 C433.30018,29.1132633 434.159685,29.3068846 435.197254,29.5293792 C436.231399,29.7467786 437.337455,29.9573842 438.510285,30.1577992 C439.681403,30.3599126 440.873067,30.5297558 442.078428,30.663932 C443.285502,30.7998066 444.41724,30.8660454 445.470219,30.8660454 C446.353694,30.8660454 447.084787,30.750552 447.661785,30.5127715 C448.240495,30.2783879 448.528138,29.7230005 448.528138,28.844911 C448.528138,28.1043945 448.07784,27.552404 447.177243,27.1991301 C446.276647,26.8441578 445.155181,26.5163603 443.812847,26.2157378 C442.470513,25.91002 441.008328,25.5482539 439.426291,25.1236459 C437.847679,24.7041331 436.385494,24.0468398 435.04316,23.1534644 C433.699113,22.260089 432.577648,21.0372178 431.677052,19.4848507 C430.776455,17.9375789 430.327869,15.8960633 430.327869,13.368796 C430.327869,11.1421513 430.742212,9.25179616 431.576034,7.70112748 C432.408144,6.15385567 433.596384,4.87663459 435.144177,3.88475013 C436.690258,2.88946881 438.542816,2.16423823 440.701851,1.70735994 C442.860886,1.25557695 445.26476,1.02459016 447.916897,1.02459016 C448.868858,1.02459016 449.887594,1.05686038 450.976528,1.1264961 C452.06375,1.19273496 453.12529,1.27086285 454.162859,1.35408603 C455.200429,1.44070607 456.1678,1.53072299 457.070108,1.63432735 C457.970705,1.73283643 458.708646,1.81945647 459.287357,1.8839969" id="Fill-10"></path>
                <path d="M471.792008,38.9344262 C470.789155,38.9344262 470.286885,38.4286223 470.286885,37.4170144 L470.286885,2.542002 C470.286885,1.53039411 470.789155,1.02459016 471.792008,1.02459016 L498.494877,1.02459016 C499.497731,1.02459016 500,1.53039411 500,2.542002 L500,10.1239692 C500,11.1355771 499.497731,11.6379864 498.494877,11.6379864 L483.888612,11.6379864 L483.888612,15.5333557 L497.992608,15.5333557 C498.997147,15.5333557 499.497731,16.0391597 499.497731,17.0473729 L499.497731,23.0117859 C499.497731,24.0233938 498.997147,24.5291977 497.992608,24.5291977 L483.888612,24.5291977 L483.888612,28.32103 L498.494877,28.32103 C499.497731,28.32103 500,28.8234393 500,29.8350472 L500,37.4170144 C500,38.4286223 499.497731,38.9344262 498.494877,38.9344262 L471.792008,38.9344262" id="Fill-11"></path>
                <path d="M107.15536,24.90261 C107.188784,26.1501466 107.536387,27.0378495 108.199841,27.5606267 C108.859952,28.0867986 109.677154,28.3498846 110.646432,28.3498846 C111.615709,28.3498846 112.432911,28.0867986 113.094694,27.5606267 C113.758147,27.0378495 114.104079,26.1501466 114.135832,24.90261 L114.378151,2.50126612 C114.378151,1.51851281 114.864461,1.02459016 115.833739,1.02459016 L125.140476,1.02459016 C126.111425,1.02459016 126.594393,1.51851281 126.594393,2.50126612 L126.836713,24.90261 C126.868465,26.1501466 127.217739,27.0378495 127.879522,27.5606267 C128.541304,28.0867986 129.356835,28.3498846 130.327784,28.3498846 C131.29539,28.3498846 132.112592,28.0867986 132.776046,27.5606267 C133.437828,27.0378495 133.785431,26.1501466 133.817184,24.90261 L133.962575,10.6246812 L131.7817,10.6246812 C130.812423,10.6246812 130.327784,10.1341532 130.327784,9.14800523 L130.327784,2.50126612 C130.327784,1.51851281 130.812423,1.02459016 131.7817,1.02459016 L145.062477,1.02459016 C146.031755,1.02459016 146.516393,1.51851281 146.516393,2.50126612 L146.516393,23.9181594 C146.516393,26.2485917 146.208898,28.3413979 145.59558,30.1948809 C144.982261,32.0500611 144.004627,33.6251821 142.662679,34.9219412 C141.322402,36.2187003 139.61781,37.2099403 137.550574,37.8990557 C135.481667,38.5881712 132.994969,38.9344262 130.085464,38.9344262 C128.049981,38.9344262 126.164903,38.654367 124.438586,38.0976432 C122.708926,37.5375247 121.343582,36.8008841 120.34088,35.8809319 C119.308098,36.8008841 117.917686,37.5375247 116.172986,38.0976432 C114.428286,38.654367 112.504771,38.9344262 110.404112,38.9344262 C107.559783,38.9344262 105.119877,38.5881712 103.084394,37.8990557 C101.048911,37.2099403 99.3760709,36.2187003 98.0675459,34.9219412 C96.7590209,33.6251821 95.7964278,32.0500611 95.183109,30.1948809 C94.5697901,28.3413979 94.2622951,26.2485917 94.2622951,23.9181594 L94.2622951,2.50126612 C94.2622951,1.51851281 94.746934,1.02459016 95.7178829,1.02459016 L105.459124,1.02459016 C106.430073,1.02459016 106.914712,1.51851281 106.914712,2.50126612 L107.15536,24.90261" id="Fill-19"></path>
            </g>
        </g>
    </g>
</svg>