<?xml version="1.0" encoding="UTF-8"?>

<svg viewBox="0 0 183 183" version="1.1" xmlns="http://www.w3.org/2000/svg" xmlns:xlink="http://www.w3.org/1999/xlink">
    <title>Powderhouse Studios Logo</title>
    <desc></desc>
    <defs>
    </defs>
    <g id="Page-1" stroke="none" stroke-width="1" fill='#F4F4F4' fill-rule="evenodd">
        <g id="PHS_ID_R01_LOGO-LOCKUP" transform="translate(0.000000, -41.000000)">
            <path d="M165.634,92.288 C167.397,91.458 169.16,90.628 170.924,89.798 C171.932,89.323 173.17,89.118 173.796,90.325 C174.147,91 173.993,95.23 173.993,96.471 C173.993,97.219 174.149,98.242 173.777,98.925 C172.508,101.26 169.686,98.435 168.449,97.547 C167.496,96.862 166.528,96.194 165.588,95.492 C164.497,94.678 164.164,92.981 165.634,92.288 Z M154.92,98.337 C155.945,99.072 160.329,101.981 161.031,102.894 C161.993,104.145 160.589,105.558 159.213,105.578 C158.021,105.595 149.306,105.578 146.141,105.578 C145.06,105.578 143.882,105.503 143.59,104.196 C143.264,102.738 144.568,102.207 145.623,101.71 C147.328,100.908 149.033,100.105 150.738,99.302 C151.87,98.769 153.695,97.457 154.92,98.337 Z M101.263,95.476 C102.915,97.471 104.566,99.466 106.217,101.461 C106.888,102.272 107.923,103.168 107.554,104.339 C107.136,105.661 105.861,105.578 104.76,105.578 C101.821,105.578 98.881,105.578 95.942,105.578 C94.787,105.578 93.419,105.519 93.215,104.05 C93.071,103.015 94.103,101.943 94.647,101.149 C95.662,99.665 96.678,98.182 97.694,96.698 C98.481,95.547 99.87,93.793 101.263,95.476 Z M28.242,92.353 C36.103,95.483 43.963,98.614 51.824,101.745 C52.172,101.884 52.546,101.999 52.882,102.167 C54.518,102.98 54.238,105.578 52.228,105.578 L18.522,105.578 C16.98,105.578 16.177,103.742 17.223,102.61 L26.288,92.796 C26.785,92.258 27.562,92.082 28.242,92.353 Z M23.695,81.356 L18.082,79.121 C16.699,78.57 16.574,76.661 17.873,75.934 L33.757,67.05 C35.64,65.997 37.079,68.406 35.837,69.883 C35.164,70.683 34.41,71.428 33.7,72.196 C31.421,74.664 29.141,77.132 26.861,79.6 C26.044,80.484 25.101,81.916 23.695,81.356 Z M93.354,87.931 C90.454,92.167 87.555,96.402 84.655,100.638 C83.744,101.97 82.604,104.648 80.623,104.03 C79.645,103.725 78.691,103.261 77.74,102.882 C66.606,98.447 39.82,87.779 37.562,86.879 C36.197,86.336 33.189,85.325 35.062,83.297 L63.015,51.272 C63.741,50.486 64.994,50.52 65.677,51.344 L93.257,85.804 C93.76,86.412 93.799,87.28 93.354,87.931 Z M97.624,77.698 C94.502,73.926 91.38,70.155 88.257,66.383 C86.395,64.133 84.532,61.883 82.67,59.633 C82.259,59.137 81.812,58.654 81.43,58.135 C80.489,56.855 81.277,54.946 83.021,55.193 C84.519,55.405 102.556,61.52 105.351,62.428 C106.885,62.926 109.826,63.525 108.472,65.843 C107.057,68.267 101.898,75.449 101.008,76.748 C100.245,77.863 98.881,79.216 97.624,77.698 Z M143.421,93.315 C136.796,96.434 130.171,99.554 123.546,102.673 C122.713,103.065 121.882,103.535 121.02,103.862 C119.515,104.434 118.767,103.239 117.951,102.253 C115.179,98.904 107.387,89.491 106.263,88.134 C105.476,87.182 104.859,86.301 105.664,85.053 C107.812,81.726 110.146,78.506 112.383,75.238 C113.164,74.096 113.889,72.872 114.746,71.785 C115.707,70.565 116.841,70.99 117.86,71.722 C120.624,73.707 141.814,88.714 143.693,90.274 C144.693,91.104 144.69,92.718 143.421,93.315 Z M142.085,74.362 C145.273,75.397 158.867,79.603 162.35,80.945 C163.255,81.294 163.87,82.093 163.612,83.105 C163.387,83.988 162.612,84.279 161.878,84.625 C159.965,85.526 158.067,86.48 156.131,87.331 C154.685,87.967 153.729,86.975 152.626,86.183 C150.799,84.871 148.972,83.559 147.145,82.247 C145.196,80.848 143.248,79.448 141.299,78.049 C140.867,77.739 140.294,77.42 140.01,76.959 C139.161,75.583 140.576,73.872 142.085,74.362 Z M11.421,85.653 L16.229,87.568 C17.382,88.027 17.716,89.5 16.874,90.411 L12.066,95.617 C10.974,96.799 8.998,96.026 8.998,94.417 L8.998,87.296 C8.998,86.046 10.26,85.191 11.421,85.653 Z M59.281,42.996 L2.99,74.481 C0.318,76.104 0.465,79.151 0.465,79.151 L0.465,109.845 C0.465,109.872 0.468,109.898 0.469,109.926 C0.469,109.926 0.35,114.112 4.73,114.112 L178.246,114.112 C180.573,114.112 182.526,112.173 182.526,109.845 L182.526,81.628 C182.523,81.54 182.519,81.452 182.516,81.364 C182.409,79.638 181.225,78.104 179.578,77.57 L69.551,41.825 C64.319,39.999 59.281,42.996 59.281,42.996 L59.281,42.996 Z" id="Fill-1"></path>
        </g>
    </g>
</svg>