<?xml version="1.0" encoding="UTF-8"?>
<svg width="30px" height="21px" viewBox="0 0 30 21" version="1.1" xmlns="http://www.w3.org/2000/svg" xmlns:xlink="http://www.w3.org/1999/xlink">
    <!-- Generator: Sketch 46.2 (44496) - http://www.bohemiancoding.com/sketch -->
    <title>sc-skype</title>
    <desc>Created with Sketch.</desc>
    <defs></defs>
    <g id="Page-1" stroke="none" stroke-width="1" fill="none" fill-rule="evenodd">
        <g id="Icon-YouTube" fill="#000000">
            <path d="M29.7,4.552 C29.7,4.552 29.407,2.485 28.508,1.574 C27.367,0.379 26.088,0.373 25.502,0.304 C21.304,0 15.006,0 15.006,0 L14.993,0 C14.993,0 8.696,0 4.498,0.304 C3.912,0.373 2.633,0.379 1.492,1.574 C0.593,2.485 0.3,4.552 0.3,4.552 C0.3,4.552 0,6.98 0,9.407 L0,11.583 C0,14.011 0.3,16.438 0.3,16.438 C0.3,16.438 0.593,18.506 1.492,19.416 C2.633,20.611 4.132,20.573 4.8,20.699 C7.2,20.929 15,21 15,21 C15,21 21.304,20.99 25.502,20.687 C26.088,20.617 27.367,20.611 28.508,19.416 C29.407,18.506 29.7,16.438 29.7,16.438 C29.7,16.438 30,14.011 30,11.583 L30,9.407 C30,6.98 29.7,4.552 29.7,4.552 L29.7,4.552 Z M11.903,14.441 L11.901,6.012 L20.008,10.242 L11.903,14.441 L11.903,14.441 Z" id="Fill-11"></path>
        </g>
    </g>
</svg>