<?xml version="1.0" encoding="UTF-8" standalone="no"?>
<svg
   xmlns:dc="http://purl.org/dc/elements/1.1/"
   xmlns:cc="http://creativecommons.org/ns#"
   xmlns:rdf="http://www.w3.org/1999/02/22-rdf-syntax-ns#"
   xmlns:svg="http://www.w3.org/2000/svg"
   xmlns="http://www.w3.org/2000/svg"
   viewBox="0 0 134.98666 134.98666"
   height="134.98666"
   width="134.98666"
   xml:space="preserve"
   id="svg2"
   version="1.1"><metadata
     id="metadata8"><rdf:RDF><cc:Work
         rdf:about=""><dc:format>image/svg+xml</dc:format><dc:type
           rdf:resource="http://purl.org/dc/dcmitype/StillImage" /></cc:Work></rdf:RDF></metadata><defs
     id="defs6" /><g
     transform="matrix(1.3333333,0,0,-1.3333333,0,134.98667)"
     id="g10"><g
       transform="scale(0.1)"
       id="g12"><path
         id="path14"
         style="fill:#f03a2b;fill-opacity:1;fill-rule:nonzero;stroke:none"
         d="M 0,0 H 1012.4 V 1012.4 H 0 Z" /><path
         id="path16"
         style="fill:#ffffff;fill-opacity:1;fill-rule:nonzero;stroke:none"
         d="m 768.656,701.957 c 6.004,2.824 12.008,5.652 18.012,8.481 3.434,1.617 7.648,2.316 9.781,-1.793 1.196,-2.301 0.672,-16.707 0.672,-20.93 0,-2.551 0.531,-6.031 -0.734,-8.36 -4.324,-7.949 -13.934,1.672 -18.145,4.696 -3.246,2.332 -6.539,4.609 -9.742,7 -3.715,2.769 -4.848,8.547 0.156,10.906 z m -36.48,-20.598 c 3.488,-2.504 18.418,-12.406 20.804,-15.515 3.278,-4.258 -1.503,-9.074 -6.187,-9.141 -4.059,-0.058 -33.734,0 -44.512,0 -3.683,0 -7.691,0.258 -8.687,4.707 -1.11,4.965 3.332,6.774 6.922,8.465 5.804,2.73 11.613,5.465 17.418,8.199 3.855,1.817 10.07,6.285 14.242,3.285 z m -182.711,9.743 c 5.625,-6.793 11.246,-13.586 16.871,-20.379 2.285,-2.762 5.805,-5.813 4.551,-9.797 -1.422,-4.504 -5.766,-4.223 -9.516,-4.223 -10.008,0 -20.016,0 -30.027,0 -3.934,0 -8.59,0.199 -9.285,5.203 -0.489,3.524 3.027,7.176 4.875,9.879 3.461,5.051 6.918,10.106 10.375,15.156 2.683,3.918 7.414,9.891 12.156,4.161 z m -248.649,10.636 c 26.77,-10.66 53.536,-21.32 80.301,-31.98 1.184,-0.477 2.461,-0.867 3.606,-1.438 5.57,-2.773 4.617,-11.617 -2.231,-11.617 H 267.719 c -5.25,0 -7.985,6.25 -4.422,10.11 l 30.867,33.417 c 1.691,1.829 4.34,2.43 6.652,1.508 z m -15.484,37.446 -19.109,7.613 c -4.711,1.875 -5.137,8.375 -0.711,10.848 l 54.086,30.253 c 6.41,3.586 11.308,-4.621 7.082,-9.644 -2.293,-2.727 -4.86,-5.266 -7.278,-7.879 -7.761,-8.402 -15.523,-16.809 -23.285,-25.211 -2.781,-3.012 -5.996,-7.891 -10.785,-5.98 z m 237.199,-22.387 c -9.871,-14.426 -19.746,-28.848 -29.617,-43.274 -3.105,-4.535 -6.984,-13.652 -13.73,-11.55 -3.332,1.039 -6.582,2.621 -9.821,3.91 -37.91,15.101 -129.121,51.43 -136.808,54.492 -4.649,1.852 -14.891,5.293 -8.512,12.195 l 95.184,109.055 c 2.468,2.676 6.738,2.559 9.058,-0.246 l 93.918,-117.344 c 1.711,-2.066 1.848,-5.023 0.328,-7.238 z m 14.543,34.844 c -10.633,12.839 -21.261,25.683 -31.894,38.527 -6.344,7.66 -12.688,15.324 -19.028,22.984 -1.398,1.692 -2.922,3.332 -4.222,5.102 -3.203,4.359 -0.52,10.859 5.418,10.019 5.101,-0.722 66.519,-21.546 76.039,-24.636 5.218,-1.699 15.238,-3.735 10.625,-11.633 -4.821,-8.25 -22.387,-32.707 -25.414,-37.133 -2.602,-3.793 -7.246,-8.402 -11.524,-3.23 z m 155.946,-53.18 c -22.559,-10.621 -45.122,-21.246 -67.68,-31.867 -2.836,-1.336 -5.664,-2.934 -8.598,-4.047 -5.129,-1.949 -7.672,2.121 -10.453,5.48 -9.437,11.403 -35.973,43.453 -39.801,48.078 -2.679,3.239 -4.777,6.239 -2.039,10.489 7.313,11.328 15.262,22.293 22.879,33.422 2.66,3.886 5.133,8.054 8.051,11.757 3.269,4.153 7.133,2.707 10.601,0.215 9.411,-6.761 81.567,-57.859 87.965,-63.172 3.407,-2.828 3.395,-8.32 -0.925,-10.355 z M 688.469,763 c 10.855,-3.527 57.144,-17.848 69.008,-22.418 3.082,-1.187 5.175,-3.91 4.293,-7.355 -0.766,-3.008 -3.403,-3.997 -5.903,-5.176 -6.515,-3.067 -12.976,-6.317 -19.57,-9.211 -4.926,-2.168 -8.18,1.211 -11.934,3.906 -6.222,4.469 -12.441,8.934 -18.664,13.402 -6.636,4.766 -13.269,9.532 -19.906,14.293 -1.473,1.059 -3.422,2.145 -4.391,3.715 -2.886,4.684 1.93,10.512 7.067,8.844 z m -444.93,-38.449 16.375,-6.524 c 3.926,-1.562 5.063,-6.574 2.195,-9.679 l -16.375,-17.727 c -3.718,-4.023 -10.445,-1.394 -10.445,4.09 v 24.246 c 0,4.254 4.297,7.168 8.25,5.594 z M 406.508,869.805 214.832,762.594 c -9.102,-5.528 -8.602,-15.903 -8.602,-15.903 V 642.176 c 0,-0.094 0.012,-0.184 0.016,-0.278 0,0 -0.402,-14.253 14.512,-14.253 v 0 h 590.844 c 7.921,0 14.578,6.601 14.578,14.531 v 96.082 c -0.012,0.301 -0.028,0.597 -0.039,0.898 -0.364,5.875 -4.395,11.098 -10.004,12.918 L 441.48,873.793 c -17.816,6.219 -34.972,-3.988 -34.972,-3.988" /><path
         id="path18"
         style="fill:#ffffff;fill-opacity:1;fill-rule:nonzero;stroke:none"
         d="m 261.598,544.48 c 4.437,-0.542 7.527,-0.253 9.273,0.852 1.75,1.117 2.621,2.676 2.621,4.691 0,2.02 -0.504,3.45 -1.508,4.286 -1.007,0.836 -2.285,1.261 -3.832,1.261 -2.218,0 -3.867,-0.843 -4.937,-2.519 -1.078,-1.68 -1.617,-4.535 -1.617,-8.571 z m 7.765,31.754 c 5.645,0 10.414,-0.671 14.317,-2.015 3.894,-1.348 7.07,-3.176 9.523,-5.496 2.453,-2.317 4.235,-5.004 5.34,-8.067 1.113,-3.058 1.668,-6.265 1.668,-9.621 0,-4.98 -0.926,-9.172 -2.773,-12.601 -1.852,-3.43 -4.454,-6.168 -7.813,-8.219 -3.363,-2.051 -7.43,-3.43 -12.199,-4.137 -4.774,-0.707 -10.047,-0.82 -15.828,-0.351 v -24.086 c 0,-2.02 -1.004,-3.028 -3.024,-3.028 h -20.261 c -2.016,0 -3.024,1.008 -3.024,3.028 v 37.8 c 0,2.551 0.113,5.227 0.352,8.016 0.234,2.781 0.754,5.539 1.562,8.262 0.809,2.722 1.949,5.324 3.43,7.808 1.476,2.489 3.492,4.676 6.047,6.555 2.554,1.879 5.675,3.383 9.379,4.488 3.695,1.11 8.129,1.664 13.304,1.664" /><path
         id="path20"
         style="fill:#ffffff;fill-opacity:1;fill-rule:nonzero;stroke:none"
         d="m 373.813,536.516 c 0,2.558 -0.266,4.922 -0.801,7.113 -0.543,2.18 -1.379,4.074 -2.524,5.691 -1.144,1.61 -2.605,2.871 -4.386,3.782 -1.778,0.902 -3.95,1.363 -6.5,1.363 -2.555,0 -4.723,-0.461 -6.5,-1.363 -1.782,-0.911 -3.247,-2.172 -4.387,-3.782 -1.145,-1.617 -1.985,-3.511 -2.524,-5.691 -0.535,-2.191 -0.8,-4.555 -0.8,-7.113 0,-2.551 0.265,-4.922 0.8,-7.106 0.539,-2.183 1.379,-4.086 2.524,-5.695 1.14,-1.613 2.605,-2.895 4.387,-3.828 1.777,-0.946 3.945,-1.414 6.5,-1.414 2.55,0 4.722,0.468 6.5,1.414 1.781,0.933 3.242,2.215 4.386,3.828 1.145,1.609 1.981,3.512 2.524,5.695 0.535,2.184 0.801,4.555 0.801,7.106 z m 28.531,0.91 c 0,-6.524 -1.028,-12.317 -3.074,-17.395 -2.051,-5.066 -4.993,-9.359 -8.825,-12.851 -3.828,-3.496 -8.449,-6.129 -13.859,-7.91 -5.41,-1.782 -11.438,-2.676 -18.094,-2.676 -5.914,0 -11.41,0.863 -16.48,2.578 -5.078,1.707 -9.496,4.23 -13.254,7.555 -3.77,3.332 -6.727,7.39 -8.875,12.199 -2.149,4.808 -3.223,10.297 -3.223,16.48 0,6.457 1.106,12.215 3.324,17.293 2.215,5.071 5.278,9.352 9.172,12.848 3.899,3.492 8.524,6.152 13.864,7.965 5.343,1.812 11.171,2.722 17.488,2.722 6.18,0 11.847,-0.828 16.984,-2.468 5.145,-1.649 9.547,-4.102 13.207,-7.36 3.664,-3.261 6.52,-7.308 8.571,-12.148 2.046,-4.84 3.074,-10.449 3.074,-16.832" /><path
         id="path22"
         style="fill:#ffffff;fill-opacity:1;fill-rule:nonzero;stroke:none"
         d="m 519.691,500.523 c -0.265,-1.269 -1.242,-1.91 -2.918,-1.91 h -31.05 c -1.75,0 -2.719,0.641 -2.926,1.91 l -5.34,32.266 h -1.012 l -5.136,-32.266 c -0.204,-1.269 -1.18,-1.91 -2.926,-1.91 h -32.664 c -1.61,0 -2.582,0.641 -2.918,1.91 l -14.922,69.864 c -0.203,0.941 -0.117,1.812 0.254,2.625 0.367,0.804 1.226,1.207 2.57,1.207 h 22.68 c 1.746,0 2.722,-0.739 2.926,-2.215 l 6.851,-47.18 h 1.012 l 7.558,47.18 c 0.2,1.476 1.176,2.215 2.922,2.215 h 24.7 c 1.746,0 2.718,-0.739 2.925,-2.215 l 7.457,-47.18 h 1.008 l 6.856,47.18 c 0.199,1.476 1.175,2.215 2.922,2.215 h 20.664 c 1.343,0 2.199,-0.403 2.574,-1.207 0.363,-0.813 0.449,-1.684 0.25,-2.625 l -14.317,-69.864" /><path
         id="path24"
         style="fill:#ffffff;fill-opacity:1;fill-rule:nonzero;stroke:none"
         d="m 600.711,536.414 c 0,2.422 -0.27,4.652 -0.805,6.703 -0.539,2.051 -1.461,3.817 -2.773,5.293 -1.309,1.477 -3.063,2.641 -5.242,3.477 -2.188,0.847 -4.891,1.265 -8.114,1.265 h -3.429 v -33.375 h 3.429 c 3.223,0 5.926,0.426 8.114,1.266 2.179,0.836 3.933,1.984 5.242,3.43 1.312,1.441 2.234,3.187 2.773,5.242 0.535,2.051 0.805,4.281 0.805,6.699 z m -20.059,37.805 c 6.653,0 12.938,-0.59 18.852,-1.766 5.91,-1.172 11.051,-3.191 15.422,-6.047 4.367,-2.859 7.828,-6.636 10.383,-11.343 2.55,-4.7 3.828,-10.583 3.828,-17.637 0,-7.059 -1.227,-13.055 -3.676,-18 -2.453,-4.938 -5.852,-8.934 -10.184,-11.992 -4.336,-3.063 -9.461,-5.293 -15.371,-6.704 -5.918,-1.41 -12.336,-2.117 -19.254,-2.117 h -24.601 c -2.012,0 -3.024,1.008 -3.024,3.028 v 69.55 c 0,2.02 1.012,3.028 3.024,3.028 h 24.601" /><path
         id="path26"
         style="fill:#ffffff;fill-opacity:1;fill-rule:nonzero;stroke:none"
         d="m 651.363,498.613 c -2.015,0 -3.023,1.008 -3.023,3.028 v 69.55 c 0,2.02 1.008,3.028 3.023,3.028 h 53.629 c 2.016,0 3.024,-1.008 3.024,-3.028 V 556.07 c 0,-2.015 -1.008,-3.019 -3.024,-3.019 h -29.336 v -7.766 h 28.328 c 2.02,0 3.024,-1.012 3.024,-3.019 v -11.899 c 0,-2.015 -1.004,-3.023 -3.024,-3.023 h -28.328 v -7.567 h 29.336 c 2.016,0 3.024,-1 3.024,-3.015 v -15.121 c 0,-2.02 -1.008,-3.028 -3.024,-3.028 h -53.629" /><path
         id="path28"
         style="fill:#ffffff;fill-opacity:1;fill-rule:nonzero;stroke:none"
         d="m 761.574,544.48 c 2.016,0 3.696,0.418 5.039,1.262 1.34,0.836 2.016,2.266 2.016,4.281 0,2.02 -0.504,3.45 -1.512,4.286 -1.008,0.836 -2.281,1.261 -3.832,1.261 -1.949,0 -3.523,-0.843 -4.734,-2.519 -1.211,-1.68 -1.817,-4.535 -1.817,-8.571 z m 2.516,31.754 c 11.023,0 19.156,-2 24.398,-5.996 5.242,-4.004 7.864,-9.39 7.864,-16.183 0,-2.282 -0.321,-4.434 -0.961,-6.45 -0.637,-2.019 -1.477,-3.832 -2.516,-5.449 -1.043,-1.605 -2.254,-2.984 -3.633,-4.125 -1.375,-1.148 -2.804,-2.015 -4.281,-2.625 1.75,-0.605 3.328,-1.441 4.738,-2.519 1.41,-1.074 2.621,-2.469 3.625,-4.184 1.012,-1.715 1.781,-3.781 2.321,-6.199 0.539,-2.422 0.804,-5.277 0.804,-8.566 v -12.297 c 0,-2.02 -1.004,-3.028 -3.019,-3.028 h -22.078 c -2.02,0 -3.024,1.008 -3.024,3.028 l -0.504,18.547 c -0.07,2.281 -0.808,3.773 -2.219,4.48 -1.41,0.703 -3.093,1.059 -5.042,1.059 h -3.829 v -24.086 c 0,-2.02 -1.007,-3.028 -3.023,-3.028 h -20.266 c -2.011,0 -3.019,1.008 -3.019,3.028 v 36.793 c 0,2.55 0.113,5.242 0.351,8.062 0.235,2.824 0.723,5.645 1.457,8.469 0.746,2.82 1.852,5.512 3.329,8.062 1.48,2.551 3.46,4.809 5.949,6.754 2.484,1.949 5.578,3.508 9.273,4.692 3.695,1.172 8.133,1.761 13.305,1.761" /><path
         id="path30"
         style="fill:#ffffff;fill-opacity:1;fill-rule:nonzero;stroke:none"
         d="m 238.313,377.641 c -2.016,0 -3.024,1.011 -3.024,3.031 v 69.547 c 0,2.019 1.008,3.027 3.024,3.027 h 21.273 c 2.012,0 3.019,-1.008 3.019,-3.027 V 425.93 h 17.844 v 24.289 c 0,2.019 1.012,3.027 3.024,3.027 h 21.273 c 2.012,0 3.024,-1.008 3.024,-3.027 v -69.547 c 0,-2.02 -1.012,-3.031 -3.024,-3.031 h -21.273 c -2.012,0 -3.024,1.011 -3.024,3.031 v 24.082 h -17.844 v -24.082 c 0,-2.02 -1.007,-3.031 -3.019,-3.031 h -21.273" /><path
         id="path32"
         style="fill:#ffffff;fill-opacity:1;fill-rule:nonzero;stroke:none"
         d="m 386.695,415.543 c 0,2.559 -0.265,4.922 -0.804,7.113 -0.539,2.184 -1.375,4.078 -2.524,5.692 -1.14,1.609 -2.601,2.871 -4.383,3.785 -1.781,0.898 -3.949,1.359 -6.5,1.359 -2.558,0 -4.722,-0.461 -6.504,-1.359 -1.781,-0.914 -3.242,-2.176 -4.382,-3.785 -1.145,-1.614 -1.989,-3.508 -2.524,-5.692 -0.539,-2.191 -0.804,-4.554 -0.804,-7.113 0,-2.551 0.265,-4.922 0.804,-7.105 0.535,-2.18 1.379,-4.086 2.524,-5.692 1.14,-1.617 2.601,-2.894 4.382,-3.832 1.782,-0.941 3.946,-1.41 6.504,-1.41 2.551,0 4.719,0.469 6.5,1.41 1.782,0.938 3.243,2.215 4.383,3.832 1.149,1.606 1.985,3.512 2.524,5.692 0.539,2.183 0.804,4.554 0.804,7.105 z m 28.528,0.91 c 0,-6.519 -1.024,-12.312 -3.071,-17.39 -2.05,-5.071 -4.992,-9.36 -8.824,-12.856 -3.832,-3.496 -8.449,-6.129 -13.859,-7.906 -5.41,-1.781 -11.442,-2.676 -18.094,-2.676 -5.914,0 -11.41,0.859 -16.48,2.574 -5.079,1.707 -9.497,4.235 -13.258,7.559 -3.766,3.328 -6.723,7.39 -8.871,12.195 -2.153,4.809 -3.227,10.297 -3.227,16.485 0,6.453 1.109,12.214 3.328,17.292 2.215,5.071 5.274,9.352 9.172,12.844 3.899,3.496 8.52,6.156 13.859,7.969 5.344,1.812 11.172,2.723 17.493,2.723 6.179,0 11.843,-0.828 16.984,-2.469 5.145,-1.649 9.543,-4.102 13.207,-7.359 3.664,-3.266 6.52,-7.309 8.57,-12.149 2.047,-4.844 3.071,-10.453 3.071,-16.836" /><path
         id="path34"
         style="fill:#ffffff;fill-opacity:1;fill-rule:nonzero;stroke:none"
         d="m 501.313,380.672 c 0,-2.02 -1.004,-3.031 -3.024,-3.031 h -7.863 c -2.016,0 -3.024,1.011 -3.024,3.031 v 6.141 c -1.074,-1.477 -2.336,-2.887 -3.781,-4.231 -1.441,-1.348 -3.125,-2.535 -5.043,-3.578 -1.91,-1.043 -4.047,-1.863 -6.398,-2.469 -2.352,-0.605 -5.008,-0.91 -7.965,-0.91 -10.348,0 -18.043,2.738 -23.086,8.219 -5.035,5.472 -7.559,12.988 -7.559,22.527 v 43.848 c 0,2.019 1.008,3.027 3.028,3.027 h 20.257 c 2.02,0 3.028,-1.008 3.028,-3.027 l 0.504,-45.867 c 0.066,-2.551 0.789,-4.364 2.168,-5.438 1.375,-1.074 3.074,-1.617 5.09,-1.617 2.015,0 3.71,0.543 5.089,1.617 1.379,1.074 2.102,2.887 2.168,5.438 l 0.504,45.867 c 0,2.019 1.008,3.027 3.028,3.027 h 19.855 c 2.02,0 3.024,-1.008 3.024,-3.027 v -69.547" /><path
         id="path36"
         style="fill:#ffffff;fill-opacity:1;fill-rule:nonzero;stroke:none"
         d="m 578.105,453.551 c 1.477,-0.203 2.215,-1.184 2.215,-2.922 v -17.242 c 0,-1.879 -1.004,-2.586 -3.019,-2.117 -1.278,0.335 -2.856,0.722 -4.738,1.164 -1.883,0.433 -3.899,0.855 -6.047,1.257 -2.153,0.403 -4.375,0.739 -6.653,1.008 -2.289,0.27 -4.437,0.403 -6.453,0.403 -4.031,0 -6.051,-1.141 -6.051,-3.43 0,-1.609 1.028,-2.774 3.079,-3.481 2.046,-0.703 4.585,-1.425 7.605,-2.164 2.687,-0.672 5.531,-1.492 8.52,-2.468 2.992,-0.977 5.75,-2.371 8.265,-4.184 2.52,-1.812 4.621,-4.152 6.301,-7.008 1.68,-2.855 2.519,-6.496 2.519,-10.933 0,-9.207 -2.738,-15.809 -8.21,-19.813 -5.481,-3.996 -13.258,-5.996 -23.34,-5.996 -3.024,0 -5.93,0.066 -8.723,0.203 -2.789,0.133 -5.387,0.289 -7.809,0.453 -2.418,0.172 -4.574,0.352 -6.453,0.559 -1.883,0.195 -3.394,0.367 -4.535,0.5 -1.48,0.203 -2.219,1.172 -2.219,2.918 v 17.246 c 0,1.945 1.008,2.648 3.028,2.117 1.34,-0.336 3.039,-0.723 5.09,-1.168 2.046,-0.433 4.234,-0.851 6.55,-1.254 2.317,-0.402 4.672,-0.738 7.055,-1.008 2.387,-0.269 4.621,-0.402 6.707,-0.402 1.746,0 3.191,0.231 4.332,0.703 1.145,0.469 1.715,1.578 1.715,3.324 0,1.477 -0.891,2.579 -2.672,3.282 -1.781,0.707 -4,1.363 -6.652,1.961 -2.657,0.605 -5.547,1.328 -8.672,2.175 -3.121,0.836 -6.012,2.149 -8.668,3.926 -2.656,1.781 -4.871,4.219 -6.652,7.313 -1.782,3.082 -2.668,7.152 -2.668,12.187 0,4.442 0.82,8.207 2.464,11.297 1.649,3.086 3.997,5.629 7.059,7.606 3.055,1.988 6.719,3.429 10.988,4.339 4.266,0.903 9.02,1.364 14.262,1.364 1.883,0 3.895,-0.067 6.051,-0.207 2.148,-0.129 4.25,-0.286 6.301,-0.45 2.05,-0.171 3.961,-0.351 5.746,-0.558 1.781,-0.196 3.238,-0.367 4.382,-0.5" /><path
         id="path38"
         style="fill:#ffffff;fill-opacity:1;fill-rule:nonzero;stroke:none"
         d="m 606.492,377.641 c -2.015,0 -3.023,1.011 -3.023,3.031 v 69.547 c 0,2.019 1.008,3.027 3.023,3.027 h 53.629 c 2.016,0 3.024,-1.008 3.024,-3.027 v -15.117 c 0,-2.02 -1.008,-3.02 -3.024,-3.02 h -29.336 v -7.769 h 28.328 c 2.02,0 3.024,-1.008 3.024,-3.02 v -11.895 c 0,-2.015 -1.004,-3.027 -3.024,-3.027 h -28.328 v -7.562 h 29.336 c 2.016,0 3.024,-1 3.024,-3.02 v -15.117 c 0,-2.02 -1.008,-3.031 -3.024,-3.031 h -53.629" /><path
         id="path40"
         style="fill:#ffffff;fill-opacity:1;fill-rule:nonzero;stroke:none"
         d="m 292.547,332.59 c 1.476,-0.207 2.215,-1.184 2.215,-2.922 v -17.246 c 0,-1.875 -1.004,-2.582 -3.024,-2.113 -1.273,0.336 -2.855,0.718 -4.738,1.164 -1.883,0.433 -3.895,0.851 -6.047,1.254 -2.152,0.402 -4.371,0.738 -6.652,1.007 -2.289,0.274 -4.438,0.403 -6.453,0.403 -4.032,0 -6.047,-1.141 -6.047,-3.426 0,-1.609 1.023,-2.773 3.074,-3.481 2.047,-0.707 4.586,-1.425 7.609,-2.164 2.688,-0.675 5.532,-1.496 8.52,-2.468 2.988,-0.981 5.746,-2.371 8.266,-4.188 2.519,-1.812 4.617,-4.148 6.3,-7.004 1.676,-2.855 2.52,-6.5 2.52,-10.937 0,-9.203 -2.738,-15.809 -8.215,-19.809 -5.48,-3.996 -13.258,-6 -23.34,-6 -3.019,0 -5.93,0.067 -8.719,0.207 -2.789,0.129 -5.39,0.285 -7.808,0.449 -2.422,0.172 -4.574,0.356 -6.453,0.559 -1.883,0.199 -3.399,0.371 -4.535,0.5 -1.485,0.207 -2.219,1.176 -2.219,2.922 v 17.242 c 0,1.945 1.008,2.652 3.023,2.117 1.344,-0.336 3.039,-0.722 5.09,-1.164 2.051,-0.433 4.234,-0.851 6.555,-1.254 2.316,-0.402 4.672,-0.738 7.054,-1.011 2.387,-0.27 4.622,-0.403 6.704,-0.403 1.75,0 3.195,0.231 4.332,0.707 1.144,0.469 1.714,1.574 1.714,3.324 0,1.477 -0.886,2.575 -2.668,3.282 -1.781,0.703 -4,1.359 -6.656,1.961 -2.652,0.605 -5.543,1.328 -8.672,2.172 -3.121,0.835 -6.011,2.152 -8.664,3.929 -2.66,1.781 -4.875,4.219 -6.652,7.309 -1.781,3.086 -2.672,7.156 -2.672,12.191 0,4.438 0.82,8.203 2.469,11.297 1.644,3.086 3.996,5.629 7.055,7.606 3.054,1.984 6.718,3.429 10.992,4.339 4.261,0.903 9.015,1.364 14.258,1.364 1.882,0 3.898,-0.067 6.05,-0.207 2.153,-0.133 4.25,-0.289 6.301,-0.453 2.051,-0.172 3.965,-0.352 5.746,-0.555 1.781,-0.199 3.242,-0.371 4.387,-0.5" /><path
         id="path42"
         style="fill:#ffffff;fill-opacity:1;fill-rule:nonzero;stroke:none"
         d="m 312.566,313.129 c 0,3.633 0.454,6.652 1.364,9.074 0.906,2.418 2.281,4.387 4.129,5.899 1.851,1.507 4.203,2.582 7.054,3.222 2.86,0.641 6.235,0.961 10.133,0.961 h 39.012 c 2.019,0 3.027,-1.012 3.027,-3.027 v -15.121 c 0,-2.016 -1.008,-3.02 -3.027,-3.02 h -15.621 v -51.41 c 0,-2.019 -1.012,-3.027 -3.024,-3.027 h -21.371 c -2.019,0 -3.027,1.008 -3.027,3.027 v 51.41 h -4.738 v -5.648 c 0,-2.012 -1.008,-3.02 -3.024,-3.02 h -7.863 c -2.012,0 -3.024,1.008 -3.024,3.02 v 7.66" /><path
         id="path44"
         style="fill:#ffffff;fill-opacity:1;fill-rule:nonzero;stroke:none"
         d="m 422.488,283.391 c 0.067,-2.551 0.789,-4.364 2.168,-5.438 1.375,-1.074 3.074,-1.617 5.09,-1.617 2.016,0 3.715,0.543 5.09,1.617 1.379,1.074 2.102,2.887 2.168,5.438 l 0.504,45.867 c 0,2.015 1.008,3.027 3.027,3.027 h 19.856 c 2.019,0 3.023,-1.012 3.023,-3.027 V 285.41 c 0,-4.777 -0.641,-9.058 -1.914,-12.855 -1.277,-3.797 -3.312,-7.024 -6.098,-9.672 -2.793,-2.66 -6.336,-4.695 -10.636,-6.106 -4.301,-1.41 -9.473,-2.117 -15.524,-2.117 -5.914,0 -10.988,0.707 -15.222,2.117 -4.235,1.411 -7.711,3.446 -10.434,6.106 -2.719,2.648 -4.723,5.875 -5.996,9.672 -1.277,3.797 -1.918,8.078 -1.918,12.855 v 43.848 c 0,2.015 1.012,3.027 3.027,3.027 h 20.262 c 2.016,0 3.023,-1.012 3.023,-3.027 l 0.504,-45.867" /><path
         id="path46"
         style="fill:#ffffff;fill-opacity:1;fill-rule:nonzero;stroke:none"
         d="m 530.949,294.48 c 0,2.422 -0.265,4.653 -0.804,6.704 -0.54,2.05 -1.461,3.816 -2.774,5.293 -1.308,1.476 -3.058,2.64 -5.242,3.476 -2.188,0.848 -4.891,1.266 -8.113,1.266 h -3.43 v -33.375 h 3.43 c 3.222,0 5.925,0.429 8.113,1.265 2.184,0.836 3.934,1.985 5.242,3.43 1.313,1.441 2.234,3.191 2.774,5.242 0.539,2.051 0.804,4.282 0.804,6.699 z m -20.058,37.805 c 6.652,0 12.937,-0.59 18.851,-1.765 5.91,-1.172 11.051,-3.192 15.422,-6.043 4.371,-2.864 7.828,-6.637 10.383,-11.348 2.551,-4.699 3.832,-10.582 3.832,-17.637 0,-7.054 -1.227,-13.054 -3.68,-18 -2.453,-4.937 -5.851,-8.933 -10.179,-11.992 -4.336,-3.062 -9.465,-5.293 -15.375,-6.703 -5.915,-1.41 -12.336,-2.117 -19.254,-2.117 h -24.598 c -2.016,0 -3.023,1.008 -3.023,3.027 v 69.551 c 0,2.015 1.007,3.027 3.023,3.027 h 24.598" /><path
         id="path48"
         style="fill:#ffffff;fill-opacity:1;fill-rule:nonzero;stroke:none"
         d="m 581.656,256.68 c -2.015,0 -3.023,1.008 -3.023,3.027 v 69.551 c 0,2.015 1.008,3.027 3.023,3.027 h 21.371 c 2.016,0 3.024,-1.012 3.024,-3.027 v -69.551 c 0,-2.019 -1.008,-3.027 -3.024,-3.027 h -21.371" /><path
         id="path50"
         style="fill:#ffffff;fill-opacity:1;fill-rule:nonzero;stroke:none"
         d="m 684.859,294.582 c 0,2.559 -0.269,4.922 -0.804,7.109 -0.543,2.184 -1.379,4.079 -2.524,5.696 -1.144,1.605 -2.605,2.871 -4.383,3.781 -1.781,0.902 -3.953,1.363 -6.503,1.363 -2.555,0 -4.719,-0.461 -6.5,-1.363 -1.782,-0.91 -3.247,-2.176 -4.387,-3.781 -1.145,-1.617 -1.985,-3.512 -2.524,-5.696 -0.535,-2.187 -0.8,-4.55 -0.8,-7.109 0,-2.555 0.265,-4.926 0.8,-7.105 0.539,-2.184 1.379,-4.086 2.524,-5.696 1.14,-1.613 2.605,-2.894 4.387,-3.828 1.781,-0.945 3.945,-1.414 6.5,-1.414 2.55,0 4.722,0.469 6.503,1.414 1.778,0.934 3.239,2.215 4.383,3.828 1.145,1.61 1.981,3.512 2.524,5.696 0.535,2.179 0.804,4.55 0.804,7.105 z m 28.528,0.91 c 0,-6.523 -1.028,-12.312 -3.074,-17.394 -2.051,-5.067 -4.993,-9.36 -8.825,-12.856 -3.828,-3.492 -8.445,-6.125 -13.855,-7.906 -5.414,-1.781 -11.442,-2.676 -18.098,-2.676 -5.914,0 -11.41,0.863 -16.476,2.578 -5.079,1.707 -9.496,4.235 -13.258,7.555 -3.766,3.332 -6.723,7.391 -8.875,12.199 -2.149,4.809 -3.223,10.297 -3.223,16.481 0,6.457 1.106,12.215 3.328,17.293 2.215,5.07 5.274,9.351 9.168,12.847 3.899,3.496 8.524,6.153 13.864,7.965 5.343,1.813 11.171,2.727 17.488,2.727 6.183,0 11.847,-0.832 16.984,-2.473 5.145,-1.648 9.547,-4.102 13.211,-7.355 3.66,-3.266 6.516,-7.313 8.567,-12.153 2.046,-4.84 3.074,-10.449 3.074,-16.832" /><path
         id="path52"
         style="fill:#ffffff;fill-opacity:1;fill-rule:nonzero;stroke:none"
         d="m 790.91,332.59 c 1.477,-0.207 2.215,-1.184 2.215,-2.922 v -17.246 c 0,-1.875 -1.008,-2.582 -3.023,-2.113 -1.278,0.336 -2.856,0.718 -4.739,1.164 -1.883,0.433 -3.894,0.851 -6.047,1.254 -2.152,0.402 -4.371,0.738 -6.652,1.007 -2.289,0.274 -4.437,0.403 -6.453,0.403 -4.031,0 -6.051,-1.141 -6.051,-3.426 0,-1.609 1.028,-2.773 3.078,-3.481 2.047,-0.707 4.586,-1.425 7.61,-2.164 2.687,-0.675 5.527,-1.496 8.519,-2.468 2.988,-0.981 5.746,-2.371 8.266,-4.188 2.515,-1.812 4.617,-4.148 6.301,-7.004 1.675,-2.855 2.515,-6.5 2.515,-10.937 0,-9.203 -2.734,-15.809 -8.211,-19.809 -5.48,-3.996 -13.258,-6 -23.34,-6 -3.023,0 -5.929,0.067 -8.718,0.207 -2.789,0.129 -5.391,0.285 -7.813,0.449 -2.418,0.172 -4.57,0.356 -6.449,0.559 -1.883,0.199 -3.398,0.371 -4.539,0.5 -1.481,0.207 -2.219,1.176 -2.219,2.922 v 17.242 c 0,1.945 1.012,2.652 3.028,2.117 1.339,-0.336 3.039,-0.722 5.089,-1.164 2.047,-0.433 4.235,-0.851 6.551,-1.254 2.32,-0.402 4.672,-0.738 7.055,-1.011 2.39,-0.27 4.625,-0.403 6.707,-0.403 1.75,0 3.191,0.231 4.332,0.707 1.144,0.469 1.715,1.574 1.715,3.324 0,1.477 -0.891,2.575 -2.668,3.282 -1.781,0.703 -4,1.359 -6.656,1.961 -2.653,0.605 -5.543,1.328 -8.672,2.172 -3.121,0.835 -6.012,2.152 -8.664,3.929 -2.661,1.781 -4.875,4.219 -6.657,7.309 -1.777,3.086 -2.668,7.156 -2.668,12.191 0,4.438 0.821,8.203 2.469,11.297 1.645,3.086 3.996,5.629 7.055,7.606 3.054,1.984 6.719,3.429 10.988,4.339 4.266,0.903 9.02,1.364 14.262,1.364 1.883,0 3.898,-0.067 6.051,-0.207 2.152,-0.133 4.25,-0.289 6.3,-0.453 2.051,-0.172 3.961,-0.352 5.746,-0.555 1.782,-0.199 3.243,-0.371 4.387,-0.5" /></g></g></svg>