<?xml version="1.0" encoding="UTF-8" standalone="no"?>
<svg
   xmlns:dc="http://purl.org/dc/elements/1.1/"
   xmlns:cc="http://creativecommons.org/ns#"
   xmlns:rdf="http://www.w3.org/1999/02/22-rdf-syntax-ns#"
   xmlns:svg="http://www.w3.org/2000/svg"
   xmlns="http://www.w3.org/2000/svg"
   viewBox="0 0 400.94666 159.94667"
   height="159.94667"
   width="400.94666"
   xml:space="preserve"
   id="svg2"
   version="1.1"><metadata
     id="metadata8"><rdf:RDF><cc:Work
         rdf:about=""><dc:format>image/svg+xml</dc:format><dc:type
           rdf:resource="http://purl.org/dc/dcmitype/StillImage" /></cc:Work></rdf:RDF></metadata><defs
     id="defs6" /><g
     transform="matrix(1.3333333,0,0,-1.3333333,0,159.94667)"
     id="g10"><g
       transform="scale(0.1)"
       id="g12"><path
         id="path14"
         style="fill:rgba(240, 78, 48, 0.875);fill-opacity:1;fill-rule:nonzero;stroke:none"
         d="m 2244.92,453.637 c 17.63,8.301 35.27,16.605 52.9,24.906 10.09,4.75 22.46,6.801 28.73,-5.27 3.5,-6.75 1.96,-49.058 1.96,-61.46 0,-7.485 1.57,-17.708 -2.15,-24.547 -12.7,-23.348 -40.92,4.91 -53.28,13.789 -9.54,6.847 -19.21,13.531 -28.62,20.55 -10.91,8.137 -14.24,25.11 0.46,32.032 z m -107.13,-60.481 c 10.24,-7.359 54.08,-36.445 61.1,-45.57 9.62,-12.512 -4.42,-26.648 -18.18,-26.844 -11.91,-0.172 -99.06,0 -130.72,0 -10.81,0 -22.58,0.754 -25.51,13.824 -3.26,14.579 9.78,19.883 20.33,24.852 17.05,8.027 34.1,16.055 51.15,24.082 11.33,5.332 29.57,18.453 41.83,9.656 z m -536.57,28.602 c 16.51,-19.949 33.02,-39.899 49.54,-59.848 6.71,-8.105 17.05,-17.07 13.36,-28.773 -4.17,-13.227 -16.92,-12.395 -27.94,-12.395 -29.39,0 -58.78,0 -88.18,0 -11.55,0 -25.23,0.586 -27.27,15.281 -1.44,10.348 8.89,21.071 14.32,29.008 10.16,14.836 20.31,29.672 30.47,44.512 7.88,11.508 21.76,29.043 35.7,12.215 z m -730.216,31.234 c 78.605,-31.304 157.206,-62.613 235.816,-93.918 3.48,-1.39 7.22,-2.547 10.59,-4.219 16.36,-8.136 13.56,-34.113 -6.55,-34.113 H 773.805 c -15.418,0 -23.453,18.356 -12.989,29.684 l 90.653,98.137 c 4.969,5.378 12.734,7.14 19.535,4.429 z m -45.477,109.969 -56.121,22.355 c -13.832,5.508 -15.082,24.598 -2.09,31.864 l 158.836,88.84 c 18.832,10.535 33.215,-13.559 20.801,-28.325 -6.73,-8.004 -14.273,-15.453 -21.367,-23.129 -22.797,-24.679 -45.594,-49.359 -68.391,-74.039 -8.168,-8.843 -17.597,-23.168 -31.668,-17.566 z m 696.593,-65.746 c -28.99,-42.36 -57.99,-84.719 -86.98,-127.074 -9.12,-13.325 -20.51,-40.098 -40.33,-33.922 -9.78,3.051 -19.32,7.695 -28.83,11.484 -111.34,44.348 -379.195,151.031 -401.777,160.027 -13.648,5.434 -43.726,15.54 -24.996,35.817 l 279.523,320.258 c 7.27,7.859 19.79,7.519 26.62,-0.723 l 275.8,-344.602 c 5.03,-6.078 5.43,-14.753 0.97,-21.265 z m 42.71,102.324 c -31.23,37.719 -62.45,75.438 -93.67,113.156 -18.63,22.496 -37.25,44.996 -55.88,67.496 -4.11,4.965 -8.58,9.786 -12.4,14.977 -9.41,12.805 -1.52,31.895 15.91,29.426 14.99,-2.125 195.35,-63.27 223.31,-72.352 15.33,-4.98 44.75,-10.965 31.2,-34.156 -14.15,-24.234 -65.74,-96.051 -74.64,-109.051 -7.63,-11.14 -21.27,-24.676 -33.83,-9.496 z M 2022.8,443.371 c -66.26,-31.195 -132.51,-62.387 -198.76,-93.582 -8.33,-3.922 -16.64,-8.617 -25.25,-11.891 -15.06,-5.714 -22.53,6.235 -30.7,16.094 -27.72,33.488 -105.64,127.613 -116.88,141.196 -7.87,9.507 -14.04,18.324 -5.99,30.8 21.48,33.27 44.82,65.477 67.19,98.153 7.82,11.418 15.07,23.66 23.64,34.531 9.61,12.195 20.95,7.945 31.13,0.629 27.65,-19.852 239.54,-169.918 258.34,-185.52 10,-8.297 9.96,-24.437 -2.72,-30.41 z m -13.37,189.531 c 31.88,-10.351 167.82,-52.414 202.66,-65.836 9.04,-3.484 15.19,-11.476 12.61,-21.597 -2.25,-8.828 -9.99,-11.739 -17.33,-15.196 -19.14,-9.011 -38.11,-18.546 -57.47,-27.058 -14.47,-6.36 -24.03,3.555 -35.06,11.473 -18.27,13.121 -36.54,26.242 -54.81,39.363 -19.49,13.996 -38.97,27.984 -58.45,41.98 -4.33,3.102 -10.05,6.289 -12.9,10.903 -8.48,13.754 5.67,30.871 20.75,25.968 z M 702.793,519.988 750.879,500.84 c 11.527,-4.594 14.863,-19.317 6.445,-28.434 l -48.086,-52.054 c -10.922,-11.821 -30.675,-4.094 -30.675,12 v 71.207 c 0,12.5 12.617,21.054 24.23,16.429 z M 1181.39,946.559 618.484,631.711 C 591.766,615.48 593.23,585.012 593.23,585.012 V 278.074 c 0,-0.273 0.036,-0.539 0.04,-0.808 0,0 -1.184,-41.86 42.617,-41.86 H 2371.05 c 23.26,0 42.8,19.391 42.8,42.668 v 282.168 c -0.04,0.883 -0.07,1.762 -0.11,2.645 -1.07,17.254 -12.91,32.593 -29.38,37.937 L 1284.09,958.273 c -52.32,18.262 -102.7,-11.714 -102.7,-11.714" /></g></g></svg>